<?xml version="1.0" encoding="UTF-8"?>
<svg id="Layer_2" data-name="Layer 2" xmlns="http://www.w3.org/2000/svg" viewBox="0 0 290.4 324.92">
  <defs>
    <style>
      .cls-1 {
        fill: #acacac;
        stroke: #020d1e;
        stroke-linecap: round;
        stroke-linejoin: round;
        stroke-width: 2px;
      }

      .cls-2 {
        fill: #ddebff;
      }

      .cls-2, .cls-3 {
        stroke-width: 2px;
      }

      .cls-3 {
        fill: #020d1e;
      }
    </style>
  </defs>
  <g id="Layer_2-2" data-name="Layer 2">
    <path class="cls-1" d="m128.75,173.16c1.62-.31,3.36-1.23,4.22-.71,2.4,1.47,4.7,2.66,7.59,2.03.06-.01.15.12.22.11.82-.16,1.89-.09,2.4-.58.49-.48.46-1.55.57-2.37.13-.99-.02-2.04.25-2.98.89-3.03,3.82-3.45,6.16-4.63,4.18-3,6.67.46,9.42,2.36-1.29,1.16-2.61,2.29-3.85,3.49-.95.92-.93,1.76.47,2.24.47,1.42,1.26,1.06,2.37.66,2.31-.84,4.62-1.8,6.56,1.09,1.15,1.72,2.88,1.09,4-1.16.54-1.09,1.08-2.17,1.74-3.5.32-.64,1.08-.94,1.74-.67l.57.23c.53.21.87.73.86,1.29-.06,4.13-.14,8.26-.14,12.4,0,.96.36,1.92.55,2.88.09.76.54,1.76.22,2.25-1.68,2.52-.08,4.76,1.97,5.67.79.35,1.36,1.19,2.02,1.81.45.42.86.9,1.35,1.27.71.54,1.54.94,2.22,1.52,1.16,1,1.13,1.89-.5,2.27-2.31.54-1.44,1.75-.71,2.97-1.85-.76-1.36-2.16-.97-3.54.65-.12,1.31-.23,2.04-.36-.91-2.2-2.45-2.3-4.1-2.18.05-1.65.06-3.26-1.92-2.97-.27.29-.54.58-.81.87.92.69,1.84,1.38,2.76,2.07l.57,2.24c-1.03,2.25-.17,4.07,1.74,5.75,1.07.94,2.89,2.33,2.71,3.13-.63,2.74,1.46,3.66,2.56,5.3.4.59.41,2.03-.02,2.49-1.31,1.38-1.23,2.42.09,3.63.32.29.44.81.79,1.48-2.35.35-4.88-2.34-6.54.77-1.13,4.28,2.54,4.23,4.96,5.24-2.1,3.48-1.81,4.49,1.4,6.86,2.4,1.77,4.64,3.75,6.96,5.63-2.09.46-3.64-.37-5.27-1.67-.8-.64-2.52-.8-3.49-.39-1.35.56-2.11,1.83-.9,3.49.43.58.44,1.62.32,2.4-.13.9-.62,1.75-1.11,3.04,3.06-1.88,3.44-3.11,2.38-6.31.4.83,1.08,1.65,1.15,2.51.25,3.12,2.72,1.92,4.25,2.16l1.55,2.42c-1.15,1.92-2.31,3.83-3.45,5.75-.84,1.42-1.44,3.05-2.53,4.24-1.22,1.31-2.82,2.3-4.35,3.28-1.01.65-2.13,1.28-3.29,1.53-2.33.5-4.81,3.02-5.1,5.5-.6.82-1.5,1.55-1.74,2.47-.35,1.32-.23,2.77-.31,4.17-.13.11-.29.2-.38.33-2.06,3.02-3.16,7.18-8.12,6.75-.3-.03-.63.52-.98.75-1.04.68-2.32,1.13-3.09,2.03-1.83,2.12-3.42,4.44-5.1,6.68-.04.05,0,.17,0,.25.32,1.7.72,3.39.92,5.1.1.88.08,1.97-.36,2.68-1.3,2.12-2.85,4.08-4.24,6.14-.39.57-.98,1.46-.79,1.89,2.45,5.3-.61,9.86-1.86,14.65l-3.36,2.17-1.84-2.44-3.98-2.58c-.84-.25-1.7-1.08-2.54-1.06-2.01.04-3.21-.83-4.12-2.56-.71-1.35-1.78-2.51-2.69-3.76-.68-2.22-1.37-4.44-2.05-6.66-1.25-4.07-4.33-7.87-1.44-12.59-1.17.06-1.94.1-2.78.15-.13-.57-.27-.97-.3-1.38-.19-2.21.14-4.39-1.33-6.49-1.01-1.44-2.05-4-1.43-5.24,1.48-2.95.56-6.01,1.37-8.81.52-1.81.66-4.74,3.4-4.95,2.86-.22,3.92-1.82,4.51-4.2,1.65-1.34,2.15-3.95,1.01-5.28l-1-5.17c1.08-.77,1.49-1.73.62-3.08-.39-.61-.77-1.24-1.06-1.9-2.21-5.1-2.29-5.9-6.42-4.43.66-2.12,1.25-3.84,1.72-5.6.13-.51-.04-1.12-.15-1.66-.24-1.22-.83-2.45-.74-3.63.41-5.59-.46-11.03-1.72-16.42-.17-.73-1.07-1.29-1.63-1.93l-2.32-4.15c-2.49-.67-5-1.31-7.48-2.04-.6-.18-1.12-.66-1.67-1.01-1.06-3.7-.82-3.96,2.87-4.93.87-.23,1.89-1.34,2.07-2.21.12-.58-1.01-1.57-1.77-2.14-.45-.34-1.26-.2-1.85-.27q-1.65-5.69,4.17-5.71c.08,0,.17-.01.25,0,2.88.47,4.91-.96,6.42-3.13.51-.73.42-1.89.61-2.85-.25-.04-.5-.08-.76-.12-.3.67-.6,1.35-.89,2.02-.42-1.39-.8-2.8-1.28-4.17-.53-1.54-.61-2.77,1.34-3.33,1.72-.48,3.45-.98,5.08-1.7,1.03-.46,1.92-1.28,2.77-2.06l1.75-.88Z"/>
    <g>
      <g>
        <path class="cls-2" d="m196.76,240.75c-.34,0-.67-.12-.93-.35-.35-.3-.84-.5-1.41-.72-1.27-.5-2.99-1.18-3.59-3.55-.31-.25-1.27-.62-1.87-.85-.58-.22-1.18-.45-1.7-.71-.21-.11-.44-.19-.77-.31-.23-.08-.5-.18-.83-.31-.55-.21-.91-.74-.9-1.33,0-.59.37-1.11.92-1.32.31-.12.55-.22.76-.3.44-.18.78-.32,1.18-.41.3-.06.46-.14.53-.19-.03-.08-.1-.22-.27-.39-.3-.31-.59-.65-.88-.99-1.14-1.33-1.9-2.15-3.24-2.15-.12,0-.24,0-.36.02-.2.02-.39.03-.55.03-.87,0-1.52-.29-1.93-.85-.67-.91-.38-2.06.03-3.35.13-.41.44-.74.85-.9.16-.06.33-.09.5-.09.25,0,.5.07.73.2,1.18.7,1.95,1.01,2.51,1.01.4,0,.91-.16,1.86-1.14l-1.87-2.09c-.48-.54-.48-1.35,0-1.88l2.01-2.27-4.07-3.29c-.39-.32-.58-.81-.51-1.31.07-.5.4-.92.87-1.11l1.06-.43c-.05-.05-.11-.09-.16-.14-1.43-1.22-2.78-2.36-4.07-3.63-1.09-1.07-2.14-2.22-1.84-3.57.21-.96.97-1.53,1.95-1.98-.79-.6-1.47-1.28-2.13-1.96-.97-.99-1.89-1.92-3.07-2.43-1.46-.63-2.46-1.75-2.82-3.15-.38-1.49-.04-3.15.96-4.75-1.66-3.85-1.69-13.53-.14-17.94l-1.93-.95-3.41,6c-.24.43-.7.7-1.19.72h-.04c-.48,0-.93-.24-1.19-.64l-1.83-2.82-4.56.85c-.09.02-.17.02-.26.02-.3,0-.6-.1-.85-.28-.32-.24-.52-.6-.56-.99l-.07-.65c-.05-.51.18-1.02.6-1.31.35-.24.71-.48,1.06-.71.82-.54,1.6-1.05,2.25-1.65.03-.05.07-.19.1-.33-.15-.07-.35-.16-.48-.22-.16-.07-.32-.13-.46-.2-.38-.18-.79-.33-1.2-.48-.89-.33-1.9-.7-2.74-1.38-.92-.75-1.85-1.11-2.86-1.11-.86,0-1.8.28-2.77.82-2,1.12-4.04,2.04-6.19,3.01-.45.2-.91.41-1.36.62l.19.3c.25.41.28.92.07,1.35l-1.85,3.87c-.24.49-.73.81-1.28.81h-.02c-.49,0-.95-.27-1.2-.69l-.15.75c-.13.66-.71,1.13-1.38,1.14h-.01c-.67,0-1.24-.46-1.38-1.11-.33-1.5-.95-1.78-1.99-1.78-.6,0-1.28.11-1.93.22l-.21.03c-1.5.25-2.46,1.02-3.02,2.45-.68,1.71-2.71,2.64-4.34,3.4-.97.45-1.9.73-2.79.99-.83.25-1.62.48-2.32.81-.06.26-.09.64-.06.86,2.17,2.44,1.45,4.56.82,5.62-1.1,1.84-2.74,2.85-4.63,2.85-.34,0-.69-.03-1.04-.1-.56-.1-1.15-.15-1.78-.2-.31-.02-.62-.05-.93-.08-.68-.07-1.21-.61-1.27-1.28l-.03-.36c-.18.08-.35.15-.54.21-.5.17-1.03.25-1.65.25-.87,0-1.74-.17-2.49-.33-.6-.13-1.04-.58-1.31-1.34-.19-.52-.54-1.82.14-2.67.67-.82,1.76-1.96,3.16-2.71.54-.28,1.08-.32,1.44-.32.21,0,.43.01.66.03.16.01.32.02.47.02.14,0,.2-.01.22-.02l.24-.06c.6-.16,1.61-.42,1.86-.72,2.35-2.93,5.4-4.34,8.11-5.31.78-1.96,2.44-2.98,3.8-3.82.96-.59,1.82-1.12,2.33-1.87-.02-.05-.04-.09-.07-.14-.31-.65-.62-1.32-.99-1.94-.11-.18-.37-.41-.71-.61-.07-.02-.23-.05-.36-.08-.47-.1-1.57-.33-1.67-1.48-.1-1.21-.46-1.36-2.25-1.62-1.29-.18-2.91-.41-3.93-1.83-.1-.09-.63-.25-.97-.36-.17-.05-.33-.11-.5-.16l-4.29,2.2c-.2.1-.43.16-.65.16-.24,0-.48-.06-.69-.18-.41-.23-.69-.65-.72-1.12-.14-1.7-.65-1.7-1.35-1.7-.37,0-.8.05-1.24.09-.5.05-1.01.11-1.52.11-.16,0-.32,0-.47-.02-.08,0-.16,0-.23,0-.71,0-1.54.19-2.31,2.41-.52,1.5-1.45,2.89-2.93,4.4-.27.28-.64.42-1.01.42-.19,0-.39-.04-.57-.12-.54-.24-.88-.78-.85-1.37.02-.33,0-.68-.02-1.03-.05-1.04-.1-2.22.51-3.22.11-.18.22-.35.33-.53.13-.2.31-.47.43-.7-.04,0-.1,0-.16,0-.43,0-1.01.11-1.57.22-.46.09-.91.18-1.34.22-.47.05-.96.45-1.52.9-.85.68-1.89,1.53-3.42,1.56-.04.07-.08.16-.12.24-.3.63-.57,1.28-.86,1.99l-.1.23.59.73c.49.61.4,1.5-.21,1.99-2.29,1.87-2.93,3.08-2.47,4.65.37,1.24.93,2.26,1.22,2.53,3.63.67,3.48,3.39,3.4,4.86-.02.27-.03.55-.03.82.02,1.07-.44,2.03-1.34,2.86-.26.24-.61.37-.96.37-.13,0-.26-.02-.39-.05-.47-.14-.84-.51-.97-.98-.06-.21-.11-.44-.15-.66-.04-.22-.11-.56-.17-.65-.11-.15-.28-.3-.39-.37-.02.01-.05.03-.08.04-.19,1.28-.93,2.94-3.53,2.94-.37,0-.77-.03-1.15-.07-.2-.02-.39-.03-.57-.03-.65,0-.83.13-.87.17-.04.05-.27.33-.23,1.49.04,1.4-.67,2.68-1.29,3.8-.25.45-.48.87-.66,1.27-.23.53-.75.85-1.3.85-.12,0-.24-.02-.37-.05l-1.04-.28c-.72-.19-1.16-.91-1.02-1.64.07-.37.11-.76.16-1.15.12-1.03.25-2.19.84-3.21.75-1.27.76-2.14.04-3.43-.67-1.21-1.02-2.72-.94-4.03.06-.94-.15-1.6-.77-2.2-.46.73-.88,1.43-1.14,2.13-.06.19.03.75.18.94,1.91,2.55,1.69,5.09-.62,7.15-1.33,1.19-2.67,2.37-4.12,3.63l-1.99,1.75c-.27.23-.6.35-.94.35-.23,0-.47-.06-.68-.17-.52-.29-.81-.87-.72-1.46.03-.21.05-.43.07-.65.06-.7.12-1.49.51-2.24.32-.62.82-1.01,1.23-1.33.15-.12.38-.3.44-.38.34-.85.53-1.67.56-2.36-.12-.04-.25-.08-.35-.12-.45-.14-.91-.29-1.31-.5-.56-.29-1.06-.62-1.55-.94-.19-.13-.39-.26-.58-.38-.37-.24-.62-.63-.65-1.07-.04-.44.13-.87.46-1.17l.55-.5c.41-.37.81-.74,1.21-1.11.45-.42.94-.82,1.43-1.22,1.02-.83,1.98-1.6,2.46-2.5.28-.52.37-1.02.24-1.31-.16-.38-.78-.6-1.14-.7-1.45-.41-2.38-1.7-3.36-3.06-.02-.02-.04-.05-.05-.07-.78,1.46-1.58,2.96-2.48,4.42-.53.87-1.61,1.97-2.89,2.22l-.43.08q-.91.16-1.01.63c-.28,1.32-1.79,1.91-2.89,2.34-.79.31-1.58.5-2.49.73-.4.1-.83.21-1.3.33-.12.03-.25.05-.37.05-.2,0-.39-.04-.57-.12-.09-.04-.21-.08-.34-.12-.63-.21-1.59-.54-2.36-1.23-.98-.88-1.48-2.35-1.53-3.42-.05-.97-.08-.97-.86-1.01-1.01-.05-1.94-.38-2.75-.67-.18-.06-.36-.13-.53-.19l-2.97.63c-.1.02-.2.03-.3.03-.34,0-.68-.12-.94-.36-.34-.3-.51-.74-.47-1.19l.14-1.55c-.11.03-.22.04-.33.04-.21,0-.42-.05-.61-.14-.41-.2-.7-.58-.78-1.03l-.97-5.55c-.34-.15-.62-.42-.76-.78-.2-.51-.09-1.08.27-1.48l2-2.17-.49-.7c-.3-.43-.34-1-.1-1.47l.05-.1c.38-.85,1.02-.97,1.37-.97.04,0,.29.01.29.01.54,0,.7-.11,1.21-1.38.2-.49.42-1.04.76-1.54.29-.42.48-1.02.5-1.52l.05-1.24c.09-2.11.17-4.29-.09-6.32-.13-1-.59-2.04-1.12-3.25-.04-.08-.07-.17-.11-.25l-.41.31c-.25.19-.55.28-.85.28s-.61-.1-.87-.29c-4.09-3.16-8.82-4.03-13-4.8-.38-.07-.72-.3-.93-.62-.23-.36-.44-.72-.65-1.08-.36-.64-.71-1.25-1.12-1.64-2.69-2.59-5.32-5.88-4.49-10.66.38-2.21-.41-3.88-1.92-6.01-1.64-2.32-1.31-4.86.9-6.98.92-.88,1.84-1.31,2.81-1.31.63,0,1.21.19,1.73.48,0-.05.02-.1.03-.15.33-1.78.64-3.45,1.32-5.04l.31-.73c1.35-3.23,2.88-6.88,7.13-8.54,1.18-.46,2.28-1.2,3.46-1.99.59-.39,1.17-.79,1.77-1.15.96-.58,1.93-1.16,2.91-1.74l1.3-.77c.22-.13.47-.2.73-.2.22,0,.44.05.64.15.4.2.82.39,1.23.59,1,.46,2.03.94,2.99,1.61,3.01,2.12,4.29,4.96,3.79,8.44-.04.26.07.78.19,1.08.17.03.35.04.54.04.5,0,.99-.11,1.28-.28,1.64-.99,3.47-1.49,5.47-1.49,1.5,0,3.05.3,4.47.86,1.96.77,3.85.87,5.85.98l1.12.06c.55.03,1.11.07,1.67.07.52,0,.97-.03,1.36-.1,2.52-.43,4.98-.96,7.32-1.59.06-.16.11-.36.11-.46-.33-3.09-.38-7.65,2.88-11.59.17-.84.38-1.68.58-2.52.49-2.03.96-3.94.96-5.82,0-3.36.85-6.34,2.87-9.98.43-.77.62-1.77.82-2.83.2-1.06.42-2.16.89-3.2.72-1.6,1.73-3.06,2.62-4.35.36-.52.71-1.03,1.03-1.52.27-.41.72-.65,1.19-.65.14,0,.28.02.42.06l11.9,3.64,1.21-1.04c1.63-1.4,3.48-2.98,5.3-4.6,2.01-1.79,4.62-2.73,7.56-2.73,1.78,0,3.63.33,5.5.99,3.49,1.22,4.65,3.76,5.68,6,.28.62.55,1.2.86,1.76.6,1.08,1.29,2.16,1.96,3.2.46.71.92,1.43,1.35,2.16.55.92.98,1.76,1.29,2.56.24.61.45,1.23.66,1.85.34.98.65,1.92,1.08,2.77.17.06.49.12.82.12.06,0,.11,0,.16,0,.39-.03.77-.05,1.15-.05,3.4,0,6.42,1.31,9.51,4.14.28.26.69.48,1.08.57l.39.1c3.32.81,7.09,1.73,8.65,6.31.07.11.73.65,2.52,1.16,4.39,1.27,7.52,4.16,10.25,7.09,1.94,2.08,3.22,4.6,4.05,7.94.62,2.49,1.5,4.99,2.36,7.4.57,1.62,1.16,3.29,1.68,4.96.47,1.54.84,3.12,1.19,4.64.26,1.13.53,2.31.84,3.43.08.3.16.61.24.91.39,1.48.76,2.87,1.44,4.01,2.38,3.99,3.62,8.2,4.61,12.16.25,1,.72,1.98,1.22,3.02.52,1.09,1.06,2.21,1.38,3.45.49,1.87.43,3.81.37,5.68v.46c-.03.44-.02.87-.02,1.31.02,1.95.03,4.16-1.38,6.4-.26.41-.09,2.15.76,3.96.82,1.76,2.09,3.42,3.33,5.04l.8,1.06c.89,1.19,1.99,2.65,1.33,4.84.04.09.09.21.13.3.16.35.36.79.42,1.29l.08.59c.18,1.33.37,2.71.25,4.11-.07.8-.35,1.52-.6,2.15-.21.53-.41,1.03-.41,1.41-.04,6.48-.05,12.96-.05,19.44,0,5.95,0,11.9-.04,17.85,0,.91-.22,1.75-.43,2.55-.18.7-.35,1.37-.34,1.94.05,1.58.39,3.14.95,4.4.62,1.37,1.36,2.68,2.15,4.06.59,1.02,1.19,2.08,1.74,3.17.54,1.07.38,2.3.12,3.47-.11.49-.46.89-.94,1.04-.15.05-.3.07-.45.07Zm-116.38-70.39c.37.1.64.12.83.12.22,0,.33-.04.35-.06h0s.22-.33-.05-1.51c-.68-2.93-1.18-6.07-1.54-9.75l-1.35,1.99c-.24.35-.6.56-.99.61l.61,4.71.41-.19c.2-.1.43-.15.66-.15.27,0,.54.07.76.21l.53.34c.56.37.79,1.08.55,1.7l-.76,1.97Zm-33.08-10.82c.91.87,1.91,1.65,2.97,2.48.42.33.84.66,1.26.99.1.08.21.15.32.21.43.28,1.02.65,1.32,1.35.49,1.13,1.56,3.02,3.31,3.02.88,0,1.85-.47,2.82-1.35-.56-.7-.85-1.41-.87-2.14-.03-1.06.5-1.89,1.12-2.57-.92.59-1.85,1.65-2.59,3.01-.25.46-.73.74-1.25.74-.05,0-.1,0-.14,0-.57-.06-1.05-.45-1.21-1-1.09-3.61.06-6.56,1.07-9.17.31-.8.61-1.57.84-2.33-1.95-1.05-3.69-1.56-5.3-1.56-.51,0-1.01.05-1.5.16v2.57c.05.14.38.47.59.67.82.82,2.35,2.34,1.15,4.98-.17.38-.5.66-.9.78-.13.04-.26.05-.39.05-.28,0-.56-.08-.79-.24-.25-.17-.47-.35-.69-.52-.18-.14-.42-.34-.52-.38,0,0-.13,0-.22,0-.16,0-.29.01-.39.03,0,.08-.01.16,0,.23Zm19.02-5.44c.46.66.82.9,1,.9.31,0,.79-.39,1.27-.84-.23-.28-.45-.53-.65-.77-.39-.45-.74-.85-1.04-1.3l-.58,2.01Zm-7.74-5.95l3.34-.84c-2.62-2.91-6.7-5-9.12-5-.09,0-.18,0-.26,0l.25,1.68,5.78,4.16Zm-30.48-31.08c.29.61.54,1.14.74,1.73.67,1.98,2.96,3.59,5.11,3.59h0c.32,0,.63-.04.92-.11,1.27-.31,2.3-.77,2.97-1.33,1.73-1.43,3.04-2.51,3.68-4.64.99-3.3,1.49-5.29.02-7.57-.41-.64-.34-1.35-.3-1.81,0-.06.02-.12.02-.18l-.4.15c-1.53.56-3.01,1.1-4.49,1.64-.53.19-1.06.37-1.59.55-.83.28-1.66.56-2.47.88-.16.06-.34.21-.4.31-1.12,1.8-2.21,3.63-3.28,5.41l-.67,1.11c.04.09.09.18.13.27Z"/>
        <path class="cls-3" d="m117.07,52.96c1.68,0,3.4.34,5.03.91,3.77,1.32,4.26,4.4,5.76,7.1,1.03,1.85,2.24,3.59,3.33,5.4.45.75.87,1.54,1.19,2.35.65,1.66,1.1,3.42,1.92,4.99.23.43,1.21.64,1.95.64.1,0,.19,0,.28-.01.35-.03.69-.05,1.03-.05,3.36,0,6.08,1.5,8.55,3.76.46.42,1.09.75,1.7.9,3.36.83,6.67,1.48,8.04,5.48.34.98,2.18,1.69,3.46,2.07,3.99,1.16,6.89,3.77,9.61,6.69,1.94,2.08,3.02,4.5,3.71,7.32,1.04,4.22,2.77,8.27,4.06,12.44.81,2.63,1.28,5.37,2.02,8.03.49,1.79.9,3.71,1.83,5.27,2.2,3.69,3.42,7.66,4.45,11.78.56,2.24,2.02,4.25,2.6,6.49.48,1.82.37,3.82.31,5.74-.07,2.35.31,4.65-1.17,6.99-.75,1.19-.07,3.72.68,5.32,1.05,2.26,2.71,4.25,4.22,6.27.88,1.17,1.69,2.19,1.11,3.83-.19.53.47,1.32.56,2.01.19,1.46.44,2.95.32,4.4-.1,1.24-1.01,2.45-1.02,3.67-.08,12.43-.02,24.86-.09,37.29,0,1.52-.81,3.04-.76,4.55.05,1.66.4,3.43,1.07,4.94,1.12,2.51,2.68,4.82,3.92,7.28.34.68.2,1.61,0,2.53-1.52-1.32-3.97-.95-4.58-3.67-.24-1.05-2.77-1.6-4.27-2.36-.4-.2-.84-.33-1.73-.68.89-.34,1.3-.56,1.74-.65,2.01-.43,2.03-1.86,1-2.94-1.44-1.51-2.58-3.58-5.14-3.58-.16,0-.33,0-.5.02-.15.01-.29.02-.41.02-1.08,0-1.11-.59-.55-2.35,1.33.79,2.33,1.21,3.24,1.21,1.25,0,2.31-.81,3.76-2.56-.85-.94-1.72-1.91-2.72-3.03.89-1,1.8-2.03,2.99-3.38-1.65-1.34-3.26-2.64-5.22-4.23,1.62-.66,2.52-1.03,3.21-1.31-2.08-1.82-4.09-3.43-5.93-5.22-2.17-2.11-1.97-2.71.87-3.7.2-.07.34-.34.53-.54-.08-.25-.09-.61-.25-.69-2.6-1.28-3.93-4.11-6.68-5.3-2.57-1.11-2.77-3.91-.76-6.51-2.03-2.68-2.06-15.7.08-18.69-1.27-.63-2.52-1.24-4.37-2.16-1.33,2.34-2.73,4.8-4.07,7.16-.85-1.31-1.76-2.7-2.35-3.61-2.18.41-3.84.72-5.5,1.03-.02-.22-.05-.43-.07-.65,1.17-.81,2.44-1.52,3.47-2.48.44-.41.7-1.44.5-2-.18-.5-1.08-.77-1.7-1.07-1.22-.57-2.64-.86-3.65-1.68-1.18-.96-2.44-1.43-3.75-1.43-1.12,0-2.28.34-3.47,1-2.81,1.57-5.81,2.79-8.91,4.25.36.59.69,1.12,1.03,1.66-.56,1.18-1.14,2.4-1.85,3.87-.49-1.12-.89-2.02-1.28-2.91l-.66.02c-.27,1.36-.54,2.72-.81,4.09-.51-2.34-1.87-2.9-3.38-2.9-.78,0-1.61.15-2.37.28-1.77.29-3.28,1.23-4.11,3.32-.48,1.2-2.31,2.03-3.69,2.67-1.74.81-3.74,1.07-5.43,1.96-.48.25-.71,2.28-.26,2.76,1.23,1.31,1.61,2.71.79,4.09-.74,1.24-1.87,2.16-3.41,2.16-.25,0-.51-.02-.78-.07-.93-.17-1.88-.2-2.83-.29-.02-.26-.05-.52-.07-.78.87-.17,1.76-.26,2.6-.53.56-.18,1.25-.5,1.5-.96.19-.37-.1-1.44-.36-1.51-.25-.06-.52-.1-.8-.1-.45,0-.91.09-1.28.26-1.39.67-2.6,1.75-4.03,2.25-.37.13-.77.18-1.19.18-.73,0-1.49-.15-2.19-.3-.26-.05-.61-1.42-.36-1.73.75-.92,1.68-1.79,2.72-2.35.22-.12.49-.15.77-.15.36,0,.75.05,1.12.05.2,0,.4-.02.58-.06,1.01-.27,2.26-.54,2.84-1.27,2.05-2.55,4.75-3.9,7.71-4.95.16-.06.41-.11.44-.21.94-3.53,5.3-3.59,6.56-6.71-.43-.87-.86-1.89-1.42-2.83-.27-.45-.74-.83-1.2-1.1-.41-.25-1.33-.27-1.35-.45-.34-4.16-4.82-1.9-6.44-4.16-.48-.67-1.69-.81-2.71-1.25-1.42.73-3.04,1.56-4.85,2.49-.21-2.51-1.38-3.01-2.77-3.01-.9,0-1.89.21-2.77.21-.12,0-.24,0-.36-.01-.12,0-.23-.01-.34-.01-2.02,0-2.99,1.48-3.65,3.36-.47,1.35-1.32,2.56-2.6,3.87.06-1.22-.27-2.68.29-3.6.69-1.14,1.79-2.39.48-3.15-.31-.18-.68-.24-1.09-.24-.94,0-2.09.34-3.07.45-1.87.21-2.85,2.46-4.86,2.46-.16,0-.33-.01-.5-.04,0,0-.01,0-.02,0-.21,0-.61.68-.8,1.09-.45.93-.82,1.9-1.32,3.07.23.29.63.78,1.12,1.39-1.99,1.63-3.73,3.45-2.93,6.15.39,1.32,1.28,3.35,2.21,3.5,3.03.51,2.3,2.53,2.32,4.32,0,.59-.22,1.19-.88,1.79-.16-.59-.2-1.28-.53-1.76-.33-.47-.96-.98-1.48-1h-.02c-.53,0-1.49.55-1.51.88-.08,1.78-1.03,2.12-2.17,2.12-.33,0-.68-.03-1.03-.06-.25-.02-.48-.03-.7-.03-1.81,0-2.58.8-2.52,3.12.04,1.47-1.18,2.98-1.83,4.46-.35-.09-.69-.19-1.04-.28.25-1.31.19-2.82.83-3.9,1.02-1.73,1-3.14.06-4.84-.52-.94-.83-2.18-.76-3.25.14-2.18-.94-3.37-2.6-4.33-.75,1.29-1.59,2.41-2.05,3.67-.24.64-.05,1.72.37,2.28,1.46,1.95,1.37,3.64-.43,5.24-1.92,1.71-3.86,3.41-6.1,5.38.12-.8.07-1.74.44-2.46.36-.7,1.42-1.07,1.7-1.78.46-1.16.8-2.5.66-3.71-.05-.45-1.6-.69-2.42-1.1-.7-.36-1.35-.83-2.02-1.26.59-.54,1.19-1.07,1.77-1.62,1.44-1.34,3.3-2.45,4.18-4.09.67-1.25,1-3.27-1.76-4.05-1.45-.41-2.42-2.54-4.02-4.36-1.1,2.02-2.2,4.2-3.47,6.27-.42.69-1.22,1.43-1.95,1.57-1.21.23-2.22.21-2.56,1.8-.12.56-1.26,1.02-2.02,1.32-1.03.41-2.15.61-3.64,1.02-.46-.2-1.59-.44-2.33-1.11-.61-.55-1.02-1.59-1.06-2.44-.08-1.54-.55-2.27-2.21-2.35-1.15-.06-2.27-.61-3.29-.91-1.11.24-2.22.48-3.34.71.12-1.31.24-2.61.37-4.14-.54.29-1.17.64-1.97,1.08-.39-2.23-.77-4.4-1.15-6.56l-.66-.05c.88-.96,1.77-1.92,2.77-3.01-.38-.54-.78-1.11-1.15-1.63.09-.17.13-.31.16-.31h0c.1,0,.2.01.29.01,2.25,0,2.25-2.23,3.14-3.54.43-.64.72-1.5.74-2.27.09-2.6.28-5.23-.05-7.79-.23-1.78-1.24-3.46-2.03-5.55-.87.66-1.44,1.08-1.87,1.41-4.27-3.3-9.11-4.25-13.61-5.08-.68-1.05-1.15-2.19-1.97-2.98-2.69-2.59-4.77-5.44-4.08-9.4.49-2.8-.63-4.9-2.16-7.07-1.24-1.76-.95-3.53.72-5.13.65-.62,1.24-.92,1.83-.92.83,0,1.66.58,2.65,1.7.62-2.71.83-5.14,1.73-7.27,1.43-3.36,2.67-6.95,6.65-8.51,1.94-.76,3.64-2.15,5.45-3.25,1.38-.84,2.78-1.66,4.2-2.51,1.35.68,2.81,1.22,4.05,2.09,2.41,1.7,3.65,3.98,3.21,7.09-.12.84.31,2.38.84,2.55.38.13.83.19,1.29.19.73,0,1.48-.16,2.02-.49,1.51-.92,3.15-1.29,4.73-1.29,1.41,0,2.77.3,3.96.76,2.41.95,4.63.98,6.98,1.11.72.04,1.45.1,2.18.1.54,0,1.07-.03,1.6-.12,2.64-.45,5.27-1.02,7.84-1.73.41-.11.82-1.24.76-1.85-.41-3.92.02-7.59,2.7-10.71.05-.06.1-.14.11-.22.58-2.95,1.62-5.91,1.61-8.86,0-3.49,1.05-6.34,2.69-9.29,1.01-1.81.9-4.21,1.77-6.14.95-2.1,2.45-3.96,3.55-5.68,4.33,1.32,8.01,2.45,12.65,3.87,1.95-1.68,4.57-3.89,7.13-6.16,1.89-1.68,4.22-2.37,6.62-2.37M33.95,123.81c.43,0,.85-.05,1.26-.15,1.24-.31,2.57-.81,3.53-1.61,1.73-1.43,3.36-2.75,4.14-5.32.94-3.12,1.74-5.81-.14-8.74-.23-.36-.01-.99-.05-1.49-.06-.71-.16-1.43-.19-1.7-2.3.84-4.45,1.63-6.59,2.41-1.36.49-2.75.92-4.09,1.45-.42.16-.85.5-1.09.88-1.5,2.41-2.94,4.85-4.34,7.18.47,1.05.87,1.77,1.12,2.53.87,2.57,3.71,4.56,6.45,4.56m24.34,25.89c2.51-.63,4.18-1.06,6.07-1.53-2.63-4.13-8.17-7.26-11.55-7.26-.73,0-1.36.15-1.84.46.19,1.29.37,2.43.52,3.44,2.46,1.77,4.98,3.58,6.8,4.89m9.03,6.73c1.38,0,2.64-1.69,3.89-2.92.72.44,1.31.8,2.01,1.23,1.35-2.68-.58-3.47-2.16-4.74-.41,1.09-.74,1.96-1.28,3.38-.83-1.02-1.5-1.67-1.93-2.44-.4-.71-.55-1.57-.82-2.36-.2.01-.39.02-.59.03-.52,1.79-1.04,3.58-1.66,5.72.9,1.54,1.74,2.1,2.54,2.1m-17.4,2.59c-.67-.45-1.16-1.02-1.74-1.11-.15-.02-.31-.03-.48-.03-.59,0-1.25.14-1.52.47-.35.44-.41,1.69-.05,2.04,1.39,1.36,2.99,2.51,4.51,3.74.42.34,1.03.58,1.22,1.02,1.1,2.56,2.77,3.88,4.61,3.88,1.54,0,3.21-.92,4.8-2.8-3.58-2.95.58-4.15,1.51-6.11-.53-.34-1.11-.5-1.71-.5-1.83,0-3.88,1.52-5.36,4.27-1.4-4.6,1.41-8,2.2-11.78-2.25-1.36-4.59-2.29-6.94-2.29-.97,0-1.94.16-2.91.51v3.73c.13,1.66,3.14,2.16,1.86,4.97m27.52,1.35c-.48-.23-1.17-.55-1.53-.72.4,3.07.77,5.93,1.17,8.95.98-.46,1.6-.76,2.22-1.05l.52.34c-.43,1.11-.86,2.23-1.29,3.33,1.06.46,1.96.7,2.67.7,1.53,0,2.19-1.09,1.68-3.31-.91-3.92-1.39-7.82-1.71-11.79-.01-.14-.38-.25-.94-.58-.9,1.32-1.78,2.62-2.8,4.12m3.02,16.05c.29-.1.58-.2.87-.29-.13-.89.02-2.01-.48-2.59-.13-.16-.39-.2-.68-.2-.48,0-1.05.12-1.34.12.61,1.11,1.12,2.03,1.62,2.96m36.62-126.29c-3.3,0-6.24,1.07-8.51,3.09-1.79,1.6-3.62,3.16-5.24,4.54-.23.19-.45.39-.67.57l-10.24-3.13-.92-.28c-.27-.08-.55-.12-.83-.12-.95,0-1.86.48-2.39,1.31-.3.46-.64.96-1,1.48-.92,1.34-1.97,2.85-2.75,4.57-.54,1.2-.78,2.43-.99,3.52-.18.94-.35,1.84-.67,2.41-1.42,2.56-3.06,6.1-3.05,10.67,0,1.71-.44,3.54-.92,5.48-.18.73-.36,1.47-.52,2.23-3.1,3.94-3.31,8.33-3.05,11.57-1.99.5-4.06.94-6.18,1.3-.31.05-.68.08-1.12.08-.5,0-1.04-.03-1.6-.07l-.41-.02-.7-.04c-1.96-.1-3.65-.19-5.4-.88-1.59-.63-3.32-.96-4.99-.96-2.14,0-4.2.54-5.99,1.57.3-3.69-1.23-6.83-4.46-9.11-1.06-.75-2.21-1.28-3.22-1.74-.4-.18-.8-.37-1.18-.56-.4-.2-.84-.3-1.28-.3-.5,0-1.01.13-1.45.4l-1.31.78c-.98.58-1.95,1.16-2.91,1.74-.64.39-1.24.79-1.83,1.19-1.11.74-2.15,1.45-3.18,1.85-4.81,1.88-6.54,6-7.92,9.32l-.3.72c-.54,1.28-.86,2.56-1.13,3.89-.21-.03-.42-.04-.65-.04-1.33,0-2.6.57-3.79,1.7-2.73,2.61-3.14,5.91-1.08,8.82,1.52,2.16,1.95,3.41,1.68,4.95-.95,5.46,2.12,9.24,4.91,11.92.26.25.56.77.87,1.32.2.35.43.75.69,1.15.42.66,1.1,1.11,1.87,1.25,4.02.74,8.57,1.58,12.39,4.53.51.39,1.12.59,1.73.59.19,0,.38-.02.57-.06.26.64.46,1.21.52,1.72.24,1.92.16,3.95.08,6.09-.02.42-.03.83-.05,1.25,0,.24-.12.58-.25.77-.43.62-.69,1.28-.9,1.81-.06.14-.13.33-.2.48-.45,0-1.91.15-2.65,1.81-.44.85-.43,1.89.03,2.72l-.45.49-.79.86c-.74.8-.95,1.96-.55,2.97.17.43.44.8.78,1.1l.05.28.82,4.67c.16.9.74,1.67,1.56,2.07,0,0,.02,0,.02.01l-.02.23c-.08.9.27,1.78.94,2.38.52.46,1.19.71,1.88.71.2,0,.4-.02.59-.06l.08-.02,2.5-.54s.1.04.15.05c.75.27,1.67.6,2.7.72.16,1.57.92,3.15,1.98,4.1.99.89,2.16,1.28,2.86,1.52.1.03.18.06.25.09.36.16.73.23,1.1.23.25,0,.5-.03.76-.1.46-.12.88-.23,1.27-.33.92-.23,1.79-.44,2.66-.79,1.14-.45,3-1.17,3.63-2.9.15-.03.3-.05.46-.08,1.73-.33,3.12-1.7,3.83-2.87.52-.85,1.01-1.71,1.48-2.57.76.85,1.64,1.57,2.82,1.91,0,0,0,0,.01,0-.35.64-1.19,1.32-2.09,2.05-.5.4-1.01.82-1.51,1.28-.39.36-.79.72-1.18,1.08l-.57.52c-.65.6-.99,1.46-.91,2.34.08.88.56,1.68,1.31,2.15.19.12.37.24.56.36.5.33,1.06.7,1.69,1.03.24.12.48.22.72.31-.05.19-.11.39-.18.59-.03.02-.06.05-.09.07-.46.36-1.16.91-1.62,1.8-.51,1.01-.6,2.02-.66,2.77-.02.19-.03.38-.06.55-.18,1.18.39,2.35,1.44,2.92.43.23.89.35,1.36.35.68,0,1.34-.24,1.87-.71l2.02-1.78c1.43-1.26,2.76-2.43,4.08-3.6.11-.1.22-.2.32-.3-.13.61-.2,1.2-.26,1.73-.04.38-.08.74-.14,1.04-.28,1.46.61,2.89,2.05,3.27l.52.14.52.14c.25.07.49.1.74.1,1.1,0,2.14-.65,2.6-1.7.15-.34.37-.74.6-1.15.68-1.22,1.52-2.74,1.46-4.53,0-.07,0-.13,0-.19.04,0,.09,0,.14.01.44.04.84.07,1.28.07,1.46,0,2.66-.45,3.53-1.27.36.43.84.75,1.39.9.26.07.52.11.78.11.7,0,1.38-.26,1.91-.74,1.52-1.39,1.82-2.9,1.81-3.93,0-.24.01-.48.03-.72.05-.93.12-2.21-.46-3.47-.45-.97-1.43-2.19-3.52-2.74-.21-.36-.49-.98-.69-1.67s-.19-1.36,2.01-3.15c1.21-.99,1.39-2.76.41-3.98l-.06-.08c.13-.32.26-.62.39-.91,1.52-.29,2.61-1.17,3.37-1.79.26-.21.65-.53.82-.6.12-.01.24-.03.36-.05-.25.98-.21,1.95-.17,2.72.01.34.03.66.02.9-.06,1.18.61,2.27,1.69,2.74.37.16.76.24,1.14.24.75,0,1.48-.29,2.02-.85,1.63-1.66,2.67-3.23,3.26-4.93.51-1.46.82-1.46.97-1.46.04,0,.08,0,.12,0,.19.01.38.02.58.02.59,0,1.17-.06,1.68-.12.36-.04.7-.08.98-.08.02.1.04.24.05.4.08.94.62,1.79,1.45,2.25.43.24.9.36,1.38.36.44,0,.89-.1,1.29-.31l3.14-1.61.63-.32c.14.05.32.1.45.15,1.37,1.62,3.31,1.9,4.63,2.08.31.04.75.11,1.02.18,0,.04.01.09.02.15.08,1,.63,2.29,2.79,2.75.03,0,.07.01.1.02.04.03.06.05.08.06.19.33.37.68.55,1.04-.34.28-.8.57-1.38.92-1.34.83-3.09,1.9-4.1,3.9-2.59.98-5.66,2.5-8.05,5.41-.26.13-.85.28-1.22.38l-.13.03c-.12,0-.23-.01-.34-.02-.26-.02-.51-.03-.76-.03-.8,0-1.49.16-2.1.48-1.62.86-2.85,2.14-3.6,3.07-1.13,1.4-.64,3.28-.38,4.03.56,1.57,1.59,2.1,2.36,2.26.82.17,1.78.36,2.78.36.44,0,.85-.04,1.25-.11.46.71,1.22,1.2,2.11,1.29.32.03.63.05.95.08.59.04,1.15.09,1.63.18.44.08.88.12,1.3.12,2.41,0,4.49-1.26,5.85-3.54,1.22-2.04,1.11-4.3-.25-6.35.32-.1.66-.21,1-.31.94-.28,1.92-.57,2.91-1.03l.08-.04c1.76-.81,4.17-1.93,5.05-4.16.38-.96.92-1.4,1.93-1.57l.21-.04c.6-.1,1.22-.2,1.7-.2.22,0,.34.02.39.04.04.06.14.25.22.63.28,1.3,1.44,2.23,2.77,2.23h.03c.95,0,1.8-.48,2.31-1.23.12.02.25.03.38.03h.04c1.09,0,2.09-.63,2.56-1.62l1.85-3.87c.23-.48.32-1.01.26-1.53l.15-.07c2.09-.94,4.25-1.92,6.3-3.06.76-.43,1.46-.64,2.08-.64.66,0,1.31.26,1.96.79,1.02.83,2.15,1.25,3.14,1.61.01,0,.02,0,.03.01-.17.11-.35.23-.53.35-.37.24-.73.48-1.09.73-.85.59-1.31,1.6-1.2,2.62l.07.65c.08.79.49,1.51,1.12,1.98.49.37,1.09.56,1.7.56.17,0,.35-.02.52-.05l1.81-.34,1.82-.34,1.31,2.02c.52.81,1.42,1.29,2.38,1.29.03,0,.06,0,.08,0,.99-.03,1.89-.57,2.38-1.43l2.15-3.78c-.94,4.88-.76,11.94.54,15.83-.94,1.75-1.22,3.57-.78,5.26.47,1.84,1.76,3.29,3.63,4.1.93.4,1.72,1.2,2.63,2.13.26.27.53.54.82.82-.47.47-.84,1.06-1.01,1.81-.49,2.23,1.21,3.9,2.23,4.89.88.86,1.78,1.67,2.71,2.47-.44.43-.73.99-.82,1.61-.15.99.24,1.99,1.02,2.62l2.42,1.96.5.41-1.03,1.16c-.95,1.08-.95,2.7.01,3.77l.69.77c-.27-.1-.71-.3-1.41-.72-.44-.27-.95-.4-1.45-.4-.34,0-.68.06-1.01.18-.81.31-1.43.97-1.7,1.79-.39,1.21-.97,3.05.18,4.62.48.65,1.4,1.43,3.07,1.43.22,0,.44-.01.69-.04.08,0,.15-.01.22-.01.62,0,1.03.33,1.99,1.45-.17.07-.36.15-.59.23-1.1.42-1.82,1.46-1.83,2.64,0,1.17.71,2.23,1.81,2.65.34.13.62.23.85.32.3.11.51.19.62.25.59.3,1.22.54,1.83.77.34.13.84.32,1.18.48.92,2.6,3.06,3.45,4.26,3.92.41.16.84.33,1,.47.52.45,1.18.69,1.86.69.3,0,.6-.05.89-.14.95-.32,1.66-1.11,1.88-2.08.19-.89.6-2.74-.24-4.41-.56-1.12-1.18-2.2-1.77-3.23-.77-1.35-1.5-2.62-2.09-3.93-.49-1.09-.78-2.47-.83-3.87-.01-.37.14-.94.29-1.54.22-.85.47-1.81.47-2.9.03-5.95.04-12,.04-17.85,0-6.37,0-12.96.05-19.43.01-.15.19-.6.31-.9.27-.69.61-1.55.69-2.55.13-1.56-.07-3.08-.26-4.42l-.08-.59c-.08-.62-.29-1.14-.46-1.54.55-2.59-.83-4.43-1.69-5.57l-.06-.08c-.25-.33-.5-.66-.76-1-1.24-1.62-2.41-3.15-3.16-4.77-.53-1.12-.77-2.32-.74-2.78,1.53-2.53,1.51-5,1.49-6.99,0-.42,0-.84,0-1.26v-.46c.07-1.88.14-4.01-.4-6.08-.36-1.36-.93-2.55-1.48-3.7-.47-.97-.91-1.89-1.12-2.75-1.01-4.07-2.29-8.4-4.77-12.54-.58-.96-.92-2.27-1.28-3.64-.08-.31-.16-.62-.25-.93-.3-1.1-.56-2.2-.83-3.37-.36-1.55-.73-3.15-1.21-4.74-.53-1.71-1.12-3.39-1.7-5.02-.88-2.49-1.72-4.85-2.32-7.27-.89-3.59-2.28-6.31-4.39-8.57-2.87-3.08-6.18-6.11-10.89-7.48-.92-.27-1.47-.53-1.72-.68-1.9-4.95-6.11-5.98-9.51-6.81l-.39-.09c-.17-.04-.37-.15-.46-.24-3.32-3.03-6.74-4.51-10.47-4.51-.38,0-.77.02-1.16.05-.25-.6-.47-1.25-.7-1.92-.21-.62-.43-1.26-.69-1.91-.35-.88-.81-1.79-1.4-2.77-.45-.75-.92-1.48-1.38-2.19-.68-1.07-1.33-2.08-1.91-3.12-.28-.51-.54-1.07-.81-1.66-1.08-2.37-2.43-5.33-6.5-6.74-2.02-.71-4.03-1.06-5.96-1.06h0Zm-84.07,61.1c.72-.28,1.47-.53,2.25-.8.54-.18,1.07-.36,1.6-.55,1.04-.37,2.07-.75,3.12-1.13.08.26.2.52.37.78,1.13,1.76.74,3.32-.19,6.39-.52,1.71-1.63,2.63-3.16,3.9l-.07.05c-.5.41-1.35.78-2.41,1.04-.18.04-.38.07-.58.07-1.53,0-3.29-1.23-3.76-2.63-.17-.52-.38-.99-.61-1.47l.26-.44c1.02-1.71,2.08-3.48,3.16-5.21h0Zm25.87,35.39l-2.45-1.76c.88.45,1.79,1.03,2.65,1.71l-.2.05h0Zm-7.98,6.01s.05,0,.08,0c1.08,0,2.26.28,3.56.87-.13.36-.28.72-.42,1.1-.35.9-.73,1.87-1.03,2.92-.08-1.97-1.36-3.25-2.02-3.9-.05-.05-.11-.11-.17-.17v-.81h0Zm.73,8.64c.38-.28.68-.66.88-1.09.02-.05.05-.1.07-.16-.07.63-.09,1.27-.05,1.95-.04-.02-.07-.05-.11-.07-.26-.21-.52-.42-.79-.63h0Z"/>
      </g>
      <g>
        <path class="cls-2" d="m32.47,200.41c-.64,0-1.21-.43-1.37-1.07-.07-.29-.15-.58-.23-.86-.21-.75-.43-1.52-.53-2.35-.07-.59.08-1.1.19-1.51.04-.14.1-.34.1-.41-1.16-5.96,2.25-9.71,6.11-12.87.6-.49,1.14-1.07,1.72-1.69.39-.42.79-.84,1.2-1.23,1.33-1.28,2.93-1.96,4.63-1.96,2.17,0,4.28,1.13,5.93,3.19.26.33.37.76.28,1.17-.08.41-.34.77-.71.97l-1,.54c-.84.46-1.66.9-2.47,1.35-.12.07-.27.14-.42.21-.02.01-.04.02-.06.03-.4,2.71-2.75,3.06-4.19,3.27h-.02c-.1.09-.22.26-.27.37.02.39.23.94.56,1.45.09.02.21.05.28.06.2.04.36.08.45.11.42.16.74.5.87.93.13.43.04.9-.23,1.25l-1.46,1.93c-1.05,1.38-2.06,2.72-3.08,4.04-.87,1.12-1.69,2.05-2.85,2.05-.45,0-.84-.14-1.17-.37l-.09.3c-.16.54-.63.92-1.19.99l-.8.1c-.06,0-.12.01-.18.01Z"/>
        <path class="cls-3" d="m44.28,177.87c1.67,0,3.39.87,4.83,2.66-1.21.66-2.35,1.26-3.48,1.89-.42.23-1.15.5-1.15.77-.05,2.23-1.56,2.36-3.23,2.61-.53.08-1.3,1.06-1.31,1.63-.01.85.42,1.8.93,2.53.29.41,1.1.46,1.29.53-1.59,2.09-3.04,4.04-4.54,5.96-.77.99-1.28,1.51-1.73,1.51-.52,0-.97-.69-1.68-2.14-.35,1.14-.65,2.1-.94,3.07-.27.03-.53.06-.8.1-.25-1.01-.61-2.01-.73-3.03-.08-.64.41-1.35.29-1.97-1.02-5.28,1.94-8.56,5.61-11.56,1.09-.89,1.98-2.02,3-3,1.08-1.03,2.35-1.56,3.65-1.56m0-2.83h0c-2.07,0-4.01.81-5.61,2.35-.45.43-.86.87-1.25,1.29-.55.58-1.06,1.13-1.58,1.56-3.93,3.21-7.77,7.38-6.66,13.94,0,.02,0,.03-.01.05-.14.48-.34,1.2-.24,2.07.11.94.36,1.81.57,2.57.08.27.15.55.22.82.32,1.27,1.46,2.14,2.75,2.14.11,0,.23,0,.35-.02l.4-.05.4-.05c.7-.09,1.34-.43,1.79-.94.16.02.32.03.49.03,1.94,0,3.16-1.56,3.96-2.6,1.05-1.34,2.06-2.68,3.13-4.1.47-.62.94-1.25,1.43-1.89.54-.72.72-1.65.46-2.51-.19-.63-.58-1.17-1.11-1.54,1.31-.44,2.77-1.34,3.33-3.3.77-.43,1.55-.85,2.35-1.28l1.03-.56c.74-.4,1.26-1.11,1.43-1.93.17-.82-.04-1.68-.57-2.33-1.93-2.4-4.43-3.72-7.04-3.72h0Z"/>
      </g>
      <g>
        <path class="cls-2" d="m251.22,66.47c-.69,0-1.42-.2-1.97-.53-.99-.61-1.33-2.24-.96-3.23.35-.95,1.58-1.78,2.62-1.78h.13c1.23,0,1.69-.08,2.33-1.67.92-2.28,2.99-4.72,6.04-4.72.28,0,.56.02.85.06.22.03.43.05.62.05,1.38,0,2.16-.79,3.43-2.2.09-.1.19-.21.28-.31-2.7-3.14-3.19-5.07-1.32-8.73.25-.48.74-.77,1.26-.77.08,0,.15,0,.23.02.61.1,1.08.58,1.17,1.19.04.27.06.55.08.83.02.26.04.66.09.77.14.23.29.47.44.73.56.93,1.2,1.99,1.84,2.29.3.14.62.22.89.22s.67,0,.8-1.07c.13-1.09,1.29-1.8,3.46-2.13.42-.06.84-.12,1.26-.18,1.52-.2,2.96-.4,4.31-.91.16-.06.34-.09.51-.09.21,0,.42.05.61.14l.72.34c.57.27,1.14.54,1.7.82.5.25.99.52,1.56.83l.07.04.89-.6c.24-.16.52-.24.79-.24.17,0,.33.03.49.09.43.16.75.51.88.95l1.61,5.8c.14.51-.02,1.07-.41,1.42-.27.24-.61.37-.96.37-.17,0-.34-.03-.5-.09-.27-.1-.55-.18-.81-.26-.72-.21-1.53-.44-2.19-1.01-1.41-1.21-3.4-1.9-5.46-1.9-1.49,0-2.89.36-4.05,1.04-.86.51-1.84.59-2.35.59h-.19c-1.11,0-1.14.06-1.28.86-.27,1.54-1.84,3.25-3.3,3.57-.87.2-1.66.82-2.5,1.49-1.28,1.01-2.74,2.17-4.86,2.17-.13,0-.27,0-.41-.01-.11.12-.24.27-.34.38-.31.35-.65.75-1.06,1.05-1.7,1.26-3.62,2.7-5.65,3.96-.38.24-.85.36-1.39.36Z"/>
        <path class="cls-3" d="m264.54,44.06c.11.72.01,1.57.37,2.14.82,1.3,1.63,2.97,2.88,3.56.45.21.98.35,1.49.35,1.03,0,2-.58,2.21-2.32.05-.39,1.45-.77,2.26-.9,1.97-.3,3.97-.44,5.87-1.17.8.38,1.6.75,2.39,1.15.72.36,1.42.76,2.35,1.26.4-.27.97-.66,1.61-1.09.51,1.85.98,3.54,1.61,5.8-.94-.36-1.95-.47-2.58-1.02-1.71-1.47-4.06-2.24-6.39-2.24-1.68,0-3.35.4-4.77,1.24-.46.27-1.08.39-1.63.39h-.04c-.05,0-.1,0-.15,0-1.39,0-2.36.23-2.67,2.03-.17.95-1.3,2.23-2.21,2.44-2.65.6-4.11,3.62-7.05,3.62-.21,0-.42-.01-.64-.05-.02,0-.04,0-.05,0-.56,0-1.25,1.23-1.96,1.76-1.82,1.35-3.64,2.7-5.55,3.9-.16.1-.39.14-.64.14-.43,0-.92-.13-1.23-.32-.34-.2-.53-1.1-.37-1.53.15-.4.84-.86,1.29-.86h0s.08,0,.13,0c1.83,0,2.8-.45,3.65-2.56.69-1.7,2.31-3.83,4.72-3.83.21,0,.42.02.64.05.29.04.57.07.83.07,2.7,0,3.88-2.21,5.64-3.89-3.28-3.57-3.65-4.87-1.99-8.12m0-2.83c-1.05,0-2.03.59-2.52,1.55-2.01,3.93-1.54,6.37.72,9.32-.84.89-1.24,1.15-1.84,1.15-.13,0-.26-.01-.41-.03-.35-.05-.71-.08-1.06-.08-3.75,0-6.26,2.9-7.35,5.6-.18.46-.32.66-.38.74-.08.02-.27.04-.64.04h-.1c-1.69,0-3.43,1.19-3.99,2.71-.58,1.57-.1,3.93,1.55,4.93.77.47,1.75.74,2.7.74.81,0,1.53-.19,2.14-.58,2.07-1.29,4.02-2.75,5.74-4.03.48-.36.87-.78,1.18-1.15,2.5-.08,4.24-1.45,5.52-2.47.74-.59,1.38-1.09,1.93-1.22,1.91-.43,3.81-2.4,4.31-4.4h.07s.06,0,.07,0c.65,0,1.92-.1,3.08-.79.94-.55,2.08-.85,3.32-.85,1.73,0,3.39.57,4.54,1.56.9.77,1.91,1.06,2.72,1.3.26.08.51.15.71.22.33.12.67.18,1,.18.7,0,1.38-.26,1.91-.74.79-.72,1.11-1.82.82-2.85l-.94-3.39-.67-2.41c-.24-.88-.9-1.59-1.75-1.9-.32-.12-.65-.17-.98-.17-.56,0-1.11.17-1.59.49l-.18.12c-.31-.17-.61-.33-.91-.48-.58-.29-1.16-.57-1.75-.84l-.7-.33c-.38-.18-.8-.28-1.22-.28-.34,0-.69.06-1.02.19-1.19.46-2.55.64-3.99.83-.43.06-.86.12-1.29.18-2.6.39-4.13,1.36-4.56,2.88-.3-.37-.72-1.06-.99-1.51-.11-.18-.21-.35-.32-.53,0-.1-.02-.23-.02-.33-.02-.28-.03-.61-.09-.96-.18-1.22-1.13-2.18-2.35-2.38-.15-.02-.31-.04-.46-.04h0Zm7.64,12.3h0Z"/>
      </g>
      <g>
        <path class="cls-2" d="m8.38,191.34c-.1,0-.21-.01-.32-.04l-.69-.16c-.61-.14-1.05-.66-1.1-1.28-.02-.34-.06-.69-.1-1.03-.1-.87-.2-1.77-.11-2.71.16-1.57-.55-2.66-1.64-4.15-1.43-1.95-2.24-4.39-2.88-6.53-.31-1.03.03-2.02.32-2.9.09-.28.19-.56.25-.83.08-.37.31-.69.64-.89.23-.14.48-.21.74-.21.11,0,.23.01.34.04l2.64.66c1.57-1.38,1.64-2.14-.07-4.44-.25-.33-.34-.75-.25-1.16.09-.4.35-.75.72-.94.65-.35,1.43-.71,2.23-.71.61,0,2.08.24,2.53,2.44,3.13,3.98-.08,6.93-1.48,8.21-.09.17-.14.99-.16,1.53-.01.24-.03.49-.04.74.13.08.25.18.35.31.4.48.78.96,1.16,1.43.95,1.17,1.84,2.28,2.79,3.34.29.32.73.6,1.02.65,1.07.19,1.8.62,2.23,1.31.62.99.32,2.04.1,2.81-.1.36-.36.71-.69.9-.23.13-.5.21-.77.21-.11,0-.22-.01-.32-.04-.43-.12-.85-.27-1.25-.41-.72-.25-1.4-.5-1.95-.5-.28.08-.91.78-1.21,1.11-.5.55-.89,1.14-1.29,1.76-.19.29-.39.59-.59.87-.27.38-.71.61-1.16.61Z"/>
        <path class="cls-3" d="m9.12,165.49c.57,0,.97.38,1.16,1.37.02.08-.02.19.03.25,2.29,2.65,1.14,4.52-1.09,6.57-.76.7-.51,2.5-.76,4.01-.72-.29-1.35-.54-2.12-.85-1.06,2.09.68,2.69,1.89,3.82.37-.94.66-1.67.98-2.47,1.38,1.69,2.63,3.31,3.99,4.82.46.51,1.16.98,1.82,1.1,1.84.33,1.48,1.39,1.19,2.42-1.28-.37-2.45-.96-3.59-.96-.04,0-.08,0-.12,0-.76.03-1.58.96-2.2,1.64-.74.81-1.3,1.8-1.93,2.71-.23-.05-.46-.11-.69-.16-.08-1.17-.33-2.35-.21-3.5.21-2.08-.71-3.51-1.91-5.13-1.29-1.75-2.03-3.98-2.67-6.1-.26-.86.37-1.99.6-3,1.04.26,2.08.52,3.35.83,2.74-2.25,3-3.76.71-6.84.61-.32,1.13-.54,1.56-.54m0-2.83h0c-1.12,0-2.14.47-2.9.87-.73.39-1.25,1.07-1.43,1.88-.18.81,0,1.65.49,2.31.83,1.11.96,1.59.99,1.71-.02.05-.08.15-.22.31l-.66-.16-1.2-.3c-.23-.06-.45-.08-.68-.08-.52,0-1.04.14-1.49.42-.65.4-1.11,1.04-1.28,1.79-.04.17-.13.43-.21.69-.33.97-.78,2.3-.34,3.76.68,2.24,1.53,4.82,3.1,6.95,1.12,1.52,1.47,2.19,1.37,3.17-.11,1.1,0,2.12.11,3.02.04.32.08.65.1.97.09,1.24.98,2.28,2.2,2.56l.35.08.35.08c.21.05.42.07.63.07.91,0,1.79-.44,2.32-1.21.21-.3.41-.6.61-.91.38-.57.73-1.11,1.1-1.52l.06-.07c.14-.16.36-.4.55-.58.32.08.72.22,1.09.35.4.14.85.3,1.34.44.26.07.52.11.78.11.48,0,.96-.12,1.38-.36.66-.37,1.14-.98,1.35-1.71l.02-.09c.24-.85.68-2.42-.27-3.95-.63-1.01-1.68-1.66-3.11-1.94-.07-.04-.2-.12-.28-.22-.92-1.03-1.81-2.12-2.74-3.28-.38-.47-.76-.95-1.16-1.43,0-.03,0-.06,0-.08.01-.27.03-.64.06-.9,3.29-3.2,3.79-6.4,1.47-9.54-.62-2.38-2.36-3.24-3.84-3.24h0Z"/>
      </g>
      <g>
        <path class="cls-2" d="m24.57,218.26c-.44,0-.85-.2-1.12-.55-.29-.37-.37-.87-.22-1.31.02-.05.03-.14.06-.23.22-.96.53-2.27,1.8-2.34.96-.06,1.06-.06,1.05-1.94v-.21c0-.47.15-.85.27-1.15.04-.1.08-.21.12-.33.14-.44.49-.79.94-.92.13-.04.27-.06.41-.06.32,0,.63.11.89.31.92.74,1.48.89,1.78.89.56,0,1.08-.59,1.87-1.57.81-1,1.73-2.14,3.15-2.54.13-.04.26-.05.39-.05.33,0,.65.11.91.33,1.42,1.18,2.83,2.62,2.56,4.36-.23,1.53-1.61,2.59-3.82,3.62l.44.71c.26.42.28.94.06,1.39-.22.44-.66.74-1.15.78l-10.27.84s-.08,0-.11,0Z"/>
        <path class="cls-3" d="m35.95,207.66c3.28,2.73,2.85,4.08-2.42,6.25.44.7.77,1.24,1.31,2.1-3.47.28-6.72.55-10.27.84.09-.27.31-1.59.6-1.6,2.49-.15,2.38-1.85,2.38-3.56,0-.3.18-.6.32-1.05,1.08.86,1.94,1.2,2.67,1.2,2.35,0,3.24-3.55,5.41-4.17m0-2.83c-.26,0-.52.04-.78.11-1.86.53-2.97,1.91-3.86,3.01-.26.32-.63.77-.87.99-.15-.07-.41-.22-.8-.53-.51-.41-1.13-.62-1.77-.62-.27,0-.55.04-.82.12-.89.27-1.6.96-1.88,1.85-.03.09-.06.17-.09.25-.15.37-.37.94-.37,1.67v.21c0,.16,0,.36,0,.55-2.09.3-2.59,2.46-2.81,3.41-.01.06-.03.12-.04.16-.27.88-.1,1.84.47,2.57.54.7,1.37,1.1,2.24,1.1.08,0,.15,0,.23,0l4.06-.33,6.21-.51c.99-.08,1.86-.67,2.3-1.55.34-.67.39-1.44.17-2.13,1.69-.96,3-2.19,3.28-4.01.42-2.76-2.02-4.79-3.06-5.66-.52-.43-1.16-.66-1.81-.66h0Z"/>
      </g>
      <g>
        <path class="cls-2" d="m190.87,247.47c-1.37,0-2.5-.2-3.46-.58-.97-.39-1.88-1.34-2.26-2.36-.36-.95-.56-1.93-.78-2.96-.09-.43-.19-.88-.3-1.35-.1-.42,0-.87.27-1.21.27-.34.68-.54,1.11-.54.07,0,.16-.02.26-.03.26-.03.55-.07.83-.07.53,0,.97.11,1.36.32,2.07,1.17,3.66,2.23,5,3.34,1.21,1.01,1,3.11.94,3.53-.19,1.45-2.23,1.91-2.96,1.91h-.01Z"/>
        <path class="cls-3" d="m186.54,239.8c.24,0,.47.03.66.14,1.67.94,3.32,1.97,4.78,3.19.47.39.54,1.51.44,2.25-.04.3-1.01.68-1.55.68h0c-.99,0-2.04-.12-2.94-.48-.61-.24-1.23-.91-1.46-1.54-.46-1.23-.65-2.56-1.03-4.15.27,0,.69-.1,1.1-.1m0-2.83c-.4,0-.76.04-1.01.08-.05,0-.1.01-.15.02-.84.02-1.63.41-2.15,1.08-.54.68-.74,1.57-.54,2.41.11.46.2.9.29,1.32.23,1.09.45,2.11.84,3.16.52,1.39,1.72,2.64,3.06,3.18,1.13.45,2.43.67,3.98.68,1.31,0,4.07-.77,4.38-3.14.1-.76.29-3.36-1.44-4.8-1.4-1.17-3.06-2.27-5.21-3.48-.6-.33-1.29-.5-2.05-.5h0Z"/>
      </g>
      <g>
        <path class="cls-2" d="m273.87,71.37c-.18,0-.35-.03-.53-.1l-.74-.3c-.35-.14-.63-.41-.77-.76l-1.61-3.75c-.22-.52-.12-1.12.27-1.54.25-.27.51-.55.77-.84.72-.8,1.47-1.63,2.37-2.36.53-.44,1.26-.65,2.2-.65.32,0,.64.03.92.06.57.07,1.03.43,1.39,1.07.25.47.62,1.37.24,2.17-.78,1.62-1.64,3.22-2.48,4.76l-.79,1.47c-.25.47-.74.75-1.25.75Z"/>
        <path class="cls-3" d="m275.84,62.49c.26,0,.52.02.75.05.23.03.65.94.52,1.22-1.01,2.09-2.14,4.13-3.24,6.19-.25-.1-.49-.2-.74-.3-.51-1.18-1.02-2.37-1.61-3.75.93-.98,1.87-2.15,3.01-3.08.31-.25.81-.33,1.31-.33m0-2.83h0c-1.27,0-2.31.33-3.1.97-.98.8-1.8,1.71-2.53,2.51-.25.28-.5.55-.75.81-.78.82-1,2.03-.55,3.07l1.53,3.56.08.19c.3.69.85,1.23,1.55,1.51l.74.3c.34.14.7.2,1.05.2,1.02,0,2-.55,2.5-1.5.26-.49.52-.97.78-1.46.84-1.56,1.71-3.18,2.51-4.82.67-1.37.12-2.76-.27-3.47-.76-1.4-1.87-1.73-2.46-1.8-.38-.05-.75-.07-1.09-.07h0Z"/>
      </g>
      <g>
        <path class="cls-2" d="m63.33,214.09c-.14,0-.28-.02-.42-.06-.48-.15-.85-.54-.97-1.04-.4-1.75.8-3.59,1.55-4.54,1.48-1.86,3.99-3.73,6.27-3.73.28,0,.56.03.83.09.52.11.93.5,1.07,1.01.14.51-.01,1.05-.4,1.41l-6.96,6.48c-.27.25-.61.38-.97.38Z"/>
        <path class="cls-3" d="m69.77,206.13c.18,0,.36.02.53.05-2.38,2.21-4.68,4.36-6.96,6.48-.52-2.24,3.6-6.54,6.44-6.54m0-2.83h0c-2.94,0-5.81,2.3-7.38,4.27-1.11,1.4-2.33,3.52-1.82,5.74.23.99.96,1.78,1.93,2.08.27.08.55.12.83.12.71,0,1.4-.26,1.93-.76l6.96-6.48c.77-.72,1.08-1.81.8-2.83-.28-1.02-1.1-1.8-2.13-2.02-.36-.08-.74-.12-1.12-.12h0Z"/>
      </g>
      <g>
        <path class="cls-2" d="m240.1,54.29c-1.06,0-2.32-1.1-2.5-2.17-.24-1.39-.26-2.65-.05-3.73.16-.84.71-1.43,1.15-1.91.13-.14.26-.28.37-.42.26-.34.66-.55,1.09-.56h.04c.41,0,.81.18,1.08.49.14.16.28.32.42.47.39.43.84.92,1.19,1.49.35.57.32,1.15.28,1.75-.01.22-.03.49-.03.82.1.66-.02,1.48-.28,2-.45.9-1.56,1.65-2.58,1.74-.04,0-.11,0-.16,0Z"/>
        <path class="cls-3" d="m240.19,46.92c.51.59,1.08,1.14,1.49,1.79.19.3.03.81.03,1.92t0,0s.14.74-.13,1.28c-.23.47-.92.92-1.45.96,0,0-.02,0-.03,0-.37,0-1.04-.59-1.1-.99-.18-1.05-.25-2.18-.06-3.23.12-.63.81-1.16,1.25-1.74m0-2.83s-.06,0-.08,0c-.86.03-1.66.44-2.17,1.12-.05.07-.17.2-.28.32-.5.55-1.26,1.37-1.5,2.61-.23,1.25-.22,2.67.05,4.23.3,1.75,2.16,3.35,3.9,3.35.09,0,.2,0,.29-.01,1.52-.14,3.05-1.18,3.72-2.52.35-.71.54-1.76.43-2.71,0-.26.02-.48.03-.66.04-.69.1-1.63-.49-2.58-.43-.69-.92-1.23-1.35-1.7-.13-.15-.27-.29-.4-.44-.54-.63-1.33-.99-2.15-.99h0Z"/>
      </g>
      <g>
        <path class="cls-2" d="m29.35,251.78c-.41-.04-.78-.26-1.02-.6l-1.36-1.96c-.36-.51-.34-1.2.05-1.69.26-.33.5-.68.74-1.02.62-.9,1.27-1.84,2.23-2.5.93-.64,2.04-.83,3.01-.99.35-.06.71-.12,1.05-.2.11-.03.23-.04.34-.04.58,0,1.12.36,1.33.93l.41,1.11c.19.53.06,1.12-.35,1.51l-5.3,5.06c-.27.25-.62.39-.98.39-.05,0-.09,0-.14,0Z"/>
        <path class="cls-3" d="m34.39,244.2c.14.37.27.74.41,1.11-1.66,1.58-3.32,3.17-5.3,5.06-.61-.87-1.14-1.63-1.36-1.96.91-1.16,1.58-2.49,2.66-3.24.96-.67,2.38-.68,3.59-.98m0-2.83c-.23,0-.45.03-.68.08-.27.07-.59.12-.94.18-1.07.18-2.39.4-3.58,1.22-1.17.81-1.93,1.9-2.59,2.86-.24.34-.46.67-.69.95-.77.98-.81,2.35-.1,3.37l1.37,1.96c.47.68,1.22,1.12,2.04,1.2.09,0,.19.01.28.01.73,0,1.43-.28,1.96-.78l5.3-5.06c.82-.78,1.09-1.97.7-3.03l-.41-1.11c-.42-1.14-1.5-1.86-2.66-1.86h0Z"/>
      </g>
      <g>
        <path class="cls-2" d="m125.5,189.9c-.5,0-.97-.26-1.22-.7l-2.35-4.02c-.2-.34-.25-.75-.13-1.13.11-.38.38-.69.74-.86.7-.34,1.42-.51,2.15-.51,1.47,0,2.7.67,3.79,1.26.87.47,1.7.92,2.44.92.1,0,.2,0,.31-.02.08-.01.15-.02.23-.02.56,0,1.07.33,1.3.85.26.59.08,1.29-.43,1.69-.97.75-2.01.84-2.71.84-.32,0-.65-.02-.98-.05-.25-.02-.5-.04-.74-.04-.53,0-.78,0-1.05.83-.18.53-.65.9-1.2.96-.05,0-.1,0-.15,0Z"/>
        <path class="cls-3" d="m124.67,184.1c2.21,0,4.03,2.18,6.24,2.18.18,0,.35-.01.54-.04-.56.44-1.2.54-1.84.54-.58,0-1.16-.08-1.71-.08-1,0-1.89.27-2.4,1.79-.85-1.46-1.54-2.63-2.35-4.02.54-.26,1.04-.37,1.53-.37m6.78,2.14h0m-6.78-4.97h0c-.95,0-1.88.22-2.77.65-.71.34-1.25.97-1.48,1.73-.23.76-.13,1.57.27,2.26l1.99,3.4.36.62c.51.87,1.45,1.4,2.45,1.4.1,0,.19,0,.29-.01,1.05-.11,1.95-.79,2.34-1.77.13,0,.27.02.4.03.32.02.69.05,1.08.05,1.39,0,2.54-.35,3.51-1.08.71-.52,1.17-1.35,1.17-2.29,0-1.53-1.21-2.78-2.72-2.83-.04,0-.07,0-.11,0-.06,0-.12,0-.18,0-.1,0-.2.02-.3.03-.02,0-.04,0-.06,0-.39,0-1.12-.4-1.77-.75-1.18-.64-2.65-1.43-4.47-1.43h0Z"/>
      </g>
      <g>
        <path class="cls-2" d="m53.13,196.09c-.21,0-.43-.05-.63-.15l-.82-.4c-.47-.23-.77-.69-.79-1.21-.01-.25-.03-.5-.05-.75-.06-.67-.12-1.36-.03-2.09.09-.76.3-1.46.5-2.13.08-.26.16-.51.23-.77.1-.39.36-.71.72-.89.2-.11.43-.16.65-.16.17,0,.33.03.5.09l.81.3c.75.27,1.52.55,2.28.88.62.27,1.43,1.14,1.26,2.03-.04.22-.14.43-.28.61l-3.23,4.1c-.28.35-.69.54-1.11.54Z"/>
        <path class="cls-3" d="m52.91,188.95c1.01.38,2.03.73,3.02,1.15.27.11.43.46.43.46h0c-1.12,1.42-2.17,2.76-3.23,4.1-.27-.13-.55-.27-.82-.4-.04-.87-.19-1.76-.09-2.62.11-.91.45-1.8.69-2.7m0-2.83c-.45,0-.89.11-1.3.32-.71.37-1.23,1.02-1.44,1.79-.06.24-.14.48-.21.72-.21.7-.45,1.49-.55,2.38-.1.88-.03,1.68.03,2.38.02.23.04.46.05.7.05,1.03.65,1.96,1.58,2.41l.46.22.36.18c.4.2.83.29,1.25.29.85,0,1.68-.38,2.23-1.08l3.23-4.1c.27-.34.46-.74.55-1.17.37-1.74-.99-3.19-2.08-3.65-.8-.34-1.59-.63-2.35-.91-.27-.1-.54-.2-.81-.3-.32-.12-.66-.18-.99-.18h0Z"/>
      </g>
      <g>
        <path class="cls-2" d="m20.27,172.64c-.07,0-.14,0-.21-.02-.61-.09-1.09-.56-1.19-1.17-.09-.54-.49-1.14-.91-1.79-.93-1.42-2.33-3.56-.48-6.24.22-.32.56-.54.94-.6.07-.01.15-.02.22-.02.31,0,.61.1.86.29,3.29,2.51,3.87,5.05,2.03,8.75-.24.49-.74.78-1.27.78Z"/>
        <path class="cls-3" d="m18.65,164.23c2.72,2.08,3.18,3.87,1.62,7-.39-2.37-3.64-4.06-1.62-7m0-2.83c-.15,0-.3.01-.44.04-.77.12-1.45.55-1.89,1.19-2.39,3.47-.53,6.3.47,7.82.28.42.65,1,.69,1.24.2,1.21,1.16,2.16,2.37,2.34.14.02.28.03.42.03,1.06,0,2.05-.6,2.54-1.57,2.16-4.33,1.41-7.57-2.43-10.51-.5-.38-1.1-.58-1.72-.58h0Z"/>
      </g>
      <g>
        <path class="cls-2" d="m194.89,24.77c-.31,0-.61-.1-.87-.3l-.69-.54c-.21.17-.46.32-.77.41-.68.21-1.31.32-1.88.32-.33,0-.65-.04-.95-.11-.58-.15-1.03-.6-1.31-1.35-.2-.52-.46-1.51.05-2.27.5-.74,1.56-1.58,2.7-1.66.72-.06,1.49-.08,2.49-.08.5,0,1.03,0,1.59.01.63,0,1.31.01,2.05.01.56,0,1.06.33,1.29.84s.14,1.11-.24,1.52l-2.41,2.71c-.28.31-.67.47-1.06.47Z"/>
        <path class="cls-3" d="m193.65,20.61c1.07,0,2.24.03,3.65.03-1.17,1.31-1.74,1.95-2.41,2.71-.57-.44-1.06-.82-1.68-1.3-.37.34-.67.82-1.07.95-.46.15-.97.26-1.46.26-.21,0-.41-.02-.6-.07-.27-.07-.62-1.16-.43-1.44.34-.5,1.05-1,1.64-1.05.77-.06,1.54-.08,2.37-.08m0-2.83h0c-1.04,0-1.83.03-2.59.08-1.62.12-3.06,1.24-3.77,2.28-.87,1.29-.5,2.79-.2,3.57.57,1.5,1.56,2.03,2.29,2.22.41.1.84.15,1.29.15.72,0,1.5-.13,2.31-.39.07-.02.14-.05.2-.07.51.38,1.1.56,1.69.56.78,0,1.56-.32,2.12-.95l.85-.96,1.56-1.75c.74-.83.93-2.03.47-3.05-.46-1.02-1.47-1.67-2.59-1.67-.74,0-1.41,0-2.04-.02-.57,0-1.1-.01-1.61-.01h0Z"/>
      </g>
      <g>
        <path class="cls-2" d="m18.32,194.69c-.65,0-1.39-.21-2.39-.69-.44-.21-.75-.64-.8-1.13s.15-.97.54-1.27c.68-.52,1.05-1,1.06-1.35,0-.4-.44-1.01-1.22-1.69-.45-.39-.61-1.01-.41-1.57.21-.56.74-.92,1.33-.92h4.1c.43,0,.84.2,1.11.54.27.34.37.79.27,1.21-.11.48-.24.94-.36,1.39-.25.93-.48,1.82-.6,2.68-.34,2.44-1.8,2.8-2.64,2.8Z"/>
        <path class="cls-3" d="m20.54,187.49c-.36,1.49-.79,2.83-.98,4.21-.16,1.11-.54,1.58-1.23,1.58-.46,0-1.04-.2-1.78-.55,2.25-1.74,2.07-3.36-.11-5.23h4.1m0-2.83h-4.1c-1.19,0-2.25.74-2.66,1.85s-.09,2.36.81,3.14c.27.23.45.41.56.55-.08.08-.2.18-.34.29-.78.6-1.19,1.57-1.09,2.54s.71,1.83,1.6,2.26c.81.39,1.88.83,3,.83.82,0,3.52-.29,4.04-4.02.11-.78.33-1.62.57-2.51.12-.46.25-.94.36-1.43.2-.84,0-1.73-.53-2.42-.54-.68-1.36-1.08-2.23-1.08h0Zm0,5.67h0,0Z"/>
      </g>
      <g>
        <path class="cls-2" d="m47.74,200.56c-.56,0-1.14-.1-1.67-.21-.61-.12-1.06-.57-1.36-1.34-.23-.61-.41-1.47.09-2.14.47-.63,1.18-1.18,2.11-1.63.92-.44,1.86-.83,2.77-1.21.37-.15.74-.3,1.11-.46.18-.08.37-.11.55-.11.47,0,.93.24,1.19.66l.57.89c.36.56.28,1.29-.19,1.76-.3.3-.59.61-.88.92-.77.83-1.57,1.68-2.54,2.38-.46.33-1.03.5-1.75.5Z"/>
        <path class="cls-3" d="m51.33,194.87c.19.3.38.59.57.89-1.07,1.07-2.04,2.28-3.25,3.16-.23.17-.56.23-.91.23-.46,0-.97-.1-1.39-.18-.23-.05-.57-1.03-.41-1.25.38-.51.99-.91,1.59-1.2,1.24-.6,2.54-1.1,3.81-1.64m0-2.83c-.37,0-.75.07-1.11.23-.36.15-.73.31-1.09.46-.93.38-1.88.78-2.84,1.24-1.14.55-2.03,1.25-2.64,2.07-.69.93-.78,2.17-.28,3.49.6,1.56,1.63,2.07,2.4,2.22.61.12,1.27.24,1.96.24,1.01,0,1.88-.26,2.58-.77,1.07-.78,1.96-1.73,2.74-2.56.28-.3.56-.6.85-.89.94-.94,1.09-2.41.38-3.53l-.28-.44-.28-.44c-.53-.84-1.45-1.31-2.39-1.31h0Z"/>
      </g>
      <g>
        <path class="cls-2" d="m62.28,8.01c-1.01-.06-1.82-.67-2.46-1.16-.2-.16-.41-.31-.61-.44-.36-.22-.6-.59-.66-1.01-.06-.42.07-.84.36-1.15l2.17-2.37c.26-.29.63-.46,1.02-.46h.02c.38,0,.75.15,1.02.43l2.31,2.37c.29.29.43.7.4,1.11s-.25.79-.58,1.03c-.17.13-.35.29-.52.45-.6.54-1.35,1.22-2.34,1.22-.03,0-.09,0-.11,0Z"/>
        <path class="cls-3" d="m62.13,2.83c1.05,1.08,1.68,1.72,2.3,2.37-.68.49-1.38,1.39-2.03,1.39-.01,0-.03,0-.04,0-.83-.05-1.61-.89-2.41-1.39.59-.65,1.18-1.29,2.17-2.37m0-2.83h-.04c-.78.01-1.52.35-2.05.92l-.17.18-2,2.19c-.57.62-.83,1.46-.72,2.3s.59,1.57,1.31,2.02c.13.08.31.22.51.37.76.58,1.8,1.36,3.24,1.44.05,0,.14,0,.2,0,1.54,0,2.59-.95,3.29-1.58.15-.13.32-.29.4-.35.67-.48,1.09-1.23,1.16-2.05s-.22-1.63-.79-2.22l-.81-.83-1.5-1.54c-.53-.55-1.27-.86-2.03-.86h0Z"/>
      </g>
      <g>
        <path class="cls-2" d="m61.07,231.67c-.55,0-1.01-.16-1.37-.48-1.1-.98-2.04-2.09-2.95-3.17-.33-.39-.66-.79-1-1.17-.26-.3-.39-.69-.34-1.08.04-.39.25-.75.56-.99l.86-.64c.25-.19.55-.28.85-.28.31,0,.63.1.89.31l5.66,4.55c.44.36.63.94.48,1.48-.15.55-.61.95-1.18,1.02-.35.05-.7.13-1.01.21-.51.12-.99.23-1.45.23Z"/>
        <path class="cls-3" d="m57.68,225.27c1.73,1.4,3.47,2.79,5.66,4.55-.87.12-1.73.42-2.27.42-.18,0-.33-.03-.43-.12-1.41-1.25-2.57-2.79-3.82-4.22.29-.21.57-.43.86-.64m0-2.83c-.59,0-1.19.19-1.69.56l-.43.32-.43.32c-.63.47-1.04,1.19-1.13,1.98-.08.79.17,1.57.69,2.17.33.38.65.76.98,1.15.94,1.12,1.91,2.28,3.09,3.32.43.38,1.18.84,2.31.84.62,0,1.21-.14,1.77-.27.3-.07.62-.15.88-.18,1.12-.15,2.05-.96,2.35-2.05s-.07-2.26-.95-2.97l-5.66-4.55c-.52-.42-1.15-.63-1.78-.63h0Z"/>
      </g>
      <g>
        <path class="cls-2" d="m248.05,60.41c-.29,0-.58-.09-.83-.27-.47-.34-.69-.94-.55-1.5l2.2-8.59c.14-.56.62-.98,1.2-1.05.06,0,.12-.01.18-.01.51,0,.99.28,1.24.74,2.07,3.8.97,8.1-2.68,10.46-.23.15-.5.23-.77.23Z"/>
        <path class="cls-3" d="m250.25,50.4c1.66,3.05.91,6.58-2.2,8.59.81-3.16,1.5-5.85,2.2-8.59m0-2.83c-.12,0-.23,0-.35.02-1.16.14-2.11.98-2.4,2.11l-1.7,6.62-.51,1.97c-.29,1.13.14,2.32,1.09,3,.49.35,1.07.53,1.66.53.54,0,1.07-.15,1.54-.46,4.29-2.78,5.59-7.85,3.15-12.33-.5-.92-1.46-1.48-2.49-1.48h0Z"/>
      </g>
      <g>
        <path class="cls-2" d="m77.7,220.47c-.2,0-.41-.04-.6-.13l-3.74-1.75c-.4-.19-.69-.56-.79-.99-.09-.44.03-.89.32-1.22l1.69-1.93c.28-.31.67-.48,1.07-.48.19,0,.39.04.58.12l4.1,1.83c.44.2.75.6.82,1.07s-.1.95-.45,1.28l-2.06,1.85c-.27.24-.6.36-.95.36Z"/>
        <path class="cls-3" d="m75.65,215.37c1.3.58,2.53,1.12,4.1,1.83-.87.78-1.47,1.33-2.06,1.85-1.16-.54-2.31-1.08-3.74-1.75.58-.66,1.13-1.29,1.69-1.93m0-2.83c-.8,0-1.58.34-2.13.97l-1.03,1.17-.66.76c-.59.67-.83,1.58-.64,2.45.18.87.76,1.61,1.57,1.99l3.74,1.75c.38.18.79.27,1.2.27.69,0,1.37-.25,1.9-.73l2.06-1.85c.71-.64,1.05-1.6.9-2.55s-.77-1.76-1.65-2.15l-4.1-1.83c-.37-.17-.76-.25-1.15-.25h0Z"/>
      </g>
      <g>
        <path class="cls-2" d="m187.1,26.39c-.93,0-1.9-.09-2.61-.78-.89-.86-.97-2.14-1.03-3.27-.02-.35-.04-.71-.09-1.03-.11-.69.29-1.35.95-1.57l.9-.3c.15-.05.3-.07.45-.07.39,0,.77.16,1.04.46l3.85,4.17c.39.43.49,1.05.24,1.57-.24.5-.74.81-1.28.81-.03,0-.06,0-.09,0-.23-.01-.47-.02-.69-.02-.29,0-.58,0-.85.01-.27,0-.53.01-.78.01Z"/>
        <path class="cls-3" d="m185.66,20.79c1.09,1.19,2.19,2.37,3.85,4.18-.26-.02-.53-.02-.78-.02-.58,0-1.14.03-1.62.03-.72,0-1.3-.06-1.63-.39-.7-.67-.51-2.29-.7-3.5.3-.1.6-.2.89-.3m0-2.83c-.3,0-.61.05-.9.15l-.88.3c-1.32.44-2.13,1.77-1.9,3.15.04.22.05.54.07.88.07,1.25.17,2.97,1.47,4.21,1.23,1.17,2.89,1.17,3.59,1.17.26,0,.53,0,.82-.02.26,0,.53-.01.81-.01.2,0,.4,0,.61.02.06,0,.12,0,.18,0,1.09,0,2.09-.62,2.56-1.62.5-1.05.31-2.29-.47-3.14l-1.98-2.15-1.86-2.02c-.55-.59-1.31-.91-2.09-.91h0Z"/>
      </g>
      <g>
        <path class="cls-2" d="m37.56,245.59c-.25,0-.5-.07-.71-.19-.33-.19-.57-.51-.66-.88l-1-3.97c-.18-.72.23-1.46.94-1.7l1.51-.49c.14-.05.29-.07.44-.07.22,0,.44.05.65.16.33.17.59.47.7.83l1.28,3.97c.12.37.08.77-.1,1.11-.18.34-.5.59-.87.69l-1.79.49c-.12.03-.25.05-.37.05Z"/>
        <path class="cls-3" d="m38.08,239.72c.43,1.32.85,2.65,1.28,3.97-.6.16-1.19.33-1.79.49-.33-1.32-.67-2.65-1-3.97l1.51-.49m0-2.83c-.29,0-.59.05-.87.14l-1.22.39-.3.1c-1.42.46-2.24,1.94-1.88,3.39l.5,1.99.5,1.98c.19.74.66,1.37,1.32,1.76.44.26.93.39,1.43.39.25,0,.5-.03.75-.1l.94-.26.85-.23c.75-.2,1.38-.7,1.75-1.38.37-.68.44-1.48.21-2.22l-.64-1.98-.64-1.98c-.23-.72-.74-1.31-1.41-1.65-.4-.21-.85-.31-1.29-.31h0Z"/>
      </g>
      <g>
        <path class="cls-2" d="m28.91,156c-.79,0-1.44-.03-2.03-.1-1.06-.12-1.82-1.01-2.36-1.78-.61-.87-.1-2.02.07-2.36.41-.8,1.09-.89,1.35-.89.69.02,1.29.18,1.82.33l.13.04c.95.26,1.89.53,2.84.8l1.06.3c.64.18,1.07.79,1.03,1.46l-.05.74c-.05.75-.67,1.42-1.42,1.42-.4,0-.8,0-1.2.02-.42,0-.83.02-1.25.02Z"/>
        <path class="cls-3" d="m25.95,152.3h0c.53.01,1.06.17,1.57.31,1.3.36,2.59.73,3.89,1.1l-.06.84c-.82,0-1.64.03-2.45.03-.63,0-1.25-.02-1.87-.09-.5-.06-1.01-.7-1.36-1.19-.14-.19.17-1.01.27-1.01m0-2.83h0c-.41,0-1.82.12-2.61,1.65-.27.51-1.05,2.3.03,3.83.42.59,1.52,2.16,3.36,2.37.65.07,1.34.11,2.18.11.43,0,.86,0,1.28-.02.39,0,.78-.02,1.17-.02,1.49,0,2.73-1.16,2.83-2.65l.03-.42.03-.42c.09-1.33-.77-2.55-2.05-2.92l-1.09-.31c-.94-.27-1.88-.54-2.82-.79l-.13-.04c-.58-.16-1.3-.36-2.13-.38-.02,0-.05,0-.07,0h0Z"/>
      </g>
      <g>
        <path class="cls-2" d="m48.73,188.32c-.15,0-.3-.02-.45-.08l-1.39-.47c-.71-.24-1.11-.99-.91-1.72l1.06-3.86c.11-.39.37-.71.73-.89.2-.1.42-.15.64-.15.17,0,.34.03.51.09l1.87.72c.36.14.65.42.8.77.15.35.15.75,0,1.11l-1.53,3.62c-.23.54-.75.86-1.3.86Z"/>
        <path class="cls-3" d="m48.4,182.57l1.87.72c-.51,1.21-1.02,2.41-1.53,3.61-.46-.16-.93-.31-1.39-.47.35-1.29.7-2.58,1.06-3.86m0-2.83c-.44,0-.88.1-1.28.3-.72.36-1.24,1.01-1.46,1.78l-.41,1.51-.64,2.36c-.4,1.45.41,2.95,1.83,3.43l.69.23.7.23c.3.1.61.15.91.15,1.11,0,2.15-.65,2.61-1.73l.82-1.94.71-1.67c.3-.71.3-1.51,0-2.21s-.87-1.26-1.59-1.54l-1.87-.72c-.33-.13-.67-.19-1.02-.19h0Z"/>
      </g>
      <g>
        <path class="cls-2" d="m74.39,294.97c-.56-.01-1.05-.35-1.27-.86l-2.33-5.4c-.15-.35-.15-.74-.01-1.09.14-.35.42-.63.77-.78l.7-.29c.18-.07.36-.11.55-.11.29,0,.58.09.83.27,3.22,2.32,3.7,4.06,2.07,7.45-.24.49-.73.8-1.28.8h-.03Z"/>
        <path class="cls-3" d="m72.79,287.86c2.62,1.88,2.96,2.91,1.62,5.69-.84-1.96-1.58-3.68-2.32-5.4.23-.1.47-.2.7-.29m0-2.83c-.37,0-.74.07-1.09.22l-.71.29c-.7.29-1.25.85-1.53,1.55-.28.7-.27,1.49.02,2.18l1.04,2.41,1.29,2.99c.44,1.02,1.44,1.69,2.55,1.71.02,0,.04,0,.06,0,1.09,0,2.08-.62,2.56-1.61,1.92-4.01,1.24-6.51-2.52-9.22-.49-.35-1.07-.53-1.66-.53h0Z"/>
      </g>
      <g>
        <path class="cls-2" d="m41.41,235.98c-1.15,0-2-.37-2.51-1.1-.84-1.19-.49-2.87.28-5.03.19-.53.68-.9,1.25-.94.03,0,.06,0,.09,0,.53,0,1.02.3,1.26.78l2.09,4.12c.2.4.21.88,0,1.28-.2.4-.59.68-1.03.76-.55.09-1.02.14-1.43.14Z"/>
        <path class="cls-3" d="m40.51,230.32c.75,1.48,1.37,2.69,2.09,4.12-.46.08-.85.12-1.2.12-1.82,0-2-1.17-.9-4.24m0-2.83c-.06,0-.12,0-.18,0-1.13.07-2.11.81-2.49,1.87-.74,2.08-1.43,4.45-.1,6.32.55.78,1.63,1.7,3.67,1.7.49,0,1.04-.05,1.67-.16.89-.15,1.65-.71,2.06-1.52s.41-1.76,0-2.56l-.86-1.7-1.23-2.42c-.49-.96-1.46-1.55-2.53-1.55h0Z"/>
      </g>
      <g>
        <path class="cls-2" d="m83.07,274.21c-.44,0-.86-.2-1.13-.56-.25-.33-.5-.6-.71-.84-.57-.64-1.17-1.31-1.02-2.25.14-.85.69-1.46,1.14-1.95.12-.13.25-.27.35-.4.24-.31.59-.51.98-.55.05,0,.1,0,.14,0,.34,0,.67.12.93.34.11.1.26.19.4.29.58.4,1.38.95,1.47,1.94.07.84-.33,1.52-.75,2.24-.16.28-.35.59-.54.96-.22.44-.65.73-1.14.78-.04,0-.09,0-.13,0Z"/>
        <path class="cls-3" d="m82.84,269.07c.49.42,1.34.81,1.38,1.27.05.6-.54,1.25-1.14,2.45-.78-1.03-1.52-1.58-1.45-2.01.1-.62.78-1.15,1.22-1.71m0-2.84c-.1,0-.19,0-.29.02-.78.08-1.48.48-1.96,1.1-.08.1-.18.21-.27.31-.51.56-1.29,1.4-1.49,2.68-.26,1.61.71,2.7,1.36,3.42.21.24.43.48.64.76.54.71,1.38,1.12,2.26,1.12.09,0,.18,0,.26-.01.97-.09,1.83-.68,2.27-1.55.16-.32.33-.6.49-.88.47-.79,1.05-1.78.94-3.07-.14-1.66-1.4-2.52-2.08-2.99-.1-.07-.2-.13-.28-.2-.52-.45-1.17-.69-1.85-.69h0Z"/>
      </g>
      <g>
        <path class="cls-2" d="m98.34,171.64c-.61,0-1.17-.4-1.35-.99l-.21-.68c-.17-.54,0-1.13.44-1.5l2.46-2.08c.26-.22.59-.33.92-.33.18,0,.37.04.55.11l.77.32c.69.29,1.03,1.05.8,1.76-.06.18-.1.38-.15.58-.16.71-.37,1.6-1.09,2.2-.73.6-1.68.6-2.25.6h-.27c-.16,0-.31,0-.46.01-.05,0-.09,0-.14,0Z"/>
        <path class="cls-3" d="m100.59,167.47c.26.11.51.21.77.32-.25.73-.29,1.72-.8,2.13-.31.26-.83.28-1.36.28-.08,0-.17,0-.25,0-.21,0-.41,0-.61.02-.07-.22-.14-.45-.21-.67.82-.69,1.64-1.39,2.46-2.08m0-2.83c-.66,0-1.31.23-1.83.67l-2.41,2.04-.04.03c-.87.73-1.21,1.92-.88,3l.21.67c.37,1.2,1.48,1.99,2.71,1.99.09,0,.19,0,.28-.01.07,0,.14,0,.22,0h.22s.13,0,.13,0c.71,0,2.04,0,3.16-.92,1.1-.91,1.38-2.15,1.57-2.97.04-.17.08-.36.11-.45.47-1.41-.22-2.95-1.6-3.52l-.76-.32c-.35-.15-.73-.22-1.1-.22h0Z"/>
      </g>
    </g>
    <g>
      <path class="cls-3" d="m134.62,210.54h-.02c-.44.74-1.05,1.01-1.82,1.01-.98,0-1.74-.35-2.28-.94-.53-.6-.84-1.43-.84-2.41,0-1.08.38-2.02,1.06-2.65.53-.48,1.21-.74,2.08-.74,1.63,0,2.57.9,2.77,2.17h-1.29c-.15-.62-.63-1.08-1.46-1.08-1.22,0-1.83,1.01-1.83,2.3s.7,2.29,1.81,2.29c1.01,0,1.67-.75,1.67-1.47v-.04h-1.56v-1.02h2.73v3.44h-.99l-.05-.87Z"/>
      <path class="cls-3" d="m137.66,207.51h.03c.28-.53.6-.8,1.14-.8.14,0,.22,0,.29.04v1.08h-.03c-.81-.08-1.39.34-1.39,1.32v2.27h-1.23v-4.65h1.19v.74Z"/>
      <path class="cls-3" d="m139.29,209.08c0-1.38.93-2.45,2.29-2.45,1.5,0,2.29,1.14,2.29,2.8h-3.37c.09.72.49,1.16,1.19,1.16.48,0,.76-.22.9-.57h1.21c-.17.83-.91,1.52-2.1,1.52-1.54,0-2.41-1.08-2.41-2.46Zm1.23-.5h2.07c-.04-.59-.43-1-.99-1-.65,0-.97.39-1.08,1Z"/>
      <path class="cls-3" d="m144.23,209.08c0-1.38.93-2.45,2.29-2.45,1.5,0,2.29,1.14,2.29,2.8h-3.37c.09.72.49,1.16,1.19,1.16.48,0,.76-.22.9-.57h1.21c-.17.83-.91,1.52-2.1,1.52-1.54,0-2.41-1.08-2.41-2.46Zm1.23-.5h2.07c-.04-.59-.43-1-.99-1-.65,0-.97.39-1.08,1Z"/>
      <path class="cls-3" d="m150.59,207.4h.03c.32-.5.74-.76,1.38-.76.96,0,1.6.72,1.6,1.74v3.04h-1.23v-2.86c0-.5-.29-.85-.81-.85-.54,0-.94.43-.94,1.07v2.64h-1.23v-4.65h1.21v.63Z"/>
      <path class="cls-3" d="m154.39,204.93h1.23v6.48h-1.23v-6.48Z"/>
      <path class="cls-3" d="m159.22,210.89h-.02c-.24.35-.57.62-1.37.62-.95,0-1.62-.5-1.62-1.42,0-1.02.83-1.35,1.87-1.5.77-.11,1.12-.17,1.12-.53,0-.33-.26-.55-.78-.55-.58,0-.86.21-.9.65h-1.1c.04-.82.64-1.53,2-1.53s1.96.62,1.96,1.71v2.37c0,.35.05.56.16.64v.04h-1.19c-.07-.09-.12-.31-.15-.52Zm0-1.12v-.7c-.22.13-.55.2-.86.27-.64.14-.96.29-.96.72s.29.59.73.59c.71,0,1.1-.44,1.1-.89Z"/>
      <path class="cls-3" d="m162.38,207.4h.03c.32-.5.74-.76,1.38-.76.96,0,1.6.72,1.6,1.74v3.04h-1.23v-2.86c0-.5-.29-.85-.81-.85-.54,0-.94.43-.94,1.07v2.64h-1.23v-4.65h1.21v.63Z"/>
      <path class="cls-3" d="m165.92,209.09c0-1.45.82-2.46,1.98-2.46.65,0,1.06.3,1.31.69h.03v-2.39h1.23v6.48h-1.19v-.61h-.02c-.27.44-.73.74-1.39.74-1.17,0-1.97-.95-1.97-2.46Zm3.35.03c0-.89-.29-1.49-1.08-1.49-.68,0-1.02.6-1.02,1.46s.35,1.42.99,1.42c.73,0,1.11-.54,1.11-1.4Z"/>
    </g>
    <g>
      <path class="cls-3" d="m98.25,117.33h1.36l2.28,6.48h-1.37l-.44-1.38h-2.34l-.43,1.38h-1.33l2.26-6.48Zm-.19,4.1h1.71l-.58-1.87c-.11-.34-.26-1-.26-1h-.02s-.16.65-.27,1l-.58,1.87Z"/>
      <path class="cls-3" d="m103.53,119.9h.03c.28-.53.6-.8,1.14-.8.14,0,.22,0,.29.04v1.08h-.03c-.81-.08-1.39.34-1.39,1.32v2.27h-1.23v-4.65h1.19v.74Z"/>
      <path class="cls-3" d="m105.3,119.16h.64v-1.45h1.21v1.45h.8v.82h-.8v2.47c0,.34.19.46.46.46.15,0,.36,0,.36,0v.91s-.28.02-.77.02c-.6,0-1.26-.24-1.26-1.11v-2.73h-.64v-.82Z"/>
      <path class="cls-3" d="m108.58,117.33h1.23v1.11h-1.23v-1.11Zm0,1.83h1.23v4.65h-1.23v-4.65Z"/>
      <path class="cls-3" d="m110.39,121.49c0-1.39.91-2.46,2.32-2.46,1.21,0,1.95.7,2.11,1.7h-1.21c-.08-.41-.4-.72-.85-.72-.74,0-1.12.57-1.12,1.47s.35,1.47,1.11,1.47c.5,0,.85-.26.93-.79h1.19c-.08.99-.85,1.78-2.09,1.78-1.47,0-2.38-1.07-2.38-2.46Z"/>
      <path class="cls-3" d="m117.04,117.33h1.31v6.48h-1.31v-6.48Z"/>
      <path class="cls-3" d="m119.03,121.49c0-1.39.91-2.46,2.32-2.46,1.21,0,1.95.7,2.11,1.7h-1.21c-.08-.41-.4-.72-.85-.72-.74,0-1.12.57-1.12,1.47s.35,1.47,1.11,1.47c.5,0,.85-.26.93-.79h1.19c-.08.99-.85,1.78-2.09,1.78-1.47,0-2.38-1.07-2.38-2.46Z"/>
      <path class="cls-3" d="m123.82,121.48c0-1.38.93-2.45,2.29-2.45,1.5,0,2.29,1.14,2.29,2.8h-3.37c.09.72.49,1.16,1.19,1.16.48,0,.76-.22.9-.57h1.21c-.17.83-.91,1.52-2.1,1.52-1.54,0-2.41-1.08-2.41-2.46Zm1.23-.5h2.07c-.04-.59-.43-1-.99-1-.65,0-.97.39-1.08,1Z"/>
    </g>
  </g>
</svg>