<?xml version="1.0" encoding="UTF-8"?>
<svg id="Layer_2" data-name="Layer 2" xmlns="http://www.w3.org/2000/svg" viewBox="0 0 289.49 322.88">
  <defs>
    <style>
      .cls-1 {
        fill: #acacac;
        stroke: #020d1e;
        stroke-linecap: round;
        stroke-linejoin: round;
        stroke-width: 2px;
      }

      .cls-2 {
        fill: #ddebff;
      }

      .cls-2, .cls-3 {
        stroke-width: 0px;
      }

      .cls-3 {
        fill: #020d1e;
      }
    </style>
  </defs>
  <g id="Layer_2-2" data-name="Layer 2">
    <path class="cls-1" d="m128.64,171.11c1.62-.31,3.36-1.23,4.22-.71,2.4,1.47,4.7,2.66,7.59,2.03.06-.01.15.12.22.11.82-.16,1.89-.09,2.4-.58.49-.48.46-1.55.57-2.37.13-.99-.02-2.04.25-2.98.89-3.03,3.82-3.45,6.16-4.63,4.18-3,6.67.46,9.42,2.36-1.29,1.16-2.61,2.29-3.85,3.49-.95.92-.93,1.76.47,2.24.47,1.42,1.26,1.06,2.37.66,2.31-.84,4.62-1.8,6.56,1.09,1.15,1.72,2.88,1.09,4-1.16.54-1.09,1.08-2.17,1.74-3.5.32-.64,1.08-.94,1.74-.67l.57.23c.53.21.87.73.86,1.29-.06,4.13-.14,8.26-.14,12.4,0,.96.36,1.92.55,2.88.09.76.54,1.76.22,2.25-1.68,2.52-.08,4.76,1.97,5.67.79.35,1.36,1.19,2.02,1.81.45.42.86.9,1.35,1.27.71.54,1.54.94,2.22,1.52,1.16,1,1.13,1.89-.5,2.27-2.31.54-1.44,1.75-.71,2.97-1.85-.76-1.36-2.16-.97-3.54.65-.12,1.31-.23,2.04-.36-.91-2.2-2.45-2.3-4.1-2.18.05-1.65.06-3.26-1.92-2.97-.27.29-.54.58-.81.87.92.69,1.84,1.38,2.76,2.07l.57,2.24c-1.03,2.25-.17,4.07,1.74,5.75,1.07.94,2.89,2.33,2.71,3.13-.63,2.74,1.46,3.66,2.56,5.3.4.59.41,2.03-.02,2.49-1.31,1.38-1.23,2.42.09,3.63.32.29.44.81.79,1.48-2.35.35-4.88-2.34-6.54.77-1.13,4.28,2.54,4.23,4.96,5.24-2.1,3.48-1.81,4.49,1.4,6.86,2.4,1.77,4.64,3.75,6.96,5.63-2.09.46-3.64-.37-5.27-1.67-.8-.64-2.52-.8-3.49-.39-1.35.56-2.11,1.83-.9,3.49.43.58.44,1.62.32,2.4-.13.9-.62,1.75-1.11,3.04,3.06-1.88,3.44-3.11,2.38-6.31.4.83,1.08,1.65,1.15,2.51.25,3.12,2.72,1.92,4.25,2.16l1.55,2.42c-1.15,1.92-2.31,3.83-3.45,5.75-.84,1.42-1.44,3.05-2.53,4.24-1.22,1.31-2.82,2.3-4.35,3.28-1.01.65-2.13,1.28-3.29,1.53-2.33.5-4.81,3.02-5.1,5.5-.6.82-1.5,1.55-1.74,2.47-.35,1.32-.23,2.77-.31,4.17-.13.11-.29.2-.38.33-2.06,3.02-3.16,7.18-8.12,6.75-.3-.03-.63.52-.98.75-1.04.68-2.32,1.13-3.09,2.03-1.83,2.12-3.42,4.44-5.1,6.68-.04.05,0,.17,0,.25.32,1.7.72,3.39.92,5.1.1.88.08,1.97-.36,2.68-1.3,2.12-2.85,4.08-4.24,6.14-.39.57-.98,1.46-.79,1.89,2.45,5.3-.61,9.86-1.86,14.65l-3.36,2.17-1.84-2.44-3.98-2.58c-.84-.25-1.7-1.08-2.54-1.06-2.01.04-3.21-.83-4.12-2.56-.71-1.35-1.78-2.51-2.69-3.76-.68-2.22-1.37-4.44-2.05-6.66-1.25-4.07-4.33-7.87-1.44-12.59-1.17.06-1.94.1-2.78.15-.13-.57-.27-.97-.3-1.38-.19-2.21.14-4.39-1.33-6.49-1.01-1.44-2.05-4-1.43-5.24,1.48-2.95.56-6.01,1.37-8.81.52-1.81.66-4.74,3.4-4.95,2.86-.22,3.92-1.82,4.51-4.2,1.65-1.34,2.15-3.95,1.01-5.28l-1-5.17c1.08-.77,1.49-1.73.62-3.08-.39-.61-.77-1.24-1.06-1.9-2.21-5.1-2.29-5.9-6.42-4.43.66-2.12,1.25-3.84,1.72-5.6.13-.51-.04-1.12-.15-1.66-.24-1.22-.83-2.45-.74-3.63.41-5.59-.46-11.03-1.72-16.42-.17-.73-1.07-1.29-1.63-1.93l-2.32-4.15c-2.49-.67-5-1.31-7.48-2.04-.6-.18-1.12-.66-1.67-1.01-1.06-3.7-.82-3.96,2.87-4.93.87-.23,1.89-1.34,2.07-2.21.12-.58-1.01-1.57-1.77-2.14-.45-.34-1.26-.2-1.85-.27q-1.65-5.69,4.17-5.71c.08,0,.17-.01.25,0,2.88.47,4.91-.96,6.42-3.13.51-.73.42-1.89.61-2.85-.25-.04-.5-.08-.76-.12-.3.67-.6,1.35-.89,2.02-.42-1.39-.8-2.8-1.28-4.17-.53-1.54-.61-2.77,1.34-3.33,1.72-.48,3.45-.98,5.08-1.7,1.03-.46,1.92-1.28,2.77-2.06l1.75-.88Z"/>
    <g>
      <g>
        <path class="cls-2" d="m42.33,233.24c-1.13-.06-2.24-1.18-2.52-2.14-.43-1.46-.21-3.12.57-4.32.59-.91,1.44-1.48,2.41-1.61,1.58-.21,2.16-1.35,2.57-3.11.21-.9.53-1.64.93-2.27-.09,0-.18,0-.26,0-.22,0-.45,0-.69-.01-.3.03-1.1.75-1.58,1.18-.43.39-.87.79-1.35,1.14-.24.18-.53.27-.83.27-.09,0-.18,0-.27-.03-.39-.08-.72-.31-.93-.64-.61-.97-.8-1.93-.57-2.85.38-1.55,1.81-2.38,2.76-2.93,1.45-.84,1.72-1.36,1.76-1.6.04-.25-.06-.86-1.21-2.16-.48-.54-.47-1.35.01-1.89.1-.11.18-.23.28-.35.33-.45.74-1,1.43-1.32,1.67-.78,2.39-2.33,3.22-4.12.28-.61.57-1.23.91-1.84.41-.73.65-1.62.9-2.57.2-.74.4-1.5.71-2.25-.43.15-.86.24-1.3.24h0c-.09,0-.18,0-.27-.01-.3-.03-.6-.04-.88-.04-2.28,0-3.94.84-5.39,2.72-1.02,1.33-2.12,2.56-3.29,3.86-.52.58-1.06,1.18-1.6,1.81-.27.32-.67.49-1.07.49-.16,0-.31-.03-.47-.08-.55-.19-.92-.7-.95-1.28-.01-.31-.02-.63-.03-.98-.02-.86-.04-1.74-.15-2.62-.04-.32-.1-.57-.15-.74-.13,0-.24.02-.3.03-.87.97-1.82,1.46-2.85,1.46-.91,0-1.69-.39-2.33-.86-1.01.64-1.9.94-2.74.94-2.65,0-3.72-2.94-4.12-4.04-.29-.8-.65-1.58-1.03-2.4-.18-.38-.35-.77-.53-1.15-.29-.65-.05-1.4.55-1.78l.74-.46c.23-.14.49-.21.75-.21.28,0,.57.08.81.26.21.15.43.34.65.53.11.09.26.23.36.31.39-.07.93-.31,1.45-.68.24-.17.49-.52.76-.89.16-.23.33-.45.5-.66.27-.33.67-.52,1.1-.52h.04c.44.01.85.23,1.11.59,0,0,.97,1.36,1.23,1.71.72-.85,1-1.81.83-2.88-.59-3.86.79-7.09,4.23-9.86,1.18-.95,2.22-2.09,3-2.97,1.57-1.78,3.58-3.61,6.55-3.61.43,0,.87.04,1.32.11.06.01.12.02.18.02.04-.11.09-.35.08-.82,0-.46-.02-1-.1-1.16h0s-.14-.05-.43-.07c-.97-.07-1.85-.32-2.87-.62-.27-.08-.54-.16-.84-.24-.84.56-1.69.86-2.45.86s-1.4-.29-1.85-.81c-.35-.4-.73-1.13-.56-2.32,0-.04.01-.08.02-.12-.12-.02-.24-.06-.35-.11-.42-.19-.73-.58-.81-1.04l-1.31-7.14c-.08-.45.06-.91.37-1.23l1.45-1.52-.51-.73c-.35-.5-.33-1.17.03-1.65.14-.24.43-.75,1.08-.92,1.28-.33,2.93-2.39,2.96-4.23.01-.59.03-1.18.05-1.76.07-2.01.13-3.9-.11-5.75-.14-1.06-.6-2.14-1.14-3.39l-.03-.06-1.64,1.48c-.27.24-.61.37-.95.37-.22,0-.43-.05-.64-.15-.26-.13-.46-.33-.6-.57l-1.14-.1c-1.81-.16-3.62-.31-5.44-.43-.06,0-.11,0-.17,0-.27,0-.54.03-.81.05-.36.04-.73.07-1.07.07-1.77,0-2.93-.88-3.44-2.6-.35-.11-.91-.22-1.35-.23h-1.12c-4.48-.05-5.1-.71-5.06-5.42v-.97c.02-2.95-1.11-5.59-2.3-8.38-.39-.92-.79-1.85-1.14-2.78-.64-1.69-1-3.18-1.09-4.57-.1-1.44-.74-2.17-2.19-2.5-.21,0-.45.04-.65.08-.51,1.95-2.03,2.68-3.29,3.28-.65.31-1.27.61-1.8,1.07-.26.23-.59.35-.93.35-.18,0-.37-.04-.54-.11-.5-.21-.83-.68-.87-1.22l-.3-4.55c-.03-.48.18-.94.57-1.23.25-.19.55-.28.85-.28.06,0,.11,0,.17,0,.02-.21.09-.42.21-.6.25-.4.69-.65,1.16-.67.48-.01,1.12-.09,1.39-.39.36-.38.37-1.38.35-2.2-.04-1.26.67-2.41,1.25-3.33l.25-.4c.32-.53.7-.98,1.06-1.42.44-.52.85-1.01.97-1.44.6-2.1,1.04-4.31,1.45-6.46.15-.75.29-1.5.44-2.24.31-1.49,3.43-3.92,5.67-5.03-.09-.16-.15-.34-.17-.53-.04-.35-.1-.7-.17-1.04-.21-1.15-.46-2.45.34-3.61.55-.79,1.46-1.31,2.8-1.57.18-.17.49-.69.69-1,.3-.5.62-1.02,1.02-1.46.2-.22.39-.45.59-.68.8-.95,1.7-2.03,2.97-2.52.49-.19.64-.34.67-.38-.01,0-.03-.17-.2-.5-1.02-1.99-1.2-4.12-.49-6.01.7-1.87,2.22-3.34,4.28-4.15.18-.07.4-.2.56-.32-.09-2.61,1.54-4.14,2.86-5.38.27-.25.53-.5.79-.76.44-.46.87-.96,1.28-1.45.19-.23.38-.45.57-.66.28-.32.67-.49,1.07-.49.23,0,.45.05.66.17,1.4.74,2.39,1.2,3.04,1.2s1.32-.53,3.04-2.35c.96-1.02,1.11-1.81-.48-3.86-.39-.5-.4-1.19-.03-1.7.41-.56.84-1.12,1.27-1.67,1-1.28,1.95-2.49,2.57-3.81.15-.32-.04-1.22-.18-1.88-.1-.48-.21-.97-.26-1.47-.03-.27-.07-.55-.11-.83-.1-.66-.2-1.35-.18-2.08,0-.34.05-.69.1-1.04.06-.47.12-.88.05-1.28-.06-.35.02-.72.22-1.02.09-.13.18-.28.27-.43.56-.92,1.49-2.46,3.38-2.46.68,0,1.37.2,2.13.62.36.2.61.53.7.93.09.4,0,.81-.23,1.14l-.63.88.48.53,2.09-1.02c.02-.15.04-.29.06-.43.11-.77.2-1.44.16-2.04-.04-.51-.2-.95-.29-1.09-.56-.34-1.17-.63-1.8-.94-.76-.37-1.55-.75-2.3-1.23h-2.33c-.4,0-.77-.16-1.04-.45s-.4-.68-.37-1.07l.06-.8c.05-.66.1-1.33.16-1.99.03-.27.08-.53.14-.79.05-.22.09-.42.09-.56.04-2.46,1.41-3.87,3.77-3.87.2,0,.42,0,.64.03.23.02.46.03.67.03,2.09,0,3.58-.92,4.82-2.99.64-1.06,1.97-1.17,3.14-1.27.06,0,.13-.01.19-.02.27-.84.84-1.78,2.15-1.78.58,0,1.2.21,1.94.59l.97-2.25c.03-.06.06-.12.09-.18.57-.92,1.44-1.43,2.21-1.88,1.26-.73,1.61-.99,1.4-2.15-.09-.48.08-.97.44-1.3.26-.24.61-.37.95-.37.13,0,.26.02.38.05l17.99,5.06c.77-.23,1.54-.43,2.31-.63,1.92-.5,3.74-.98,5.34-1.78,3.03-1.53,6.06-1.55,8.98-1.56.57,0,1.15,0,1.72-.02h.19c3,0,4.4,1.93,5.38,3.83.74,1.43,2,2.73,3.22,4,1.67,1.73,1.8,3.46.42,5.32-.67.9-1.58,2.24-1.84,3.5-.16.8.52,2.25.74,2.73.18.38.59.8,1.07,1.29.29.3.6.61.92.97.08.09.15.2.21.31l1.14-.21c.09-.02.17-.02.26-.02.41,0,.81.18,1.08.5.33.39.42.92.25,1.4l-.18.49c.2-.07.41-.15.63-.24.75-.3,1.61-.64,2.59-.64,1.08,0,2.07.42,2.95,1.26.19.18.32.41.39.65.21-.24.39-.55.54-.97.14-.37.42-.66.78-.81.17-.07.36-.11.54-.11.2,0,.4.04.58.12.69.31,1.38.58,2.07.84,1.64.63,3.34,1.29,4.72,2.42,2.07,1.7,2.72,4.79,2.87,5.7.17,1.07-.18,1.76-.52,2.16.86.29,1.71.5,2.54.55.1,0,.19,0,.29,0,1.58,0,3.47-.76,4.86-1.32,1.36-.55,2.72-1.2,4.04-1.83,1.89-.9,3.83-1.83,5.88-2.52.7-.24,1.48-.35,2.4-.35s1.82.11,2.7.22c.31.04.61.08.91.11,0-.03.02-.07.03-.1.13-.43.46-.78.88-.94,5.36-1.92,9.03-5.58,11.91-8.91.29-.33.5-.89.72-1.47.12-.32.24-.64.38-.95.11-.25.2-.51.29-.78.24-.7.52-1.5,1.11-2.16,1.69-1.9,2.8-3.07,4.34-3.07s2.6,1.05,4.46,2.91c.9.9,1.85,1.78,2.95,2.79.55.51,1.15,1.06,1.79,1.66.41.38.55.97.37,1.5s-.66.9-1.21.95c-.47.04-.94.13-1.39.21-.62.11-1.21.22-1.8.22-.19,0-.37-.01-.54-.03-.14.29-.39.54-.7.68-.73.32-1.44.58-2.07.81-1.15.42-2.15.79-2.72,1.34-1.02.98-1.86,2.54-2.14,3.97-.3,1.54-.02,2.92.82,3.97.94,1.19,2.52,1.87,4.43,1.94.79.03,1.84.16,2.98,1,.41.3.63.79.58,1.3s-.37.94-.84,1.15l-1.12.49c.88,1.82.88,2.65-.15,4.13.79,1.06,1.22,1.22,1.53,1.22.63,0,1.63-.58,2.33-1.01,1.15-.71,2.36-1.36,3.52-1.98.53-.28,1.05-.56,1.58-.86.21-.12.45-.18.69-.18.13,0,.26.02.39.05.27.08.56.17.86.27.66.22,1.34.45,2,.52.28.03.56.03.84.04,1.26.02,3.57.06,4.27,3.11.29.19.97.47,1.44.66.26.11.53.21.79.33l.68-.51c.25-.19.55-.29.85-.29.27,0,.54.08.78.24,2.81,1.86,5.08,2.66,7.6,2.66.24,0,.49,0,.74-.02.66-.04,1.23-.07,1.73-.07,4.06,0,4.59,2.07,5.17,5.72.03.05.23.31.37.49.46.58,1.16,1.47.9,2.6-.1.44-.32.8-.58,1.09.1.16.19.31.29.47.7,1.14,1.43,2.32,1.92,3.61.79,2.05,2.1,3.37,4.39,4.43,2.38,1.1,4.49,2.8,6.28,4.3,1.18,1,1.88,2.62,1.92,4.45.03,1.84-.61,3.5-1.76,4.54-1.25,1.14-2.63,2.12-3.96,3.07-.57.41-1.14.81-1.71,1.23-.25.19-.55.28-.85.28-.34,0-.67-.12-.94-.36-.3-.27-.56-.52-.8-.75-.36-.35-.65-.63-.9-.77l-.41-.23c-.31-.18-.88-.5-1.27-.67-.65.65-1.16,1.5-1.26,2.17l-.03.18c-.21,1.42-.48,3.18-3.08,3.73-.63.47-1.28,3.13-.92,3.83.9,1.48,1.64,2.85,2.24,4.18.41.92.28,2.01-.38,3.08-.75,1.22-2.31,2.48-4.09,2.55-.34.01-.68.02-1.03.02-.77,0-1.55-.03-2.32-.06-.74-.03-1.48-.06-2.22-.06-.31,0-.62,0-.92.02-1.52.06-2.88.42-4.16,1.1-.21.11-.44.17-.66.17-.29,0-.57-.09-.81-.25-.08.45-.38.83-.8,1.03l-4.06,1.87c-.11.05-.23.09-.34.11.57.29,1.2.57,1.9.82.11-.03.32-.11.47-.17.28-.11.6-.23.95-.3.27-.06.57-.15.86-.25.66-.21,1.35-.43,2.05-.43.44,0,.84.09,1.2.26,2.11,1.04,3.12,3.35,2.64,6.01-.23,1.28-1.68,1.42-2.74,1.42-.24,0-.46-.01-.65-.04-.81-.11-1.59-.26-2.36-.42l.7,3.86.36-.25c.24-.17.52-.25.8-.25.39,0,.77.16,1.05.47.14.15.5.34.81.51.98.51,3.01,1.58,2.13,4.31-.19.59-.57,1.05-.98,1.42.45.48.78,1.03.86,1.73.16,1.29-.55,2.48-2.21,4.36l.62.69c.39.44.48,1.07.21,1.6-.25.48-.73.77-1.26.77-.05,0-.11,0-.16,0l-.49-.06c1.92,2.02,1.98,4.11.2,6.36-1.58,1.99-3.23,3.51-4.89,4.5-.64.38-1.28.57-1.91.57-.92,0-1.86-.44-2.45-1.38-1.74,1.75-1.95,4-.8,7.31.53,1.53.63,3.21.72,4.56.05.79-.33,1.43-.61,1.9-.07.13-.15.25-.21.38-.2.44-.61.74-1.09.81-.07,0-.13.01-.2.01-.41,0-.8-.18-1.07-.49-.06-.07-.12-.13-.18-.19-.31,1.78-.6,3.58-.76,5.35-.06.69.18,1.52.44,2.4.17.57.34,1.15.45,1.76.59,3.19,1.16,6.38,1.73,9.58l.02.09c.1-.02.19-.03.29-.03.27,0,.55.08.78.23,2.96,1.95,4.67,4.84,4.83,8.14.05,1.02.11,2.04.17,3.06.3,5.12.61,10.41-.37,15.46-.8,4.17-1.17,8.59-1.17,14.33,0,.38.19.88.4,1.41.21.53.44,1.13.54,1.78.28,1.7.32,3.06.14,4.26-.18,1.22-.9,2.28-1.56,3.18-.49.67-1.45,1.4-2.5,1.52-.06,0-.19.01-.25.01-.98,0-2.13-.69-2.56-1.53-.38-.74-.68-1.49-.97-2.22-.28-.71-.54-1.37-.86-1.99-.45-.88-.72-1.18-.82-1.27-2.55-.52-3.95-2.23-5.19-3.74-.74-.91-1.44-1.76-2.34-2.31-.36-.22-.61-.6-.66-1.02-.06-.42.08-.85.37-1.16l1.91-2.04-.21-1.17c-.24-1.35-.46-2.53-.68-3.7,0,0-.11-.63-.13-.74-2.29-.57-2.7-2.56-2.96-3.81-.06-.29-.12-.59-.21-.89-.15-.54-.44-.91-.62-.91-.06,0-.3.03-.73.36-.25.19-.55.29-.86.29-.08,0-.16,0-.24-.02-.39-.07-.74-.3-.95-.63-.45-.71-1.01-1.78-.66-2.88.3-.95,1.07-1.39,1.76-1.69-.45-.29-.9-.58-1.35-.86h-.05c-1.15-.22-1.38-.95-1.42-1.37-.07-.85-.52-1.16-1.76-1.81-.8-.42-1.7-.9-2.37-1.76-1.58-2.05-1.56-4.34,0-6.29-1.67-3.93-1.73-13.32-.16-17.74l-1.91-.94-3.38,5.94c-.24.43-.7.7-1.19.72h-.04c-.48,0-.93-.24-1.19-.65l-1.81-2.8-4.49.88c-.09.02-.18.03-.27.03-.29,0-.58-.09-.82-.26-.32-.23-.53-.57-.58-.96l-.09-.66c-.07-.54.16-1.07.61-1.37.34-.23.68-.44,1.03-.66.76-.48,1.48-.93,2.05-1.47.08-.08.18-.28.24-.47-.14-.06-.3-.12-.42-.17-.24-.09-.47-.19-.68-.29-.35-.17-.71-.31-1.08-.46-.84-.33-1.79-.7-2.59-1.36-.88-.73-1.86-1.1-2.9-1.1-.87,0-1.77.26-2.67.76-1.98,1.11-4.01,2.04-6.15,3.01-.46.21-.93.42-1.4.64l.2.35c.23.4.25.88.05,1.3l-1.76,3.79c-.23.5-.73.82-1.29.82h0c-.53,0-1.01-.29-1.25-.76l-.21.92c-.15.65-.72,1.1-1.38,1.1h-.04c-.68-.02-1.25-.52-1.36-1.18-.26-1.58-.89-1.7-1.81-1.7-.46,0-.99.06-1.49.12l-.45.05c-1.64.18-2.62.96-3.28,2.6-.65,1.62-2.58,2.49-4.14,3.18l-.19.08c-.86.38-1.74.64-2.6.9-.81.24-1.58.47-2.27.78-.02.53.07,1.46.11,1.81.04.34.18.81.33,1.25.34,1.06.73,2.27.11,3.33-.91,1.57-3.1,2.63-4.69,2.74-.64.04-1.23.07-1.79.07-4.1,0-6.65-1.21-8.8-4.17-.31-.43-.36-1-.11-1.48,1.38-2.7,3.8-3.08,5.75-3.1,1.01-.01,2.11-.45,2.42-.84,2.1-2.57,4.72-3.93,8.01-5.17.73-1.97,2.38-2.97,3.73-3.79.87-.53,1.65-1,2.18-1.66-.36-.51-.59-1.07-.8-1.57-.51-1.24-.69-1.5-1.5-1.52-1.16-.03-1.44-1.14-1.54-1.56-.03-.11-.05-.23-.09-.33-.19-.24-.59-.72-.85-.82-1.69-.64-3.42-1.22-5.24-1.84-.51-.17-1.03-.34-1.55-.52l-3.88,1.99c-.2.1-.42.16-.65.16-.23,0-.47-.06-.68-.17-.41-.23-.69-.64-.73-1.11-.16-1.69-.68-1.69-1.4-1.69-.39,0-.84.05-1.31.1-.52.06-1.06.12-1.6.12-.14,0-.28,0-.42-.01-.07,0-.13,0-.2,0-.91,0-1.56.4-2.23,2.46-.49,1.49-1.44,2.87-2.98,4.33-.27.25-.62.39-.97.39-.21,0-.43-.05-.62-.15-.53-.26-.84-.82-.79-1.41.04-.37.07-.74.1-1.11.08-.87.16-1.78.29-2.68.08-.54.19-1.07.3-1.58-.35-.05-.68-.08-.98-.08-.25,0-.44.03-.58.08-.67.26-1.33.78-2.02,1.33-.57.45-1.17.92-1.84,1.31-.4.23-.85.34-1.41.34-.15,0-.31,0-.47-.02l-1.07,2.41.57.84c.41.6.3,1.41-.26,1.88-2.04,1.73-2.87,2.77-2.4,4.38.55,1.87,1,2.48,1.13,2.63,4.04.98,3.62,4,3.4,5.63-.07.48-.13.94-.11,1.32.03.67-.38,1.09-.62,1.34-.09.09-.21.22-.37.4-.27.32-.67.49-1.07.49-.11,0-.22-.01-.32-.04-.51-.12-.92-.52-1.05-1.03-.08-.32-.14-.62-.19-.9-.05-.27-.12-.64-.18-.73-.09-.13-.27-.27-.38-.34-.02.01-.05.03-.08.04-.37,2.83-2.73,2.89-3.9,2.92-.23,0-.47.01-.7.03-.33.03-.69.15-1.07.29.23.51.46.99.71,1.47l.23.45c.38.72.73,1.41,1.18,1.88.24.25.69.47,1.16.71.26.13.52.26.77.4.53.3,1.05.59,1.58.88l.7.38c.39.21.65.6.72,1.04.06.44-.08.88-.4,1.2-.17.17-.33.34-.5.52-.43.46-.88.94-1.43,1.37-.52.4-1.09.68-1.55.9-.15.07-.3.14-.44.22-.21.11-.44.17-.67.17-.21,0-.42-.05-.61-.14-.32-.15-.62-.32-.91-.48-.48-.27-.89-.5-1.22-.56-1.99-.36-4.11-1.92-5.04-3.69-.62-1.18-.7-2.41-.22-3.46,1.15-2.57.69-4.83.16-7.46-.11-.52-.21-1.05-.31-1.59-.21-1.16-.38-2-.88-2.7-.16.3-.33.58-.48.83-.81,1.34-1.08,1.79.04,2.93,1.33,1.35.15,4.55-.73,5.59-1.15,1.37-2.48,2.49-3.89,3.66-.22.18-.44.36-.65.55l6.68,8.23c.27.34.38.78.28,1.2-.11.48-.23.94-.35,1.38-.23.86-.42,1.6-.46,2.31-.07,1.24-.24,4.52-3.3,4.52-.79,0-1.74-.23-3.07-.74-.43-.17-.75-.53-.86-.97-.11-.44,0-.91.29-1.26l.05-.08c.16-.25.5-.77,1.17-.93.21-.05.44-.1.67-.14.18-.03.42-.08.62-.13-.38-.79-1.4-1.69-2.16-1.89-.55-.14-1.06-.21-1.53-.21-1.19,0-2.05.45-2.73,1.42-.65.93-1.75,1.34-2.64,1.66-2.49.91-4.08,2.41-4.96,4.61.03.18.17.54.26.77.09.22.17.44.23.64.18.55.4,1.08.56,1.48l.15.36c.17.44.11.93-.15,1.32-.26.39-.7.62-1.17.62-.6,0-1.23-.06-1.78-.11-.43-.04-.84-.08-1.19-.08h-.03c-.25.5-.42,1.38.7,2.51.85.86,1.39,1.89,1.91,2.88.36.68.7,1.33,1.11,1.86.82,1.06,1.73,2.03,2.69,3.06.63.68,1.26,1.35,1.86,2.05.72.83.86,2.01.38,3.23-.18.45-.58.78-1.05.87-.09.02-.18.02-.27.02-.39,0-.77-.16-1.04-.45l-4.78-5.12s-.02.04-.02.06c-.57,1.51-1.11,2.94-2.18,3.99-1.09,1.06-2.57,1.53-3.99,1.98-.56.18-1.15.37-1.68.58-.17.07-.35.1-.53.1-.28,0-.56-.08-.8-.25l-.47-.32c-.46.81-.9,1.58-1.42,2.34-.4.58-1.39,1.57-2.54,1.57-.03,0-.08,0-.11,0Zm15.06-38.58c.3,0,.6.1.85.28.7.52,1.32.78,1.89.78s1.19-.29,1.83-.88c.67-.63,1.57-.66,2.22-.68.23,0,.55-.02.67-.06.1-.03.24-.1.38-.18-.02-.04-.03-.08-.05-.12-.58-1.51-1.13-2.94-2.02-3.98-.24-.28-1.15-.69-2.05-.69-.21,0-.34.03-.4.04-1.01.26-2,.96-3.06,1.7-.43.3-.85.59-1.28.87-.3.19-.61.45-1.07.84-.28.24-.6.51-1,.83-.06.05-.12.09-.19.13,0,.03,0,.06,0,.09,0,.61,0,1.33-.32,1.93.62-.2,1.26-.36,1.98-.54.39-.1.81-.2,1.26-.32.12-.03.24-.05.36-.05Zm-12.61-3.37c.32,0,.63.1.89.31.86.7,1.59,1.04,2.22,1.04.54,0,1.09-.25,1.7-.75.63-.53,1.42-.53,1.68-.53.23,0,.48.02.72.04,0-.24,0-.47-.01-.7-.03-1.26-.05-2.34.11-3.45.19-1.29,1.88-2.24,2.91-2.29.42-.02,1.29-.07,1.44-.21,0,0,.12-.16.1-.75-.03-1.45-.66-2.27-1.97-2.58-.35-.08-.76-.17-1.1-.17s-.56,0-.67.89c-.19,1.61-1.83,2.62-3.24,3.32-.2.1-.42.15-.63.15-.24,0-.48-.06-.7-.18-.41-.23-.68-.65-.71-1.12-.02-.28-.03-.57-.03-.86,0-.5-.02-.97-.13-1.28-.06-.17-.18-.36-.28-.5-.14.12-.31.27-.43.44-.27.37-.48.9-.73,1.5-.03.08-.07.17-.1.26l.22.28c.27.35.37.81.25,1.24l-.33,1.29c-.25.96-.47,1.82-.73,2.66l-.07.23c-.16.56-.37,1.28-.86,1.82.15-.06.32-.08.48-.08Zm21.81-7.59c.25.38.65.99.86,1.09.29-.08,1.26-1.29,1.31-2.6.02-.54-.08-.69-.08-.69-.01-.01-.2-.15-1.15-.17h-.09c-.52,0-.67.1-.67.1-.12.19-.06,1.03-.03,1.54.02.25-.03.51-.14.73Zm-3.81-7.51c.32.38.6.67.73.72.24,0,1.11-.43,2.03-.88.26-.12.5-.17.68-.2.36-.29.73-.57,1.1-.84,1.1-.83,2.14-1.62,2.85-2.57.07-.32,0-1.06-.11-1.55-2.26-.7-3.47-2.2-4.19-3.79-.95.88-1.56,1.84-1.76,2.8-.19.91,0,1.8.54,2.64.35.54.3,1.24-.13,1.72l-1.74,1.95Zm17.45-12.33c.3,0,.59.09.83.27l.52.38c.54.39.73,1.11.46,1.72l-.76,1.7c.26,0,.53,0,.76-.02.23-1.32.14-2.8.01-4.22-.04-.48-.24-1.03-.44-1.6-.24-.66-.5-1.42-.59-2.23-.1-1.01-.11-2.01-.1-3l-1.43,2.06c-.24.34-.61.55-1,.6l.63,4.68.53-.23c.18-.08.37-.11.56-.11Zm-31.69-6.48c.84.81,1.79,1.53,2.79,2.29.47.36.94.72,1.41,1.09.08.07.17.13.26.19.43.31,1.03.74,1.32,1.46.43,1.07,1.42,2.87,3.21,2.87.91,0,1.9-.47,2.86-1.35-.56-.69-.84-1.39-.86-2.12-.02-.65.18-1.22.47-1.71-.48.36-.96.75-1.45,1.16-.35.29-.71.58-1.09.88-.25.2-.57.31-.88.31-.16,0-.32-.03-.47-.08-.46-.16-.8-.55-.91-1.02-.71-3.1.31-5.72,1.29-8.26.34-.87.66-1.7.91-2.53-1.81-1.01-3.56-1.53-5.22-1.53-.52,0-1.04.05-1.54.16l-.14,2.86c.08.06.16.12.23.17.88.63,2.95,2.1,1.7,5.12-.17.4-.5.7-.92.82-.13.04-.26.05-.39.05-.29,0-.58-.09-.83-.27-.27-.19-.51-.39-.72-.57-.12-.11-.29-.24-.38-.31-.13-.02-.28-.03-.43-.03-.07,0-.13,0-.18,0-.02.11-.03.23-.02.32Zm18.78-5.46c.45.64.81.88,1,.88.31,0,.79-.37,1.27-.82l-1.55-2.45-.71,2.38Zm-7.6-5.86l3.27-.89c-3.08-3.1-6.87-4.9-9.17-4.9-.06,0-.11,0-.17,0l.4,1.84,5.67,3.95Zm139.71-45.49c.89.26,1.77.52,2.66.79-.8-.57-1.62-1.13-2.49-1.73l-.37-.26-.54.57c.16.15.28.32.35.51l.39.11Zm-15.55-29.02c.42,0,.83.19,1.1.52.26.32.76.86,1.19.86.24,0,.69-.16,1.46-.92.27-.27.64-.41,1-.41.3,0,.61.1.86.29l.82.63,2.9-1.85-.13-.55c-.23-.97-.41-1.75-.62-2.51,0,0-.13-.55-.16-.65-2.51-.79-3.17-2.91-3.66-4.49-.16-.53-.32-1.02-.52-1.44-.07-.15-.41-.44-.61-.49-.21-.05-.4-.08-.58-.08-.79,0-1.39.58-2.29,1.52-.36.38-.74.77-1.17,1.13-.26.22-.4.38-.46.48.05.05.15.13.29.23.92.6,1.46,1.32,1.6,2.16.22,1.29-.61,2.36-1.1,2.99-.31.4-.67.71-.99.98-.27.23-.53.45-.64.63-.36.6-.5,1-.54,1.18.16.28.46.59.81.93l.21-.38c.23-.42.64-.69,1.11-.73.04,0,.09,0,.13,0Zm-.68-18.68c-.25,0-.83.29-1.31.92-.38.5-.44.88-.42.96.32.77.8,1.55,1.34,2.46.03.05.06.1.09.16l4.09-3.07c-1.39-.57-2.59-1.07-3.77-1.42h-.03Zm.29-29.94c-.04-.14-.08-.28-.11-.42-.07-.03-.15-.06-.22-.08.06.15.17.34.3.49.01,0,.02,0,.04.01Z"/>
        <path class="cls-3" d="m70.46,4.48c6.31,1.77,12.46,3.5,18.38,5.17,2.85-.87,5.76-1.35,8.28-2.62,3.3-1.66,6.68-1.34,10.1-1.43.05,0,.1,0,.15,0,2.14,0,3.17,1.23,4.12,3.06.84,1.63,2.2,3.03,3.49,4.37,1.13,1.17,1.27,2.1.26,3.46-.9,1.22-1.8,2.62-2.09,4.06-.22,1.11.32,2.49.84,3.61.42.89,1.3,1.57,2.21,2.6-1.16.42-1.89.69-2.63.95l.09.57c1.6-.3,3.21-.59,5.21-.96-.33.92-.56,1.55-.78,2.16.4.28.8.39,1.21.39,1.27,0,2.56-1.05,3.95-1.05.64,0,1.29.22,1.97.87-1.04.46-1.8.79-3.2,1.42.98.12,1.88.23,2.69.23,1.7,0,3-.5,3.75-2.49,2.32,1.04,4.73,1.64,6.47,3.06,1.28,1.05,2.08,3.11,2.37,4.83.18,1.07-.53,1.44-1.37,1.44-.39,0-.8-.08-1.18-.2-.51-.17-.88-.78-1.71-.89.38.54.65,1.37,1.16,1.57,2.1.81,4.24,1.84,6.42,1.98.13,0,.25.01.38.01,1.78,0,3.67-.73,5.39-1.42,3.32-1.34,6.46-3.19,9.84-4.33.61-.2,1.26-.28,1.94-.28,1.19,0,2.45.22,3.64.34.85.08,1.64.64,2.74.67-.38-.5-.76-.99-1.38-1.79,5.26-1.88,9.08-5.36,12.5-9.31.65-.75.9-1.83,1.32-2.77.39-.86.57-1.9,1.17-2.58,1.54-1.74,2.39-2.59,3.28-2.59s1.8.84,3.46,2.5c1.38,1.38,2.84,2.67,4.78,4.48-1.17.1-2.22.42-3.06.42-.98,0-1.67-.44-1.93-2.15-.06-.38-1.12-.84-1.73-.84-.01,0-.03,0-.04,0-.45.02-1.21.74-1.23,1.18-.03.61.36,1.38.82,1.83.39.38,1.13.39,2.3.74-2.13.94-4.03,1.3-5.2,2.43-1.24,1.19-2.22,3.02-2.55,4.72-.84,4.29,2.08,7.44,6.59,7.59.71.02,1.41.16,2.2.72-.83.36-1.65.73-2.5,1.1q1.56,2.9.05,4.79c1.2,1.83,2.11,2.67,3.27,2.67.83,0,1.79-.42,3.07-1.22,1.62-1,3.34-1.86,5.04-2.8.86.24,1.96.71,3.09.84,1.66.19,3.42-.44,3.93,2.25.17.88,2.34,1.38,3.74,2.12.42-.31.92-.69,1.37-1.03,2.64,1.75,5.26,2.89,8.38,2.89.27,0,.55,0,.82-.03.63-.04,1.17-.06,1.64-.06,2.82,0,3.19.86,3.77,4.53.19,1.21,2.7,2.33.22,3.58.98,1.74,2.1,3.26,2.76,4.97.98,2.55,2.65,4.06,5.12,5.21,2.16,1,4.12,2.55,5.96,4.1,1.83,1.54,1.89,5.25.11,6.86-1.72,1.55-3.7,2.82-5.56,4.21-.85-.75-1.33-1.36-1.96-1.7-.8-.44-2.03-1.2-2.62-1.2-.1,0-.18.02-.23.07-1.02.81-1.99,2.16-2.18,3.42-.23,1.48-.29,2.4-2.06,2.75-1.55.31-2.62,4.57-1.79,5.94.79,1.3,1.53,2.65,2.16,4.03.59,1.31-1.34,3.56-3.24,3.63-.32.01-.65.02-.97.02-1.51,0-3.03-.11-4.54-.11-.33,0-.65,0-.97.02-1.6.06-3.2.43-4.77,1.26-1.27-.97-2.52-1.95-3.81-2.89-1.29-.94-2.63-1.83-4.14-2.88-1.15,1.22-2.39,2.53-3.62,3.85.17.22.33.43.5.65.61-.34,1.21-.68,1.82-1.02-.07.17-.13.34-.2.5,1.84.55,3.69,1.06,5.52,1.66.51.17.95.56,1.73,1.04-1.64.76-2.79,1.29-4.06,1.87,0,0-.22,0-.3-.11-.54-.73-1.17-1.25-1.85-1.25-.39,0-.81.17-1.23.57-.18.17.64,1.86,1.35,2.4,1.13.88,2.49,1.51,3.85,1.98.09.03.18.04.28.04.53,0,1.18-.38,1.77-.51.85-.18,1.85-.64,2.62-.64.21,0,.4.03.57.12,1.69.84,2.21,2.63,1.88,4.49-.03.15-.75.26-1.35.26-.17,0-.32,0-.45-.03-1.48-.21-2.95-.55-4.33-.83.55,3.05.99,5.43,1.47,8.07.86-.59,1.44-.99,2.17-1.48.98,1.09,3.39,1.1,2.64,3.43-.25.77-1.3,1.29-1.91,1.85,2.49,1.66,2.43,2.39-.97,6.09.35.39.71.79,1.48,1.64-1.36-.16-2.18-.25-3.49-.4.48.89.68,1.7,1.2,2.14,1.9,1.63,2.31,3.1.73,5.09-1.26,1.59-2.78,3.13-4.51,4.16-.43.26-.83.38-1.19.38-.99,0-1.64-.91-1.66-2.36-4.1,2.55-4.35,6.08-2.93,10.18.46,1.31.56,2.78.64,4.18.03.52-.45,1.07-.69,1.6-.43-.5-1.05-.93-1.23-1.5-.25-.8-.17-1.7-.61-2.55-.55,3.33-1.28,6.65-1.58,10.01-.13,1.48.63,3.02.91,4.55.82,4.42,1.59,8.85,2.4,13.33.3-.74.61-1.5,1.03-2.53,2.73,1.8,4.07,4.33,4.2,7.03.29,6.06.95,12.32-.17,18.18-.95,4.92-1.19,9.71-1.2,14.59,0,1.14.77,2.26.96,3.42.21,1.26.33,2.58.14,3.83-.13.9-.74,1.79-1.31,2.56-.34.46-.97.89-1.52.95-.03,0-.05,0-.08,0-.44,0-1.11-.38-1.3-.76-.7-1.36-1.13-2.85-1.83-4.21-.4-.77-1.02-1.86-1.7-1.99-3.55-.66-4.44-4.22-7.17-5.89,1.09-1.17,1.98-2.11,2.39-2.56-.4-2.2-.7-3.89-1.02-5.58-.12-.61-.27-1.73-.45-1.74-2.57-.15-2.38-2.05-2.87-3.81-.28-1-.96-1.94-1.99-1.94-.46,0-1,.19-1.6.65-1.91-2.99,1.73-2.13,2.41-3.87-1.03-.67-2.13-1.39-3.24-2.08-.2-.13-.67-.13-.68-.21-.24-2.73-3.16-2.68-4.42-4.31-1.45-1.88-1.05-3.67.62-5.2-2.11-2.67-2.15-15.53-.02-18.62-1.26-.62-2.51-1.23-4.36-2.14-1.31,2.31-2.7,4.75-4.04,7.1-.83-1.28-1.73-2.67-2.33-3.6-2.14.42-3.78.74-5.43,1.07-.03-.22-.06-.44-.09-.66,1.1-.74,2.31-1.37,3.27-2.27.5-.47.88-1.54.68-2.13-.18-.52-1.22-.78-1.89-1.11-1.13-.55-2.45-.86-3.38-1.63-1.16-.96-2.46-1.43-3.81-1.43-1.11,0-2.25.32-3.36.94-2.79,1.56-5.76,2.79-8.84,4.25.35.62.69,1.21.96,1.68-.57,1.23-1.1,2.38-1.76,3.79-.5-1.09-.9-1.97-1.31-2.85-.2,0-.4,0-.6,0-.31,1.37-.63,2.75-.94,4.12-.4-2.39-1.73-2.89-3.21-2.89-.69,0-1.42.11-2.09.18-2.05.23-3.55,1.27-4.44,3.48-.46,1.14-2.25,1.9-3.59,2.5-1.74.78-3.73,1.04-5.38,1.94-.48.26-.31,1.97-.2,3,.13,1.29,1.11,2.89.62,3.73-.6,1.04-2.29,1.94-3.56,2.03-.6.04-1.17.06-1.69.06-3.82,0-5.84-1.1-7.65-3.59.95-1.86,2.5-2.31,4.51-2.33,1.2-.02,2.8-.5,3.5-1.36,2.01-2.46,4.64-3.7,7.46-4.76.23-.09.6-.19.63-.34.86-3.49,5.19-3.42,6.5-6.66-1.65-.93-1.05-4.19-4.04-4.26-.17,0-.22-.93-.5-1.29-.41-.52-.92-1.1-1.51-1.33-2.36-.9-4.78-1.67-7.41-2.57-1.12.57-2.67,1.37-4.42,2.26-.23-2.48-1.41-2.97-2.81-2.97-.94,0-1.98.22-2.91.22-.11,0-.22,0-.33-.01-.1,0-.2,0-.29,0-2.06,0-2.96,1.53-3.58,3.43-.44,1.33-1.31,2.51-2.61,3.74.13-1.24.21-2.49.39-3.72.15-1.01.41-2.01.63-3.02-.88-.05-1.84-.28-2.7-.28-.39,0-.76.05-1.09.18-1.48.58-2.65,1.92-4.06,2.73-.2.11-.44.15-.7.15-.44,0-.93-.1-1.36-.1-.56,1.26-1.11,2.5-1.8,4.05.17.25.56.83,1.01,1.49-1.84,1.56-3.62,3.22-2.84,5.86.39,1.33,1.12,3.38,2.04,3.58,3.82.86,2.24,3.52,2.33,5.66,0,.12-.2.24-.65.76-.23-.89-.25-1.6-.58-2.09-.32-.47-.97-.96-1.48-.97h-.02c-.53,0-1.48.54-1.5.87-.09,2.47-1.81,2.01-3.36,2.16-.97.09-1.91.6-2.86.92.46.97.87,1.97,1.38,2.92.49.92.94,1.9,1.64,2.64.58.62,1.49.93,2.27,1.37.76.43,1.53.85,2.29,1.27-.59.59-1.13,1.25-1.78,1.76-.57.44-1.27.71-1.79.98-.9-.43-1.65-1-2.49-1.15-2.36-.43-5.16-3.1-4.23-5.18,1.59-3.54.55-6.53-.05-9.88-.36-2.03-.73-3.62-3.02-4.92.09,2.57-3.7,4.19-.7,7.23.51.51-.06,2.79-.81,3.69-1.51,1.81-3.5,3.24-5.42,4.95,2.85,3.51,5.29,6.51,7.55,9.3-.32,1.43-.77,2.66-.84,3.92-.12,2.2-.57,3.18-1.89,3.18-.63,0-1.47-.23-2.56-.65.16-.2.29-.5.47-.54,1.17-.29,3.01-.29,2.33-2.02-.48-1.23-1.92-2.56-3.18-2.89-.62-.16-1.26-.26-1.89-.26-1.45,0-2.85.53-3.89,2.03-.4.58-1.3.89-2.03,1.16-2.74,1-4.73,2.82-5.76,5.52-.23.6.27,1.51.51,2.25.26.8.6,1.57.74,1.92-1.02,0-2.16-.19-2.97-.19-.48,0-.85.07-1,.28-.98,1.42-.87,3.1.66,4.65,1.25,1.26,1.8,3.18,2.9,4.61,1.41,1.82,3.09,3.43,4.6,5.17.34.39.44.99.13,1.78-1.97-2.11-3.94-4.23-6.29-6.74-1.05,2.32-1.46,4.41-2.71,5.62-1.24,1.2-3.34,1.51-5.22,2.27-.36-.25-.88-.6-1.74-1.19-.74,1.28-1.36,2.47-2.11,3.57-.31.44-.92.96-1.38.96-.01,0-.02,0-.03,0-.45-.02-1.1-.64-1.24-1.12-.54-1.84.33-3.92,1.8-4.12,2.77-.37,3.43-2.78,3.76-4.2.69-2.96,2.79-3.78,5.48-5.04-.71-.1-1.15-.26-1.42-.26-.08,0-.14.01-.19.05-1.42,1-2.89,1.25-4.59,1.25-.21,0-.42,0-.64-.01-.01,0-.03,0-.04,0-1.2,0-2.45,1.63-3.76,2.59-1.3-2.08.5-3.11,1.72-3.82,2.88-1.68,3.28-3.19.88-5.91.4-.44.73-1.09,1.25-1.34,2.81-1.31,3.46-4.2,4.77-6.55.87-1.57,1.05-3.51,1.77-5.19.23-.54,1.19-.86,1.88-1.1,1.03-.37,2.11-.59,3.56-.97.81.6,1.74,1.06,2.74,1.06.88,0,1.82-.35,2.79-1.26.49-.46,1.61-.17,2.37-.43.62-.21,1.69-.94,1.64-1.06-.77-1.9-1.41-3.97-2.69-5.49-.6-.71-2-1.19-3.13-1.19-.27,0-.53.03-.75.09-1.71.45-3.19,1.76-4.74,2.75-.59.38-1.11.88-2.2,1.77,0-1.99-.13-3.45.08-4.86.06-.44,1.01-1.05,1.58-1.08,1.65-.08,2.94-.17,2.89-2.4-.05-2.19-1.19-3.49-3.06-3.92-.46-.11-.96-.21-1.43-.21-.99,0-1.87.44-2.07,2.13-.1.86-1.21,1.6-2.46,2.22-.07-.84.03-1.75-.25-2.51-.24-.65-.87-1.51-1.41-1.58-.03,0-.05,0-.08,0-.55,0-1.3.64-1.7,1.17-.55.75-.82,1.7-1.32,2.81.21.27.6.77.73.94-.39,1.49-.68,2.71-1.05,3.9-.18.59-.36,1.39-.8,1.67-1.86,1.14-.84,2.11.01,3.34.62-.44,1.13-.8,1.7-1.2,1.02.82,2.04,1.35,3.11,1.35.84,0,1.7-.32,2.61-1.09.18-.15.46-.2.77-.2.44,0,.94.09,1.38.09.03,0,.05,0,.08,0-.09.75.11,1.85-.31,2.19-.9.73-2.12,1.6-3.16,1.6-.05,0-.1,0-.15,0-.34-.03-.68-.04-1.01-.04-2.7,0-4.78,1.02-6.51,3.28-1.44,1.88-3.09,3.6-4.83,5.6-.05-1.07-.03-2.4-.19-3.7-.08-.66-.3-1.61-.76-1.84-.2-.1-.49-.15-.79-.15-.51,0-1.05.14-1.27.4-.66.78-1.29,1.1-1.89,1.1-.78,0-1.52-.53-2.24-1.24-1.13.87-2.05,1.31-2.83,1.31-1.18,0-2.03-1.02-2.79-3.11-.45-1.24-1.06-2.43-1.59-3.64.25-.15.49-.31.74-.46.56.39,1.12,1.11,1.67,1.11,0,0,.01,0,.02,0,.82-.03,1.71-.47,2.41-.96.63-.44,1.03-1.2,1.54-1.81.5.7,1,1.4,1.51,2.09.18.25.39.49.69.86,1.86-1.34,2.73-3.12,2.42-5.16-.57-3.72.97-6.32,3.72-8.54,1.15-.93,2.19-2.02,3.17-3.14,1.53-1.74,3.15-3.13,5.49-3.13.34,0,.7.03,1.08.09.15.03.3.04.43.04,1.21,0,1.51-1.04,1.49-2.26-.02-1.31,0-2.49-1.84-2.62-1.23-.09-2.42-.56-4.11-.99-.79.66-1.57.99-2.16.99-.72,0-1.15-.49-1.01-1.5.13-.89.8-1.71.78-2.89-.58.35-1.15.7-1.93,1.17-.42-2.28-.82-4.49-1.31-7.14.41-.43,1.26-1.32,2.25-2.35-.38-.55-.77-1.12-1.16-1.68.11-.15.19-.36.31-.4,1.98-.52,3.97-3.19,4.02-5.57.05-2.58.26-5.19-.07-7.73-.24-1.84-1.25-3.58-2.03-5.67-1.23,1.11-2.18,1.97-3.13,2.83.02-.21.04-.41.06-.62-2.59-.21-5.18-.46-7.78-.63-.09,0-.17,0-.26,0-.62,0-1.28.12-1.89.12-.99,0-1.85-.32-2.19-2.02-.09-.43-1.68-.79-2.58-.8-5.16-.09-4.8.38-4.79-4.97.02-4.27-2.1-7.86-3.54-11.67-.5-1.33-.91-2.76-1.01-4.16-.15-2.19-1.37-3.34-3.28-3.78-.11-.02-.23-.04-.37-.04-.76,0-1.84.34-1.87.57-.28,2.71-2.83,2.55-4.74,4.21-.11-1.73-.19-2.96-.3-4.55,1.02.38,1.65.61,2.58.95-.36-.79-.62-1.38-1-2.21,2.89-.09,3.18-1.8,3.11-4.05-.03-.98.74-2.03,1.29-2.95.67-1.11,1.85-2.02,2.18-3.19.83-2.88,1.32-5.86,1.92-8.81.21-1.05,4.49-4.25,6.05-4.49,2.08-.31,2.09-.33,1.5-2.66-.63.36-1.21.69-2.03,1.15-.22-2.12-1.36-4.1,1.94-4.7.94-.17,1.53-1.94,2.39-2.89.93-1.03,1.82-2.37,3.01-2.83,1.69-.65,1.86-1.6,1.22-2.85-1.72-3.35-.45-6.81,3.05-8.19.6-.23,1.53-.89,1.49-1.26-.33-2.72,1.68-3.96,3.21-5.54.69-.71,1.31-1.49,1.9-2.17,1.68.89,2.76,1.37,3.7,1.37,1.27,0,2.26-.88,4.07-2.8,1.85-1.96,1.15-3.72-.39-5.7,1.35-1.87,3-3.63,3.97-5.71.51-1.08-.17-2.72-.32-4.11-.1-.91-.31-1.81-.28-2.72.02-.82.29-1.64.13-2.59.6-.9,1.15-2.25,2.46-2.25.4,0,.88.13,1.45.44-.5.7-.91,1.26-1.3,1.81.74.82,1.39,1.54,1.96,2.17,1.5-.74,2.8-1.37,3.74-1.83.14-1.32.39-2.42.31-3.5-.05-.76-.35-1.83-.9-2.16-1.45-.89-3.11-1.46-4.48-2.42h-2.76c.07-.92.13-1.84.22-2.75.05-.49.23-.98.24-1.48.03-1.74.82-2.47,2.35-2.47.16,0,.33,0,.51.02.27.02.54.04.8.04,2.62,0,4.57-1.24,6.04-3.67.39-.65,2.09-.5,3.29-.74.15-1.09.36-1.64.97-1.64.52,0,1.32.4,2.61,1.21.56-1.29,1.08-2.51,1.6-3.72,1.07-1.75,4.41-1.63,3.79-5.03m112.04,54.96c2.47-1.85,4.77-3.57,7.36-5.52-2.57-1.01-4.36-1.85-6.23-2.41-.14-.04-.28-.06-.43-.06-1.64,0-3.65,2.38-3.04,3.84.54,1.3,1.38,2.48,2.33,4.15m.29,15.55c.41-.76.69-1.27,1.1-2.03.81.99,1.56,1.38,2.28,1.38.87,0,1.69-.57,2.46-1.34.63.48,1.12.86,1.61,1.23,1.76-1.12,3.4-2.17,4.59-2.92-.43-1.79-.68-2.94-.99-4.08-.14-.54-.3-1.45-.58-1.51-3.02-.58-2.89-3.31-3.84-5.32-.26-.55-.94-1.1-1.54-1.25-.34-.09-.65-.13-.94-.13-1.96,0-2.99,1.8-4.38,2.98-1.31,1.11-1.37,2.1-.02,2.98,1.62,1.05.95,2.07.15,3.09-.5.64-1.31,1.07-1.72,1.75-.42.7-.94,1.77-.69,2.36.43.97,1.45,1.68,2.51,2.81m17.5,64.18q3.83-3.15,3.62-4.65c-1.19,1.53-2.41,3.09-3.62,4.65m-140.83,8.43c2.43-.66,4.14-1.13,6.11-1.66-3.36-4.25-8.44-7.09-11.75-7.09-.7,0-1.33.13-1.84.4.25,1.16.49,2.29.8,3.71,2.17,1.51,4.74,3.3,6.68,4.65m8.86,6.62c1.36,0,2.62-1.6,3.85-2.87.72.43,1.31.78,1.93,1.15.97-2.38.83-2.68-2.12-4.56-.3.86-.59,1.68-1.17,3.33-1.23-1.94-2.13-3.36-3.25-5.11-.63,2.13-1.18,3.97-1.78,5.98.89,1.52,1.73,2.09,2.54,2.09m-17.22,2.58c-.71-.51-1.14-1.04-1.63-1.11-.21-.03-.47-.05-.73-.05-.55,0-1.11.09-1.29.36-.36.55-.47,1.84-.1,2.21,1.37,1.35,2.99,2.45,4.5,3.66.41.33.97.63,1.15,1.07,1,2.48,2.66,3.76,4.52,3.76,1.57,0,3.28-.92,4.83-2.8-3.58-2.94.64-4.1,1.54-6.12-.57-.57-1.07-.79-1.53-.79-.93,0-1.7.89-2.49,1.44-1.1.77-2.12,1.66-3.32,2.61-.93-4.04,1.65-7.39,2.45-11.15-2.2-1.42-4.54-2.27-6.86-2.27-.98,0-1.95.15-2.91.48-.08,1.67-.14,2.77-.22,4.46.38.98,3.24,1.41,2.07,4.25m27.25,1.31c-.48-.25-1.11-.58-1.57-.82.42,3.14.8,5.94,1.21,8.94.88-.38,1.56-.67,2.24-.96.17.13.35.25.52.38-.45,1.02-.91,2.05-1.66,3.75,1.66-.12,4.04.07,4.17-.38.48-1.72.39-3.65.23-5.47-.12-1.3-.89-2.54-1.03-3.85-.19-1.8-.05-3.64-.05-5.46-.39-.1-.78-.19-1.18-.29-.96,1.38-1.92,2.76-2.88,4.15m-14.87,20.22c.6,0,1.36-.37,2.69-1.02.22-.11.54-.04.71-.18,1.55-1.27,3.35-2.37,4.49-3.94.54-.75.05-3.42-.36-3.51-2.72-.6-3.81-2.5-4.46-4.89-3.75,2.42-4.92,5.73-3.08,8.52-.85.95-1.71,1.91-2.55,2.86,1.24,1.52,1.77,2.17,2.57,2.17m17.9-4.21c.28-.11.55-.23.83-.34-.07-.85.17-2-.29-2.48-.47-.49-1.62-.32-2.48-.45-.03.24-.05.47-.08.71l2.01,2.56m-14,12.08c1.35,0,2.73-2.16,2.79-3.95.07-1.96-.96-2.3-2.62-2.33-.04,0-.08,0-.11,0-2.33,0-2.22,1.54-2.11,3.17-.2.15-.39.3-.59.45.75.91,1.34,2.32,2.28,2.61.12.04.24.06.37.06M118.88,27.29h0m78.83,73.69h0M52.72,192.86h0M70.46,1.65c-.7,0-1.38.26-1.91.74-.72.66-1.06,1.64-.88,2.61.02.09.02.16.03.21-.17.13-.51.33-.74.46-.83.48-1.96,1.13-2.71,2.36-.07.12-.13.24-.19.36l-.42.98c-.4-.12-.79-.18-1.19-.18-.89,0-2.26.29-3.11,1.86-1.25.14-2.72.47-3.58,1.89-1.22,2.02-2.46,2.3-3.61,2.3-.18,0-.36,0-.55-.03-.26-.02-.52-.04-.76-.04-3.15,0-5.14,2.02-5.19,5.26,0,.02-.04.17-.06.29-.06.26-.12.58-.16.94-.07.67-.12,1.35-.17,2.03l-.06.79c-.06.79.21,1.56.75,2.14.54.58,1.29.91,2.08.91h.72c-1.85.52-2.82,2.13-3.33,2.97-.08.13-.16.26-.24.38-.4.6-.55,1.33-.43,2.04.03.19,0,.5-.06.86-.05.35-.1.74-.11,1.19-.02.85.09,1.63.19,2.32.04.26.08.52.1.77.06.57.18,1.13.28,1.62.08.36.19.89.2,1.16-.56,1.12-1.41,2.21-2.32,3.37-.43.55-.88,1.12-1.3,1.71-.74,1.02-.71,2.4.06,3.4.9,1.16.9,1.54.9,1.55h0s-.04.16-.34.47c-.4.42-1.59,1.69-2.05,1.9-.23-.03-.83-.24-2.33-1.03-.42-.22-.88-.33-1.33-.33-.8,0-1.58.34-2.14.97-.19.22-.38.45-.58.68-.4.47-.81.95-1.22,1.38-.24.25-.49.48-.74.72-1.24,1.17-3.02,2.84-3.28,5.55-2.27.98-3.96,2.69-4.78,4.84-.76,2.01-.69,4.24.19,6.36-1.26.68-2.16,1.75-2.9,2.64-.18.22-.37.44-.55.65-.49.54-.86,1.15-1.18,1.68-.09.14-.2.32-.29.47-1.86.49-3.08,1.49-3.64,2.99-.51,1.36-.26,2.67-.07,3.72.04.21.08.41.11.6-2.38,1.39-5.07,3.66-5.44,5.46-.15.75-.3,1.51-.45,2.26-.43,2.21-.84,4.3-1.42,6.33-.06.17-.44.62-.7.92-.38.46-.82.97-1.19,1.6-.08.13-.15.25-.24.38-.64,1.03-1.51,2.43-1.46,4.12.02.57,0,.9-.03,1.1-.09.01-.2.02-.34.03-.95.03-1.82.53-2.32,1.33-.01.02-.02.04-.03.06-.3.09-.58.24-.84.43-.77.57-1.19,1.5-1.13,2.46l.07,1.11.23,3.45c.07,1.08.74,2.02,1.74,2.43.35.15.72.22,1.09.22.67,0,1.34-.24,1.86-.7.38-.33.89-.57,1.48-.86,1.08-.52,2.71-1.3,3.61-3.06.36.19.44.48.48,1.02.11,1.52.49,3.15,1.18,4.97.37.97.77,1.92,1.16,2.84,1.13,2.66,2.2,5.17,2.19,7.82v.96c-.03,2.45-.04,4.08,1.17,5.4,1.29,1.4,2.96,1.42,5.28,1.44.34,0,.71,0,1.12.01.09,0,.2.01.32.03.83,1.8,2.41,2.8,4.49,2.8.44,0,.85-.04,1.21-.07.26-.02.5-.05.68-.05h.07c1.79.12,3.63.28,5.41.43.18.02.36.03.55.05.2.19.43.35.68.48.4.2.84.3,1.27.3.69,0,1.37-.25,1.9-.73l.14-.12c.15.44.26.84.31,1.23.23,1.73.16,3.57.1,5.52-.02.6-.04,1.19-.05,1.79-.02,1.19-1.24,2.71-1.9,2.89-1.21.32-1.75,1.23-1.93,1.54-.61.89-.65,2.05-.13,2.98l-.66.69c-.63.66-.9,1.58-.74,2.47l.41,2.25.9,4.89c.13.7.52,1.32,1.08,1.75.04,1.19.51,2,.94,2.51.72.84,1.76,1.3,2.93,1.3.87,0,1.77-.26,2.67-.75.08.02.16.05.23.07l.08.02c-2.38.62-4.09,2.24-5.48,3.82-.74.84-1.74,1.92-2.83,2.8-3.73,3.01-5.3,6.53-4.8,10.73-.47-.37-1.05-.59-1.67-.61-.03,0-.06,0-.09,0-.85,0-1.66.38-2.19,1.04-.19.23-.37.48-.55.73-.14.2-.36.5-.46.58-.12.08-.22.15-.32.2-.15-.12-.31-.25-.49-.38-.49-.34-1.06-.51-1.62-.51-.52,0-1.04.14-1.49.43l-.55.34-.2.12c-1.2.75-1.67,2.26-1.09,3.55.17.39.36.79.54,1.18.37.79.72,1.54.98,2.28.45,1.23,1.8,4.98,5.45,4.98.87,0,1.76-.23,2.7-.7.68.37,1.47.62,2.37.62.55,0,1.25-.1,2.01-.46.01.32.02.63.03.94,0,.35.02.69.03,1,.05,1.16.8,2.17,1.9,2.56.31.11.62.16.94.16.81,0,1.59-.34,2.14-.98.54-.62,1.07-1.21,1.59-1.79,1.18-1.32,2.3-2.57,3.36-3.95,1.18-1.54,2.41-2.17,4.26-2.17.15,0,.3,0,.46.01-.02.09-.05.18-.07.27-.23.86-.45,1.67-.77,2.24-.36.65-.67,1.3-.96,1.93-.85,1.83-1.39,2.89-2.53,3.43-1,.47-1.58,1.24-1.96,1.75-.06.09-.12.17-.19.25-.96,1.07-.97,2.7-.02,3.78.4.45.62.76.74.97-.17.14-.45.35-.92.62-1.1.64-2.92,1.7-3.44,3.83-.22.9-.27,2.31.74,3.94.42.67,1.09,1.13,1.86,1.28.18.04.36.05.55.05.59,0,1.17-.19,1.66-.54.12-.08.23-.17.35-.26-.29.63-.6.73-.98.78-1.38.19-2.59.98-3.41,2.24-1.01,1.56-1.29,3.61-.74,5.49.43,1.47,1.97,3.06,3.8,3.16.05,0,.14,0,.19,0,1.63,0,3.02-1.17,3.71-2.18.28-.41.55-.83.8-1.25.24.06.48.09.72.09.36,0,.72-.07,1.07-.21.48-.2,1.02-.37,1.58-.55,1.51-.48,3.21-1.03,4.54-2.31.75-.73,1.28-1.58,1.7-2.48l.53.57,2.73,2.93c.54.58,1.29.9,2.07.9.18,0,.35-.02.53-.05.96-.18,1.75-.84,2.11-1.75.68-1.72.45-3.43-.62-4.67-.63-.73-1.28-1.42-1.9-2.09-.94-1.01-1.83-1.96-2.6-2.96-.33-.43-.64-1.02-.97-1.65-.54-1.03-1.15-2.19-2.13-3.19.4.03.83.06,1.26.06.94,0,1.81-.46,2.34-1.24.53-.77.64-1.76.3-2.63-.04-.1-.09-.23-.16-.38-.15-.37-.36-.88-.52-1.37-.07-.23-.17-.47-.26-.72-.02-.05-.05-.12-.07-.18.75-1.57,2.02-2.66,3.86-3.33l.07-.03c.96-.35,2.42-.88,3.32-2.18.4-.58.84-.81,1.56-.81.28,0,.6.04.94.11-.48.36-.76.79-.9,1v.02c-.55.69-.74,1.6-.52,2.45.23.88.87,1.6,1.72,1.93,1.5.58,2.6.84,3.58.84,2.01,0,4.46-1.02,4.72-5.87.03-.56.21-1.23.42-2.02.12-.46.25-.94.36-1.44.19-.85-.02-1.73-.57-2.41l-5.14-6.33-.66-.82c1.26-1.06,2.54-2.17,3.65-3.49.07-.09.15-.19.23-.31-.09.4-.23.8-.42,1.21-.66,1.46-.56,3.13.26,4.7,1.14,2.16,3.62,3.98,6.04,4.43.13.03.51.25.79.4.29.16.62.34.98.52.39.19.81.28,1.23.28.46,0,.92-.11,1.34-.33.12-.06.25-.12.38-.19.49-.24,1.16-.56,1.8-1.05.64-.49,1.15-1.04,1.59-1.52.15-.17.31-.33.47-.49.63-.63.92-1.52.79-2.4-.13-.88-.66-1.65-1.43-2.08l-.71-.39c-.52-.29-1.04-.57-1.56-.87-.27-.15-.56-.3-.84-.44-.26-.13-.66-.33-.78-.43-.3-.32-.61-.92-.94-1.55l-.09-.18c1.46-.08,2.61-.46,3.44-1.13.39.57.99.98,1.68,1.15.22.05.43.08.65.08.81,0,1.6-.35,2.14-.98.14-.16.24-.27.32-.35.32-.33,1.07-1.1,1.02-2.38-.01-.25.05-.67.1-1.07.21-1.57.77-5.61-3.91-7.05-.15-.3-.39-.85-.67-1.81-.2-.67-.07-1.18,1.95-2.89,1.11-.94,1.33-2.56.51-3.76l-.13-.19.38-.84c.62-.05,1.17-.22,1.67-.51.77-.44,1.43-.97,2.01-1.43.33-.26.65-.51.95-.72-.11.82-.18,1.63-.25,2.41-.03.37-.07.73-.1,1.1-.12,1.18.51,2.31,1.57,2.83.4.2.83.29,1.25.29.71,0,1.41-.27,1.95-.78,1.72-1.63,2.79-3.19,3.35-4.92.41-1.25.7-1.46.72-1.47h0s.05-.02.17-.02c.03,0,.07,0,.1,0,.17.01.34.02.51.02.62,0,1.23-.07,1.76-.13.4-.05.78-.09,1.08-.09.02.1.04.23.06.4.09.94.63,1.77,1.46,2.22.42.23.89.35,1.36.35.44,0,.89-.1,1.29-.31l2.31-1.18,1.04-.53c.34.11.67.23,1,.34,1.76.59,3.42,1.15,5.04,1.76.04.04.1.1.2.21,0,0,0,0,0,.01.55,2.19,1.98,2.59,2.83,2.63.09.18.2.45.28.65.09.23.2.48.32.75-.31.22-.69.45-1.13.72-1.34.81-3.09,1.87-4.06,3.89-2.83,1.11-5.71,2.56-7.99,5.33-.21.15-.84.36-1.39.37-2.16.03-5.25.46-7,3.87-.49.95-.4,2.09.23,2.96,2.42,3.34,5.39,4.76,9.94,4.76.59,0,1.22-.02,1.89-.07,1.94-.13,4.64-1.39,5.82-3.44.93-1.61.4-3.26,0-4.47-.1-.33-.25-.77-.27-.97-.02-.15-.04-.42-.07-.71.39-.13.8-.25,1.22-.38.9-.26,1.82-.54,2.77-.96l.18-.08c1.7-.76,4.02-1.79,4.89-3.95.52-1.3,1.17-1.62,2.12-1.72l.46-.05c.49-.06.95-.11,1.32-.11.13,0,.22,0,.29.01.04.09.09.25.13.5.22,1.34,1.36,2.33,2.71,2.37.03,0,.06,0,.08,0,.98,0,1.88-.51,2.39-1.3.15.02.3.04.46.04h0c1.1,0,2.11-.64,2.57-1.64l1.76-3.79c.22-.48.3-.99.25-1.5.07-.03.14-.07.21-.1,2.16-.99,4.21-1.92,6.24-3.06.69-.39,1.35-.58,1.97-.58.71,0,1.37.25,2,.78.97.8,2.03,1.22,2.97,1.59.04.01.07.03.11.04-.15.09-.3.19-.46.29-.36.22-.72.45-1.07.69-.9.6-1.37,1.67-1.23,2.74l.05.33.05.33c.11.77.53,1.47,1.16,1.92.48.35,1.06.53,1.65.53.18,0,.37-.02.55-.05l2.73-.54.82-.16.1.16,1.19,1.83c.52.81,1.42,1.29,2.38,1.29.03,0,.05,0,.08,0,.99-.03,1.89-.57,2.38-1.43l2.07-3.63c-.91,4.78-.71,11.54.57,15.44-1.5,2.32-1.38,5.02.45,7.39.85,1.1,1.95,1.68,2.83,2.15.34.18.86.45,1,.6,0,0,0,.03,0,.07.03.31.22,1.67,1.64,2.34-.21.29-.39.64-.52,1.04-.59,1.87.47,3.53.82,4.07.43.67,1.12,1.13,1.9,1.26.16.03.33.04.49.04.34,0,.68-.06.99-.18.01.06.03.13.04.19.24,1.16.73,3.55,3.1,4.59.22,1.15.43,2.31.67,3.63l.08.45-1.42,1.52c-.58.62-.85,1.47-.74,2.32.11.84.6,1.59,1.33,2.04.69.42,1.29,1.15,1.98,2,1.24,1.52,2.76,3.37,5.48,4.11.09.14.21.34.37.65.29.56.54,1.2.81,1.87.3.76.61,1.54,1.02,2.34.67,1.31,2.31,2.3,3.83,2.3.14,0,.28,0,.41-.02,1.29-.15,2.66-.97,3.48-2.09.76-1.04,1.59-2.28,1.82-3.81.2-1.36.16-2.85-.15-4.7-.13-.8-.4-1.5-.62-2.06-.12-.3-.29-.75-.3-.91,0-5.62.36-9.96,1.15-14.05,1.01-5.22.69-10.6.39-15.81-.06-1.02-.12-2.04-.17-3.05-.18-3.76-2.12-7.05-5.47-9.26-.2-.13-.42-.24-.64-.32-.51-2.89-1.03-5.77-1.56-8.64-.13-.68-.32-1.33-.48-1.9-.21-.72-.43-1.46-.39-1.88.1-1.13.25-2.25.43-3.38.06,0,.11,0,.17,0,.13,0,.26,0,.4-.03.95-.13,1.78-.74,2.18-1.62.04-.08.09-.16.14-.25.33-.56.88-1.49.81-2.71-.09-1.44-.2-3.22-.79-4.94-.75-2.14-.78-3.59-.33-4.68.69.42,1.47.63,2.23.63.89,0,1.77-.26,2.64-.77,1.81-1.08,3.59-2.7,5.28-4.83,1.07-1.34,2.32-3.69,1.05-6.33.33-.25.61-.58.81-.96.49-.96.4-2.1-.22-2.96,1.22-1.53,1.94-2.92,1.75-4.51-.07-.55-.24-1.04-.47-1.47.21-.31.4-.67.53-1.07.83-2.57-.12-4.59-2.82-6-.15-.08-.38-.2-.48-.26-.55-.57-1.29-.87-2.05-.87-.02,0-.05,0-.07,0l-.03-.18c.13.02.27.04.4.06.25.04.54.05.84.05,3.03,0,3.92-1.41,4.14-2.59.6-3.31-.71-6.2-3.41-7.53-.25-.13-.52-.22-.8-.29.03-.01.06-.03.09-.04,1.09-.58,2.25-.88,3.55-.93.29-.01.57-.02.86-.02.7,0,1.41.03,2.16.06.77.03,1.57.06,2.38.06.36,0,.72,0,1.09-.02,2.02-.08,4.08-1.35,5.24-3.22.9-1.46,1.07-3.06.47-4.41-.6-1.33-1.32-2.68-2.2-4.14-.04-.5.18-1.51.44-2.04,3.05-.9,3.43-3.39,3.63-4.77l.03-.18c.02-.15.11-.36.24-.58.07.04.14.08.19.11.15.08.29.17.43.24.1.06.38.33.6.55.25.24.52.5.84.79.53.48,1.21.72,1.88.72.59,0,1.19-.19,1.7-.56.55-.41,1.12-.82,1.68-1.22,1.36-.97,2.77-1.98,4.09-3.17,1.46-1.32,2.27-3.37,2.23-5.62-.04-2.24-.92-4.25-2.42-5.51-1.86-1.57-4.06-3.33-6.6-4.51-1.98-.91-3.01-1.94-3.67-3.65-.5-1.29-1.18-2.44-1.85-3.54.13-.26.22-.53.28-.82.4-1.79-.67-3.14-1.18-3.78-.04-.05-.09-.12-.14-.18-.31-1.93-.64-3.4-1.53-4.57-1.53-2-3.94-2-4.98-2-.5,0-1.06.02-1.82.07-.22.01-.43.02-.65.02-2.22,0-4.25-.72-6.82-2.42-.48-.31-1.02-.47-1.56-.47-.6,0-1.2.19-1.71.57l-.03.03s-.03-.01-.05-.02c-.23-.09-.52-.21-.77-.32-1.13-3.48-4.23-3.53-5.45-3.55-.27,0-.52,0-.71-.03-.51-.06-1.12-.26-1.71-.46-.33-.11-.64-.21-.93-.29-.25-.07-.51-.11-.77-.11-.48,0-.95.12-1.37.35-.52.29-1.04.57-1.56.85-1.18.63-2.41,1.29-3.6,2.03-.65.4-1.06.6-1.3.7.5-1.06.53-1.97.17-3.1.86-.43,1.44-1.27,1.54-2.23.11-1.01-.33-2-1.15-2.6-1.47-1.07-2.86-1.24-3.77-1.27-1.49-.05-2.68-.55-3.36-1.4-.72-.91-.69-2.03-.54-2.81.22-1.15.92-2.44,1.73-3.22.36-.35,1.27-.68,2.22-1.03.65-.24,1.38-.5,2.15-.85.3-.13.56-.31.79-.52.67-.01,1.31-.13,1.93-.24.44-.08.86-.16,1.27-.19,1.11-.1,2.06-.84,2.43-1.9.36-1.06.07-2.23-.74-2.99-.65-.6-1.24-1.15-1.8-1.67-1.09-1-2.03-1.87-2.91-2.75-1.79-1.78-3.34-3.33-5.46-3.33-2.26,0-3.79,1.72-5.4,3.55-.77.87-1.11,1.85-1.38,2.63-.09.25-.17.49-.25.66-.16.36-.3.72-.42,1.03-.14.36-.34.91-.47,1.05-2.76,3.19-6.26,6.69-11.31,8.5-.48.17-.9.47-1.22.85-.9-.11-1.84-.23-2.82-.23-1.07,0-2,.14-2.85.42-2.12.72-4.11,1.67-6.04,2.59-1.36.65-2.65,1.27-3.96,1.79-1.27.51-3.02,1.22-4.33,1.22-.07,0-.14,0-.21,0-.23-.01-.46-.04-.7-.09.07-.46.07-.94-.01-1.44-.17-1.03-.91-4.56-3.37-6.57-1.56-1.27-3.36-1.97-5.11-2.64-.7-.27-1.35-.52-1.99-.81-.37-.17-.76-.25-1.16-.25-.37,0-.74.07-1.09.22-.4.16-.75.42-1.03.73-.94-.65-1.98-.97-3.1-.97-.64,0-1.22.11-1.75.26-.42-1.02-1.42-1.74-2.59-1.76h-.04s-.09,0-.13,0c-.15,0-.3.02-.44.05l-.25.05c-.25-.27-.49-.51-.7-.73-.3-.31-.72-.73-.8-.89-.61-1.32-.64-1.77-.63-1.88.19-.95,1-2.12,1.58-2.91,1.26-1.7,2.2-4.32-.5-7.12-1.18-1.22-2.37-2.45-3.01-3.69-.71-1.38-2.37-4.6-6.64-4.6-.07,0-.15,0-.23,0-.57.01-1.13.02-1.69.02-2.94.02-6.27.04-9.61,1.72-1.47.74-3.21,1.2-5.06,1.68-.64.17-1.3.34-1.96.53l-2.71-.76-14.89-4.19c-.25-.07-.51-.11-.77-.11h0Zm112.54,53.02c.08-.11.18-.22.28-.3.28.09.56.19.86.3l-.81.61c-.12-.21-.23-.41-.33-.61h0Zm2.14,8.8c.18-.18.35-.36.51-.52.42-.43,1.04-1.08,1.27-1.08,0,0,.01,0,.02,0,.12.29.23.65.34,1.02.48,1.54,1.23,3.96,3.82,5.13.16.61.31,1.24.49,2l-1.07.69-.14.09-.03-.02c-.51-.39-1.12-.59-1.73-.59-.73,0-1.45.28-2,.83-.16.16-.29.27-.39.35-.05-.05-.1-.11-.15-.18-.39-.48-.93-.81-1.51-.96.12-.12.23-.26.35-.4.55-.71,1.7-2.19,1.38-4.1-.14-.84-.53-1.59-1.16-2.24h0Zm-125.15,81.05l-2.25-1.56c.77.42,1.56.94,2.34,1.54l-.1.03h0Zm-8.01,5.94c.06,0,.13,0,.19,0,1.11,0,2.27.28,3.49.82-.16.43-.32.86-.5,1.31-.32.83-.66,1.7-.94,2.61-.11-1.43-.87-2.71-2.28-3.83l.05-.91h0Zm.87,8.58c.3-.23.55-.53.74-.87-.04.46-.06.92-.05,1.4-.23-.18-.46-.36-.69-.54h0Zm4.33,4.77c.41-.09.81-.28,1.15-.55.01,0,.02-.02.03-.03.04.11.09.23.14.34-.35.19-.68.29-.97.29-.12,0-.24-.02-.35-.06h0Zm9.02,10.26c.22-.77.1-1.62-.36-2.32-.35-.53-.46-1.03-.34-1.57.04-.21.12-.42.22-.63.72.91,1.7,1.77,3.05,2.36-.59.66-1.42,1.29-2.3,1.96-.09.07-.18.14-.27.2h0Zm-12.46,9.73c.17-.31.31-.65.4-1.02.05.01.09.02.12.03.46.11.72.23.83.73-.05,0-.11,0-.15,0-.36.02-.77.1-1.19.25h0Zm-4.79,3.23c.43,0,.86-.1,1.26-.3.17-.09.39-.2.64-.33-.08.21-.13.42-.16.64-.14.99-.16,1.95-.14,2.95-.73.11-1.36.38-1.87.81-.32.27-.61.42-.78.42-.1,0-.5-.05-1.33-.72-.05-.04-.11-.09-.17-.12.05-.15.09-.29.13-.42l.06-.21c.27-.89.5-1.79.75-2.74.03-.14.07-.27.11-.41.04.02.07.04.11.06.43.25.91.37,1.4.37h0Zm7.64,6.33c.23-.19.4-.33.56-.43.46-.3.91-.6,1.33-.9.95-.67,1.85-1.29,2.61-1.49-.02,0,0,0,.03,0h0c.38,0,.84.15,1.03.26.43.53.78,1.23,1.11,2-.7.09-1.54.32-2.26,1-.16.15-.57.5-.86.5-.11,0-.44-.05-1.04-.5-.49-.37-1.09-.56-1.69-.56-.24,0-.49.03-.73.09-.03,0-.05.01-.08.02h0Z"/>
      </g>
      <g>
        <path class="cls-2" d="m5.64,176.76c-1.14,0-1.47-.86-1.52-1.03-.45-1.41-.8-2.83-1.2-4.47l-.32-1.28c-.13-.51.04-1.04.42-1.39.27-.24.61-.37.95-.37.16,0,.32.03.48.08,1.11.4,2.06.6,2.85.6h0c.49,0,1.14-.08,1.48-.48.32-.37.42-1.08.28-1.98-.02-.15-.05-.33-.08-.44-.97-.94-1.45-1.87-1.45-2.86,0-1.54,1.11-2.57,2.19-3.57.2-.18.4-.37.6-.56.27-.26.62-.41.99-.41h.05c.39.01.75.18,1.01.47l1.98,2.22c.48.54.48,1.37-.02,1.9-.28.3-1.12,1.21-1.09,1.72.01.24.24.56.64.91,1.43,1.25-.26,4.17-.34,4.29-.61,1.03-1.34,1.99-2.04,2.92-.29.38-.59.77-.88,1.18-.27.37-.7.58-1.15.58-.14,0-.29-.02-.43-.07l-.45-.14c.18.41.16.88-.07,1.27-.23.41-.65.67-1.11.71-.23.02-.49.05-.74.08-.42.05-.81.1-1.04.1Z"/>
        <path class="cls-3" d="m11.31,160.02c.67.76,1.26,1.42,1.98,2.22-1.39,1.51-2.29,2.96-.34,4.66.31.27-.19,1.76-.63,2.5-.8,1.37-1.84,2.6-2.85,3.98-.78-.25-1.86-.59-3.58-1.14.63,1.32.93,1.94,1.4,2.92-.57.05-1.33.18-1.66.18-.1,0-.16-.01-.17-.04-.54-1.71-.94-3.47-1.49-5.66,1.29.46,2.4.68,3.33.68,2.44,0,3.56-1.52,3.16-4.1-.06-.4-.13-.9-.4-1.14-2.39-2.21-.45-3.4,1.24-5.06m0-2.83c-.74,0-1.45.29-1.99.81-.19.19-.38.36-.57.54-1.11,1.04-2.64,2.46-2.64,4.61,0,1.24.52,2.43,1.55,3.53.06.39.05.64.03.77-.08.02-.2.03-.39.03-.43,0-1.18-.09-2.37-.52-.31-.11-.64-.17-.96-.17-.69,0-1.37.25-1.9.73-.78.7-1.1,1.77-.85,2.79l.31,1.27c.41,1.67.77,3.11,1.23,4.56.29.93,1.22,2.02,2.87,2.02.37,0,.76-.05,1.22-.11.23-.03.47-.06.68-.08.93-.08,1.76-.61,2.22-1.42.07-.13.13-.26.19-.39.71-.12,1.37-.51,1.82-1.12.29-.4.58-.78.87-1.16.73-.96,1.48-1.95,2.13-3.05.4-.67,2.25-4.12.07-6.06.11-.15.28-.35.53-.62.99-1.07,1-2.72.03-3.81l-1.98-2.22c-.52-.58-1.25-.92-2.02-.95-.03,0-.06,0-.1,0h0Zm3.26,7.33h0Z"/>
      </g>
      <g>
        <path class="cls-2" d="m254.03,61.74c-.36,0-.71-.14-.97-.39-.31-.29-.47-.71-.44-1.13.01-.19,0-.4,0-.62-.04-.77-.08-1.72.56-2.47,1.76-2.09,3.75-4.12,6.96-4.12.45,0,.91.04,1.37.12.18-.06.55-.27.8-.42.34-.2.69-.4,1.04-.56.19-.08.39-.13.58-.13.5,0,.98.27,1.24.73.68,1.24.58,2.23.36,2.85-.23.66-.81,1.58-2.32,2.23-.91.39-1.84.52-2.75.66-.34.05-.69.1-1.02.17-.06.01-.12.02-.18.02-.55.8-1.13,1.61-1.88,2.31-.73.68-1.72.7-2.51.71-.22,0-.45,0-.65.03-.06,0-.12.01-.18.01Z"/>
        <path class="cls-3" d="m263.92,53.45c.88,1.59-.02,2.55-1.27,3.09-1.07.46-2.32.51-3.48.73-.05-.24-.11-.47-.16-.71-.84,1.15-1.56,2.44-2.59,3.4-.49.45-1.57.27-2.38.37.05-.77-.19-1.8.22-2.27,1.58-1.88,3.27-3.62,5.88-3.62.38,0,.78.04,1.2.12.06.01.11.02.17.02.7,0,1.55-.72,2.42-1.12m0-2.83c-.39,0-.79.08-1.16.25-.45.2-.84.43-1.18.63-.09.05-.2.12-.3.18-.39-.05-.77-.07-1.15-.07-4.14,0-6.58,2.9-8.04,4.63-.99,1.18-.93,2.6-.89,3.45,0,.15.02.37.01.45-.06.85.26,1.68.88,2.26.53.5,1.23.78,1.95.78.12,0,.24,0,.36-.02.1-.01.32-.02.49-.02.93-.01,2.33-.03,3.46-1.09.69-.64,1.25-1.36,1.74-2.05.19-.03.39-.06.58-.09.95-.14,2.02-.29,3.1-.76,1.98-.85,2.78-2.13,3.1-3.07.31-.89.47-2.3-.46-4-.51-.93-1.48-1.46-2.48-1.46h0Z"/>
      </g>
      <g>
        <path class="cls-2" d="m274.11,71.12c-.36,0-.73-.14-1-.41-.3-.29-.61-.58-.92-.86-.84-.77-1.71-1.57-2.39-2.57-.8-1.17-.35-3.06.21-3.97.69-1.13,1.72-2.16,2.88-2.89.76-.48,1.64-.5,2.35-.52.22,0,.44,0,.65-.03.06,0,.11,0,.17,0,.36,0,.72.14.98.39.31.29.46.71.43,1.13-.02.2,0,.4,0,.61.01.67.03,1.49-.4,2.24l-.25.43c-.94,1.63-1.68,2.92-1.32,4.78.12.61-.18,1.23-.72,1.52-.21.11-.44.17-.67.17Z"/>
        <path class="cls-3" d="m276.06,61.26c-.06.76.12,1.66-.22,2.26-1.05,1.85-2.23,3.61-1.73,6.18-1.07-1.06-2.3-2-3.13-3.23-.36-.53-.15-1.78.24-2.43.59-.96,1.48-1.83,2.43-2.44.62-.4,1.59-.25,2.41-.34m0-2.83c-.11,0-.22,0-.33.02-.12.01-.32.02-.52.02-.79.02-1.97.05-3.07.74-1.35.85-2.53,2.04-3.33,3.35-.72,1.17-1.4,3.7-.17,5.51.78,1.14,1.75,2.03,2.61,2.82.3.27.59.54.88.83.54.54,1.26.82,1.99.82.46,0,.91-.11,1.34-.33,1.1-.59,1.68-1.82,1.45-3.04-.25-1.28.23-2.19,1.16-3.81l.25-.43c.62-1.09.6-2.22.58-2.97,0-.18,0-.37,0-.47.07-.85-.25-1.68-.86-2.26-.53-.51-1.24-.79-1.96-.79h0Zm0,5.67h0,0Z"/>
      </g>
      <g>
        <path class="cls-2" d="m26.44,216.6c-.07,0-.14,0-.21-.02-.55-.08-1-.47-1.15-1-.77-2.64.07-3.34,2.98-4.74l-.58-2.21c-.16-.6.09-1.24.62-1.56l.73-.46c.23-.14.49-.21.75-.21.17,0,.35.03.51.1.42.16.73.51.85.94.41,1.46,1.06,1.93,2.66,1.93,1.2,0,2.01.9,2.79,1.77.31.34.63.7.96,1,.37.34.54.85.43,1.35s-.47.89-.95,1.05c-.75.24-1.55.36-2.45.36-.81,0-1.57-.09-2.31-.18-.65-.08-1.25-.15-1.81-.15-1.06,0-1.87.24-2.64,1.41-.26.4-.71.64-1.19.64Z"/>
        <path class="cls-3" d="m29.57,207.8c.61,2.18,1.91,2.97,4.02,2.97h.04c.8,0,1.61,1.35,2.76,2.4-.67.22-1.34.29-2.01.29-1.42,0-2.82-.33-4.12-.33-1.43,0-2.74.4-3.82,2.05q-.52-1.78,3.29-3.57c-.29-1.12-.59-2.23-.88-3.35.24-.15.49-.31.73-.46m0-2.83c-.52,0-1.05.15-1.5.43l-.74.46c-1.05.66-1.55,1.92-1.24,3.12l.29,1.11c-2.4,1.29-3.62,2.64-2.68,5.88.31,1.06,1.21,1.85,2.3,2.01.14.02.28.03.42.03.95,0,1.84-.48,2.37-1.28.43-.66.73-.77,1.45-.77.47,0,1.04.07,1.64.14.75.09,1.59.19,2.48.19,1.06,0,2-.14,2.89-.43.96-.31,1.68-1.11,1.89-2.1.21-.99-.12-2.01-.86-2.69-.29-.26-.58-.59-.86-.9-.9-1-2.01-2.24-3.81-2.24h0c-1.08,0-1.11-.12-1.33-.9-.24-.86-.87-1.56-1.71-1.88-.33-.13-.68-.19-1.02-.19h0Z"/>
      </g>
      <g>
        <path class="cls-2" d="m20.26,196.81c-.43,0-.86-.2-1.14-.57l1.14-.85-1.16.81-1.63-2.2c-.2-.27-.3-.61-.28-.95l.17-2.34c-.12-.29-.14-.61-.06-.91.11-.4.24-.79.38-1.19.25-.73.48-1.42.48-2,0-2.65,1.55-3.2,2.85-3.2.29,0,.62.03.97.06.21.02.43.04.66.05.53.03,1.01.35,1.22.84.22.49.14,1.06-.2,1.47-1.93,2.35-1.56,3.52-.19,4.85.34.33.49.82.4,1.28-.09.47-.41.86-.85,1.04l-1.25.52.4.81c.31.63.11,1.4-.48,1.8l-.63.43c-.24.17-.52.24-.79.24Z"/>
        <path class="cls-3" d="m21,184.83c.44,0,.97.07,1.55.1-1.98,2.41-2.39,4.52-.08,6.77-.98.4-1.75.72-2.65,1.09.36.74.71,1.46,1.06,2.17-.21.14-.42.28-.63.43-.56-.75-1.12-1.51-1.65-2.23.06-.88.14-1.92.21-2.96-.05,0-.1-.01-.15-.02.32-1.19.9-2.37.91-3.56,0-1.5.55-1.79,1.43-1.79m0-2.83c-3.13,0-4.26,2.38-4.26,4.61,0,.36-.21.97-.41,1.56-.14.4-.28.82-.4,1.28-.13.48-.13.98,0,1.45l-.03.39-.12,1.68c-.05.68.15,1.35.55,1.89l.82,1.1.84,1.12c.55.75,1.41,1.15,2.28,1.15.55,0,1.1-.16,1.59-.49l.31-.21.31-.21c1-.68,1.44-1.89,1.16-3.02.84-.38,1.45-1.14,1.62-2.05.18-.94-.12-1.9-.81-2.57-.81-.79-1.18-1.15.29-2.94.68-.83.84-1.97.4-2.94-.43-.98-1.38-1.63-2.45-1.69-.21-.01-.42-.03-.61-.05-.35-.03-.71-.06-1.09-.06h0Z"/>
      </g>
      <g>
        <path class="cls-2" d="m268.81,53.98c-.11,0-.22-.01-.33-.04-2.26-.54-4.29-2.14-5.55-4.41-1.29-2.3-1.6-4.9-.86-7.13.18-.55.68-.94,1.26-.97.03,0,.06,0,.08,0,.55,0,1.05.32,1.28.82.25.53.49,1.06.72,1.58.51,1.14,1,2.22,1.56,3.24.57,1.03,1.24,2.04,1.96,3.12.34.51.7,1.05,1.06,1.61.31.49.3,1.11-.03,1.59-.27.38-.7.6-1.16.6Z"/>
        <path class="cls-3" d="m263.41,42.85c.8,1.71,1.47,3.36,2.33,4.91.87,1.57,1.93,3.04,3.07,4.81-4.04-.96-6.65-5.93-5.39-9.71m0-2.83c-.06,0-.11,0-.17,0-1.16.07-2.16.84-2.52,1.94-.86,2.6-.51,5.62.97,8.27,1.46,2.61,3.81,4.47,6.46,5.09.22.05.44.08.65.08.91,0,1.78-.44,2.31-1.2.67-.94.7-2.2.07-3.17-.37-.57-.72-1.11-1.07-1.63-.73-1.1-1.36-2.04-1.9-3.02-.54-.97-1.01-2.02-1.51-3.13-.24-.53-.48-1.06-.73-1.6-.47-1-1.47-1.63-2.57-1.63h0Z"/>
      </g>
      <g>
        <path class="cls-2" d="m85.21,274.77c-.35,0-.66-.06-.93-.19-.94-.44-1.5-1.42-1.8-2.16l-.06-.15c-.48-1.19-.98-2.42-1.18-3.77-.13-.86.11-1.65.32-2.34.07-.23.14-.46.19-.68.14-.63.68-1.09,1.32-1.12,0,0,1.01-.05,1.03-.05.47,0,.92.24,1.18.63.1.15.2.29.31.43.29.4.61.84.85,1.38.5,1.15,1,2.39,1.35,3.7.27,1.01.23,2.12-.1,2.97-.42,1.07-1.8,1.35-2.47,1.35Z"/>
        <path class="cls-3" d="m84.09,265.73c.35.53.79,1.02,1.04,1.6.49,1.14.96,2.3,1.28,3.5.18.66.19,1.47-.05,2.09-.09.23-.7.44-1.15.44-.13,0-.24-.02-.33-.06-.48-.23-.86-.87-1.08-1.41-.47-1.17-.97-2.37-1.16-3.6-.12-.8.31-1.68.49-2.52.32-.02.64-.03.97-.05m0-2.83s-.09,0-.14,0h-.04s-.92.05-.92.05c-1.28.06-2.37.98-2.64,2.23-.04.19-.1.38-.16.57-.23.75-.54,1.79-.36,2.96.22,1.51.78,2.89,1.27,4.1l.06.15c.4.98,1.15,2.28,2.51,2.91.46.22.97.32,1.53.32,1.08,0,3.1-.47,3.79-2.25.44-1.14.5-2.54.15-3.85-.37-1.4-.9-2.7-1.42-3.89-.3-.68-.69-1.22-1-1.65-.09-.13-.19-.25-.27-.39-.53-.79-1.42-1.27-2.36-1.27h0Z"/>
      </g>
      <g>
        <path class="cls-2" d="m21.85,170.46c-.52,0-.99-.28-1.24-.74l-3.91-7.15c-.25-.45-.23-1,.05-1.44.26-.41.71-.66,1.2-.66.03,0,.23,0,.3,0,.17,0,.35,0,.52-.02.22,0,.43-.02.64-.02.55,0,1.27.05,1.92.46,2.65,1.67,3.33,4.82,1.85,8.64-.2.51-.68.87-1.23.9-.03,0-.06,0-.09,0Z"/>
        <path class="cls-3" d="m19.4,161.87c.44,0,.85.05,1.16.24,2.07,1.31,2.49,3.83,1.29,6.93-1.29-2.36-2.46-4.51-3.91-7.15.1,0,.19,0,.29,0,.38,0,.78-.03,1.16-.03m0-2.83h0c-.23,0-.47,0-.7.02-.15,0-.31.01-.46.01-.04,0-.08,0-.12,0-.06,0-.11,0-.17,0-.97,0-1.87.49-2.39,1.32-.55.87-.59,1.97-.09,2.88l3.71,6.79.2.36c.5.91,1.46,1.47,2.49,1.47.06,0,.12,0,.19,0,1.1-.07,2.06-.78,2.46-1.81,1.72-4.44.81-8.31-2.42-10.35-.97-.61-1.99-.68-2.67-.68h0Z"/>
      </g>
      <g>
        <path class="cls-2" d="m239.91,52.95c-.08,0-.19,0-.27-.02-3.16-.5-2.78-3.1-2.63-4.08.04-.3.1-.67.07-.83-.1-.56-.25-1.98.57-2.97.44-.53,1.07-.82,1.78-.82.33,0,.68.06,1.04.19,1.12.39,1.61,1.51,2.03,2.49.13.29.25.59.4.84.19.33.24.73.14,1.1-.07.23-.19.44-.35.6,0,.47-.02,1.02-.28,1.56-.26.54-1.22,1.94-2.49,1.94Z"/>
        <path class="cls-3" d="m239.43,45.65c.17,0,.35.03.57.11.78.27,1.13,1.76,1.67,2.7-.14.07-.28.15-.42.23-.03.57.1,1.23-.13,1.7-.23.47-.84,1.14-1.21,1.14-.02,0-.03,0-.04,0-2.51-.4-1.15-2.44-1.39-3.76-.17-.91-.03-2.12.95-2.12m0-2.83h0c-1.13,0-2.15.47-2.87,1.33-1.16,1.39-1.03,3.21-.89,4.03,0,.11-.04.32-.06.46-.63,4.32,2.12,5.42,3.81,5.69.15.02.34.04.49.04,2.4,0,3.71-2.62,3.76-2.74.29-.6.39-1.19.42-1.69.13-.22.23-.45.3-.7.21-.74.11-1.53-.27-2.19-.09-.15-.21-.43-.32-.7-.46-1.06-1.16-2.67-2.86-3.26-.51-.18-1.02-.27-1.51-.27h0Z"/>
      </g>
      <g>
        <path class="cls-2" d="m62.69,8.14c-.4-.04-.77-.26-1-.59-.1-.14-.22-.3-.35-.47-.46-.62-1.03-1.39-1.5-2.27-.29-.54-.23-1.17.16-1.89.33-.61.91-1.35,1.78-1.42.89-.08,1.78-.08,2.45-.08.42,0,.86,0,1.32,0,.5,0,1.02.01,1.58.01s1.11.36,1.32.91c.21.55.06,1.17-.37,1.56l-4.29,3.88c-.26.24-.6.37-.95.37-.05,0-.1,0-.15,0Z"/>
        <path class="cls-3" d="m64.21,2.83c.88,0,1.83.02,2.92.02-1.75,1.58-2.83,2.56-4.29,3.88-.44-.63-1.2-1.55-1.75-2.59-.12-.23.48-1.21.8-1.23.75-.06,1.51-.08,2.32-.08m0-2.83c-.69,0-1.61.01-2.56.09-1.57.13-2.49,1.41-2.9,2.15-.79,1.44-.53,2.55-.17,3.23.52.98,1.15,1.83,1.61,2.45.12.16.23.31.33.45.47.66,1.2,1.09,2,1.18.1.01.21.02.31.02.7,0,1.38-.26,1.9-.73l4.29-3.88c.87-.79,1.17-2.03.74-3.12-.42-1.09-1.47-1.82-2.65-1.82-.56,0-1.08,0-1.57-.01-.47,0-.91,0-1.34,0h0Z"/>
      </g>
      <g>
        <path class="cls-2" d="m191.09,23.65c-.82,0-1.43-.5-1.92-.89-.13-.11-.26-.21-.39-.29-.32-.2-.55-.53-.63-.9s0-.76.2-1.08c.09-.13.17-.3.25-.46.35-.69.83-1.63,1.89-1.73.84-.07,1.72-.1,2.86-.1.52,0,1.03,0,1.55.01.5,0,1.01.01,1.51.01.69,0,1.27.49,1.4,1.17l.13.71c.08.44-.06.89-.36,1.22l-1.77,1.87c-.28.29-.65.44-1.03.44-.31,0-.61-.1-.87-.3l-.71-.55c-.52.37-1.1.74-1.83.85-.07.01-.21.02-.29.02Z"/>
        <path class="cls-3" d="m193.38,19.61c1.02,0,2.03.02,3.05.02.04.24.08.47.13.71-.55.59-1.11,1.17-1.76,1.87-.55-.43-1.04-.81-1.53-1.19-.73.46-1.37,1.1-2.09,1.21-.02,0-.05,0-.07,0-.47,0-1.03-.64-1.55-.97.36-.54.68-1.52,1.08-1.56.91-.08,1.83-.1,2.75-.1m0-2.83h0c-1.19,0-2.11.03-3,.11-1.84.16-2.65,1.74-3.03,2.49-.06.12-.11.24-.18.33-.42.63-.56,1.41-.4,2.15.16.74.61,1.39,1.25,1.8.08.06.17.13.26.2.56.45,1.5,1.21,2.81,1.21.17,0,.34-.01.5-.04.58-.09,1.09-.29,1.53-.52.5.36,1.08.54,1.66.54.76,0,1.51-.3,2.06-.89l1.35-1.44.41-.44c.61-.65.88-1.56.73-2.44l-.13-.71c-.24-1.35-1.42-2.34-2.79-2.34-.5,0-.99,0-1.49-.01-.52,0-1.04-.01-1.56-.01h0Z"/>
      </g>
      <g>
        <path class="cls-2" d="m17.16,185.87c-.3,0-.6-.09-.85-.28l-1.23-.91c-1.34-.99-2.72-2-4.04-3.09-.84-.69-.57-1.73-.4-2.41.04-.14.07-.28.09-.39.07-.46.36-.86.78-1.06.2-.1.41-.14.62-.14.24,0,.48.06.7.18.51.29,1.01.56,1.5.83,1.34.73,2.61,1.42,3.82,2.27.84.59.94,1.62,1.01,2.37.02.2.04.41.07.58.14.64-.18,1.29-.77,1.58l-.7.34c-.2.09-.41.14-.62.14Z"/>
        <path class="cls-3" d="m12.14,178.99c1.85,1.04,3.62,1.91,5.21,3.02.44.31.36,1.38.51,2.1-.23.11-.47.23-.7.34-1.75-1.3-3.53-2.57-5.21-3.95-.21-.18.12-1.01.19-1.51m0-2.83c-.43,0-.85.1-1.24.29-.83.41-1.42,1.2-1.56,2.11-.02.08-.04.17-.07.27-.2.78-.66,2.59.87,3.86,1.35,1.12,2.75,2.15,4.11,3.15.41.3.81.6,1.22.9.5.37,1.09.56,1.69.56.42,0,.84-.09,1.23-.28l.35-.17.35-.17c1.18-.57,1.82-1.87,1.54-3.15-.01-.07-.03-.28-.05-.42-.09-.91-.23-2.43-1.6-3.4-1.28-.9-2.64-1.64-3.96-2.35-.49-.27-.99-.54-1.49-.82-.43-.24-.91-.37-1.39-.37h0Z"/>
      </g>
      <g>
        <path class="cls-2" d="m286.66,53.15c-.23,0-.45-.05-.66-.16l-3.84-2.02c-.69-.36-.96-1.21-.6-1.91l2.22-4.28c.25-.47.73-.76,1.26-.76.05,0,.11,0,.16,0,.58.07,1.07.49,1.21,1.05l1.62,6.29c.14.54-.05,1.12-.49,1.46-.26.2-.57.31-.88.31Z"/>
        <path class="cls-3" d="m285.04,45.44c.56,2.16,1,3.87,1.62,6.29-1.44-.76-2.58-1.35-3.84-2.02.78-1.51,1.39-2.68,2.22-4.28m0-2.83c-1.05,0-2.02.58-2.51,1.53l-.9,1.74-1.32,2.54c-.72,1.39-.18,3.09,1.2,3.82l1.65.86,2.2,1.15c.41.22.87.32,1.32.32.63,0,1.25-.21,1.76-.61.88-.7,1.26-1.84.98-2.93l-.85-3.29-.77-3c-.29-1.14-1.26-1.98-2.42-2.11-.11-.01-.22-.02-.32-.02h0Z"/>
      </g>
      <g>
        <path class="cls-2" d="m249.64,64.89c-.21,0-.41-.04-.6-.13-.34-.16-.6-.45-.73-.81l-.61-1.71c-.13-.37-.11-.78.07-1.12s.49-.61.87-.72l4.09-1.17c.13-.04.26-.05.39-.05.59,0,1.13.37,1.34.95l.5,1.42c.26.73-.12,1.55-.85,1.81l-3.98,1.45c-.16.06-.32.08-.49.08Z"/>
        <path class="cls-3" d="m253.11,60.59c.17.48.34.95.5,1.43-1.33.48-2.65.97-3.98,1.45-.2-.57-.41-1.14-.61-1.72,1.36-.39,2.72-.78,4.09-1.17m0-2.84c-.26,0-.52.04-.78.11l-2.04.58-2.04.58c-.75.21-1.39.73-1.74,1.43-.36.7-.41,1.51-.15,2.25l.31.86.31.86c.25.71.78,1.29,1.46,1.61.38.18.79.27,1.21.27.33,0,.66-.06.97-.17l3.4-1.24.57-.21c1.46-.53,2.22-2.14,1.7-3.61l-.25-.71-.25-.72c-.41-1.16-1.5-1.89-2.67-1.89h0Z"/>
      </g>
      <g>
        <path class="cls-2" d="m271.96,51.25c-.35,0-.72-.05-1.12-.15-.63-.16-1.07-.73-1.07-1.38v-3.85c0-.78.63-1.42,1.42-1.42h3.34c.6,0,1.13.37,1.33.94s.03,1.19-.43,1.57c-.14.12-.29.77-.37,1.11-.24,1.03-.75,3.17-3.1,3.17Z"/>
        <path class="cls-3" d="m274.52,45.87c-1.23,1.02-.49,3.96-2.56,3.96-.22,0-.48-.03-.77-.11v-3.85h3.34m0-2.83h-3.34c-1.57,0-2.83,1.27-2.83,2.83v3.85c0,1.3.88,2.43,2.14,2.75.52.13,1,.19,1.46.19,3.47,0,4.23-3.21,4.48-4.26.04-.18.1-.43.15-.58.73-.77.97-1.89.61-2.91-.41-1.12-1.47-1.87-2.67-1.87h0Zm0,5.67h0,0Z"/>
      </g>
      <g>
        <path class="cls-2" d="m32.64,247.01c-.16,0-.32-.03-.48-.08l-.77-.28c-.61-.22-1-.83-.93-1.48.03-.3.03-.63.02-.96,0-1.08,0-2.31.82-3.18.83-.86,2.05-.94,3.12-1.01.33-.02.66-.04.96-.09.08-.01.16-.02.24-.02.56,0,1.08.33,1.3.86l.39.91c.23.53.11,1.15-.31,1.56l-3.38,3.34c-.27.27-.63.41-1,.41Z"/>
        <path class="cls-3" d="m35.63,241.34c.13.31.26.61.39.92-1.12,1.11-2.25,2.23-3.38,3.34-.26-.09-.51-.18-.77-.28.12-1.13-.16-2.65.46-3.3.64-.67,2.16-.49,3.3-.69m0-2.83c-.16,0-.32.01-.48.04-.2.03-.51.05-.82.07-1.2.08-2.84.18-4.05,1.44-1.23,1.28-1.22,2.94-1.22,4.16,0,.3,0,.61-.02.81-.13,1.3.63,2.51,1.86,2.96l.77.28c.31.11.64.17.96.17.73,0,1.46-.29,2-.82l1.69-1.67,1.69-1.67c.82-.82,1.07-2.05.61-3.12l-.06-.14-.33-.78c-.45-1.06-1.49-1.73-2.61-1.73h0Z"/>
      </g>
      <g>
        <path class="cls-2" d="m9.28,189.11c-.19,0-.38-.04-.56-.12-.52-.22-.86-.74-.86-1.3v-5.75c0-.67.47-1.25,1.13-1.39l.51-.11c.1-.02.19-.03.29-.03.53,0,1.03.3,1.27.79l1.81,3.67c.28.56.15,1.23-.3,1.66l-2.32,2.19c-.27.25-.62.38-.97.38Z"/>
        <path class="cls-3" d="m9.8,181.84c.58,1.17,1.15,2.34,1.8,3.67-.62.58-1.29,1.22-2.32,2.19v-5.75c.17-.04.35-.07.52-.11m0-2.83c-.19,0-.38.02-.57.06l-.27.06-.25.05c-1.32.27-2.26,1.43-2.26,2.78v5.75c0,1.13.67,2.15,1.71,2.6.36.16.74.23,1.12.23.71,0,1.41-.27,1.94-.77l2.32-2.19c.91-.85,1.15-2.2.6-3.31l-.86-1.74-.95-1.93c-.48-.98-1.48-1.58-2.54-1.58h0Z"/>
      </g>
      <g>
        <path class="cls-2" d="m38.82,242.55c-.26,0-.51-.07-.73-.2-.32-.2-.55-.51-.64-.88l-.94-3.87c-.18-.73.25-1.48.97-1.69l1.48-.44c.14-.04.27-.06.41-.06.6,0,1.16.39,1.35.99l1.22,3.87c.12.37.08.78-.11,1.12-.19.34-.52.59-.9.68l-1.76.44c-.11.03-.23.04-.34.04Z"/>
        <path class="cls-3" d="m39.35,236.82c.41,1.29.82,2.58,1.23,3.87-.59.15-1.17.29-1.76.44l-.94-3.87c.49-.15.98-.3,1.47-.44m0-2.84c-.27,0-.54.04-.82.12l-.69.21-.79.24c-1.44.43-2.3,1.92-1.94,3.39l.47,1.93.47,1.93c.18.73.64,1.36,1.29,1.75.45.27.95.41,1.47.41.23,0,.46-.03.69-.08l.87-.22.89-.22c.76-.19,1.41-.68,1.79-1.37.38-.68.46-1.49.23-2.24l-1.23-3.87c-.38-1.21-1.5-1.98-2.7-1.98h0Z"/>
      </g>
      <g>
        <path class="cls-2" d="m30.15,153.77c-.82,0-1.5-.05-2.12-.15-1.03-.18-1.54-1.12-1.91-1.8-.1-.18-.2-.37-.3-.52-.3-.43-.34-.98-.11-1.45.23-.47.71-.77,1.23-.78.17,0,.33-.02.5-.04.28-.02.56-.05.83-.05.32,0,.61.03.88.09.98.22,1.94.51,2.87.79.36.11.73.22,1.09.32.65.19,1.08.81,1.02,1.49l-.07.75c-.07.73-.68,1.3-1.41,1.3-.4,0-.8.01-1.2.03-.43.01-.86.03-1.29.03Z"/>
        <path class="cls-3" d="m28.27,150.4c.19,0,.38.01.57.06,1.31.29,2.58.72,3.87,1.09-.02.25-.05.51-.07.76-.83,0-1.67.05-2.5.05-.63,0-1.26-.03-1.88-.13-.51-.09-.87-1.13-1.29-1.74.43-.01.87-.08,1.29-.08m0-2.83c-.36,0-.67.03-.95.05-.14.01-.28.03-.42.03-1.04.03-1.99.63-2.45,1.56s-.39,2.05.21,2.9c.04.06.15.25.21.38.42.78,1.21,2.24,2.92,2.53.7.12,1.45.17,2.35.17.44,0,.89-.01,1.33-.03.39-.01.78-.02,1.16-.02,1.47,0,2.69-1.12,2.82-2.58l.03-.38.03-.38c.12-1.35-.73-2.6-2.04-2.98-.36-.1-.72-.21-1.09-.32-.95-.29-1.93-.58-2.96-.81-.37-.08-.76-.12-1.18-.12h0Z"/>
      </g>
      <g>
        <path class="cls-2" d="m126.35,186.82l-.58-.05c-.43-.04-.85-.28-1.09-.64l-2.33-3.57c-.31-.47-.31-1.07,0-1.54.26-.41.71-.65,1.19-.65.07,0,.15,0,.22.02.33.05.69.07,1.03.09,1.14.07,2.32.14,2.83,1.2.46.95.38,1.98.31,2.88-.02.29-.05.57-.05.84,0,.4-.17.77-.46,1.04-.26.24-.61.37-.96.37-.04,0-.08,0-.12,0Z"/>
        <path class="cls-3" d="m123.54,181.79c1.14.18,2.58.05,2.81.51.42.85.12,2.05.12,3.11-.2-.02-.4-.03-.6-.05-.68-1.05-1.37-2.1-2.33-3.57m0-2.83c-.95,0-1.85.48-2.38,1.3-.61.94-.61,2.15,0,3.09l.44.67,1.89,2.9c.48.73,1.26,1.2,2.13,1.28l.6.05c.08,0,.16.01.24.01.71,0,1.39-.26,1.92-.75.58-.54.92-1.29.92-2.09,0-.2.02-.46.04-.73.08-.98.18-2.32-.45-3.62-.87-1.8-2.76-1.92-4.01-1.99-.32-.02-.66-.04-.91-.08-.15-.02-.29-.03-.44-.03h0Z"/>
      </g>
      <g>
        <path class="cls-2" d="m187.92,241.04c-1.61,0-2.49-1.05-3.13-1.81-.25-.29-.48-.57-.7-.73-.39-.28-.61-.75-.58-1.23s.3-.91.71-1.15c.77-.44,1.48-.65,2.17-.65,1.57,0,2.5,1.11,3.18,1.92.25.3.49.58.74.81.35.32.52.79.45,1.26-.07.47-.37.87-.8,1.07-.74.35-1.4.52-2.04.52Z"/>
        <path class="cls-3" d="m186.39,236.88c1.31,0,1.91,1.4,2.97,2.36-.57.27-1.04.38-1.43.38-1.46,0-1.95-1.51-3-2.27.58-.33,1.06-.47,1.47-.47m0-2.83h0c-.94,0-1.88.27-2.87.84-.84.48-1.37,1.34-1.43,2.3-.05.96.38,1.88,1.16,2.45.09.07.31.33.45.5.68.81,1.95,2.31,4.22,2.31.85,0,1.72-.21,2.65-.65.86-.4,1.45-1.21,1.59-2.15.14-.94-.2-1.88-.9-2.52-.18-.16-.39-.41-.61-.67-.76-.91-2.03-2.42-4.26-2.42h0Z"/>
      </g>
      <g>
        <path class="cls-2" d="m75.11,289.92c-.49,0-.95-.26-1.21-.68l-2.16-3.55c-.2-.33-.26-.72-.16-1.09s.33-.69.66-.88l.81-.47c.22-.13.46-.19.71-.19.27,0,.54.08.77.23,1.29.84,3.82,2.49,1.8,5.92-.25.43-.71.69-1.21.7h0Z"/>
        <path class="cls-3" d="m73.76,284.49c1.33.87,2.71,1.71,1.35,4.02-.72-1.18-1.44-2.37-2.16-3.55.27-.16.54-.31.81-.47m0-2.83c-.49,0-.98.13-1.42.38l-.15.08-.66.38c-.66.38-1.14,1.01-1.33,1.75-.19.74-.07,1.52.32,2.17l.66,1.08,1.5,2.46c.51.85,1.43,1.36,2.42,1.36h.02c1,0,1.92-.54,2.42-1.39,2.71-4.6-.96-7-2.17-7.78l-.07-.05c-.47-.31-1.01-.46-1.55-.46h0Z"/>
      </g>
      <g>
        <path class="cls-2" d="m185.65,224.15c-.3-.03-.61-.06-.92-.09-.95-.09-1.92-.18-2.9-.45-1.15-.31-1.2-1.45-1.24-2.45-.01-.27-.02-.55-.05-.8-.06-.51.16-1,.57-1.3.25-.18.54-.27.83-.27.2,0,.4.04.58.13l3.97,1.79c.57.26.9.86.82,1.48l-.1.75c-.09.71-.7,1.23-1.4,1.23-.05,0-.11,0-.16,0Z"/>
        <path class="cls-3" d="m181.94,220.2c1.59.72,2.78,1.25,3.97,1.79-.03.25-.07.5-.1.75-1.21-.14-2.44-.18-3.6-.5-.23-.06-.17-1.19-.26-2.04m0-2.83c-.59,0-1.18.18-1.67.54-.82.6-1.26,1.6-1.15,2.61.03.22.03.47.04.71.05,1.03.14,3.17,2.29,3.75,1.09.3,2.18.4,3.14.49.3.03.59.05.89.09.11.01.22.02.32.02,1.4,0,2.62-1.04,2.81-2.46l.1-.75c.16-1.24-.5-2.44-1.64-2.95l-1.38-.62-2.58-1.17c-.37-.17-.77-.25-1.17-.25h0Z"/>
      </g>
      <g>
        <path class="cls-2" d="m71.93,246.98c-.34,0-.67-.12-.93-.35-.28-.25-.46-.6-.48-.97l-.25-3.8c-.05-.78.54-1.45,1.32-1.51l1.05-.07s.07,0,.1,0c.34,0,.68.12.94.35.28.25.46.6.48.98l.23,3.81c.05.78-.54,1.44-1.32,1.5l-1.02.07s-.06,0-.1,0Z"/>
        <path class="cls-3" d="m72.73,241.69c.08,1.27.15,2.54.23,3.81-.34.02-.68.05-1.02.07-.08-1.27-.17-2.54-.25-3.8.35-.02.7-.05,1.05-.07m0-2.83c-.06,0-.13,0-.19,0l-.52.04-.52.04c-1.56.11-2.74,1.46-2.63,3.02l.13,1.9.13,1.9c.05.75.4,1.45.96,1.95.52.45,1.18.7,1.87.7.06,0,.13,0,.19,0l1.03-.07c1.55-.11,2.72-1.44,2.63-3l-.11-1.9-.11-1.9c-.04-.75-.39-1.46-.96-1.96-.52-.46-1.19-.71-1.87-.71h0Z"/>
      </g>
      <g>
        <path class="cls-2" d="m99.13,169.34c-.59,0-1.13-.37-1.34-.95l-.24-.67c-.2-.55-.03-1.17.42-1.55l2.44-2.07c.26-.22.59-.34.92-.34.19,0,.37.04.55.11l.68.29c.66.28,1.01,1,.81,1.69-.05.17-.08.36-.11.55-.12.72-.27,1.62-1.02,2.22-.72.58-1.61.62-2.33.66-.2,0-.41.02-.59.04-.07,0-.14.01-.21.01Z"/>
        <path class="cls-3" d="m101.33,165.18c.23.1.45.19.68.29-.2.71-.18,1.68-.65,2.06-.52.42-1.47.29-2.24.4-.08-.22-.16-.45-.24-.67.81-.69,1.63-1.38,2.44-2.07m0-2.83c-.66,0-1.31.23-1.83.67l-1.2,1.02-1.24,1.05c-.9.76-1.23,2-.84,3.11l.24.68c.41,1.14,1.49,1.89,2.67,1.89.14,0,.27,0,.41-.03.1-.01.29-.02.46-.03.82-.04,2.07-.1,3.15-.97,1.16-.94,1.39-2.28,1.52-3.09.02-.14.06-.34.08-.41.38-1.37-.31-2.82-1.63-3.37l-.68-.29c-.35-.15-.73-.22-1.1-.22h0Z"/>
      </g>
      <g>
        <path class="cls-2" d="m7.43,179.24c-.55,0-1.06-.32-1.29-.83-.23-.5-.15-1.1.22-1.52l2.09-2.42c.27-.31.65-.49,1.06-.49h.02c.4,0,.78.17,1.05.47l2.18,2.42c.38.42.47,1.01.24,1.53s-.73.84-1.29.84h-4.27Z"/>
        <path class="cls-3" d="m9.52,175.4c.82.91,1.51,1.67,2.18,2.42h-4.27c.61-.7,1.23-1.42,2.09-2.42m0-2.83h-.03c-.81,0-1.58.37-2.11.98l-.76.88-1.33,1.54c-.72.84-.89,2.02-.43,3.03s1.47,1.65,2.58,1.65h4.27c1.12,0,2.14-.66,2.59-1.68.46-1.02.26-2.22-.49-3.05l-2.18-2.42c-.54-.6-1.3-.94-2.1-.94h0Z"/>
      </g>
      <g>
        <path class="cls-2" d="m100.3,26.36c-.39,0-.76-.16-1.03-.44s-.41-.66-.39-1.05l.02-.33c.03-.76.66-1.35,1.42-1.35h5.23c.39,0,.76.16,1.03.44.27.28.41.66.39,1.05l-.02.33c-.04.75-.66,1.35-1.42,1.35h-5.23Z"/>
        <path class="cls-3" d="m105.55,24.61c0,.11-.01.22-.02.33h-5.23c0-.11.01-.22.02-.33h5.23m0-2.83h-5.23c-1.51,0-2.76,1.19-2.83,2.7v.3c-.05.77.23,1.55.77,2.11s1.27.9,2.05.9h5.23c1.51,0,2.76-1.19,2.83-2.7v-.26s.02-.08.02-.08c.04-.77-.25-1.53-.78-2.09s-1.28-.88-2.05-.88h0Zm0,5.67h0,0Z"/>
      </g>
    </g>
    <g>
      <path class="cls-3" d="m134.51,208.5h-.02c-.44.74-1.05,1.01-1.82,1.01-.98,0-1.74-.35-2.28-.94-.53-.6-.84-1.43-.84-2.41,0-1.08.38-2.02,1.06-2.65.53-.48,1.21-.74,2.08-.74,1.63,0,2.57.9,2.77,2.17h-1.29c-.15-.62-.63-1.08-1.46-1.08-1.22,0-1.83,1.01-1.83,2.3s.7,2.29,1.81,2.29c1.01,0,1.67-.75,1.67-1.47v-.04h-1.56v-1.02h2.73v3.44h-.99l-.05-.87Z"/>
      <path class="cls-3" d="m137.55,205.46h.03c.28-.53.6-.8,1.14-.8.14,0,.22,0,.29.04v1.08h-.03c-.81-.08-1.39.34-1.39,1.32v2.27h-1.23v-4.65h1.19v.74Z"/>
      <path class="cls-3" d="m139.18,207.04c0-1.38.93-2.45,2.29-2.45,1.5,0,2.29,1.14,2.29,2.8h-3.37c.09.72.49,1.16,1.19,1.16.48,0,.76-.22.9-.57h1.21c-.17.83-.91,1.52-2.1,1.52-1.54,0-2.41-1.08-2.41-2.46Zm1.23-.5h2.07c-.04-.59-.43-1-.99-1-.65,0-.97.39-1.08,1Z"/>
      <path class="cls-3" d="m144.12,207.04c0-1.38.93-2.45,2.29-2.45,1.5,0,2.29,1.14,2.29,2.8h-3.37c.09.72.49,1.16,1.19,1.16.48,0,.76-.22.9-.57h1.21c-.17.83-.91,1.52-2.1,1.52-1.54,0-2.41-1.08-2.41-2.46Zm1.23-.5h2.07c-.04-.59-.43-1-.99-1-.65,0-.97.39-1.08,1Z"/>
      <path class="cls-3" d="m150.48,205.35h.03c.32-.5.74-.76,1.38-.76.96,0,1.6.72,1.6,1.74v3.04h-1.23v-2.86c0-.5-.29-.85-.81-.85-.54,0-.94.43-.94,1.07v2.64h-1.23v-4.65h1.21v.63Z"/>
      <path class="cls-3" d="m154.28,202.89h1.23v6.48h-1.23v-6.48Z"/>
      <path class="cls-3" d="m159.11,208.85h-.02c-.24.35-.57.62-1.37.62-.95,0-1.62-.5-1.62-1.42,0-1.02.83-1.35,1.87-1.5.77-.11,1.12-.17,1.12-.53,0-.33-.26-.55-.78-.55-.58,0-.86.21-.9.65h-1.1c.04-.82.64-1.53,2-1.53s1.96.62,1.96,1.71v2.37c0,.35.05.56.16.64v.04h-1.19c-.07-.09-.12-.31-.15-.52Zm0-1.12v-.7c-.22.13-.55.2-.86.27-.64.14-.96.29-.96.72s.29.59.73.59c.71,0,1.1-.44,1.1-.89Z"/>
      <path class="cls-3" d="m162.27,205.35h.03c.32-.5.74-.76,1.38-.76.96,0,1.6.72,1.6,1.74v3.04h-1.23v-2.86c0-.5-.29-.85-.81-.85-.54,0-.94.43-.94,1.07v2.64h-1.23v-4.65h1.21v.63Z"/>
      <path class="cls-3" d="m165.82,207.05c0-1.45.82-2.46,1.98-2.46.65,0,1.06.3,1.31.69h.03v-2.39h1.23v6.48h-1.19v-.61h-.02c-.27.44-.73.74-1.39.74-1.17,0-1.97-.95-1.97-2.46Zm3.35.03c0-.89-.29-1.49-1.08-1.49-.68,0-1.02.6-1.02,1.46s.35,1.42.99,1.42c.73,0,1.11-.54,1.11-1.4Z"/>
    </g>
    <g>
      <path class="cls-3" d="m99.91,92.51h1.36l2.28,6.48h-1.37l-.44-1.38h-2.34l-.43,1.38h-1.33l2.26-6.48Zm-.19,4.1h1.71l-.58-1.87c-.11-.34-.26-1-.26-1h-.02s-.16.65-.27,1l-.58,1.87Z"/>
      <path class="cls-3" d="m105.19,95.09h.03c.28-.53.6-.8,1.14-.8.14,0,.22,0,.29.04v1.08h-.03c-.81-.08-1.39.34-1.39,1.32v2.27h-1.23v-4.65h1.19v.74Z"/>
      <path class="cls-3" d="m106.96,94.35h.64v-1.45h1.21v1.45h.8v.82h-.8v2.47c0,.34.19.46.46.46.15,0,.36,0,.36,0v.91s-.28.02-.77.02c-.6,0-1.26-.24-1.26-1.11v-2.73h-.64v-.82Z"/>
      <path class="cls-3" d="m110.24,92.51h1.23v1.11h-1.23v-1.11Zm0,1.83h1.23v4.65h-1.23v-4.65Z"/>
      <path class="cls-3" d="m112.05,96.67c0-1.39.91-2.46,2.32-2.46,1.21,0,1.95.7,2.11,1.7h-1.21c-.08-.41-.4-.72-.85-.72-.74,0-1.12.57-1.12,1.47s.35,1.47,1.11,1.47c.5,0,.85-.26.93-.79h1.19c-.08.99-.85,1.78-2.09,1.78-1.47,0-2.38-1.07-2.38-2.46Z"/>
      <path class="cls-3" d="m118.7,92.51h1.31v6.48h-1.31v-6.48Z"/>
      <path class="cls-3" d="m120.69,96.67c0-1.39.91-2.46,2.32-2.46,1.21,0,1.95.7,2.11,1.7h-1.21c-.08-.41-.4-.72-.85-.72-.74,0-1.12.57-1.12,1.47s.35,1.47,1.11,1.47c.5,0,.85-.26.93-.79h1.19c-.08.99-.85,1.78-2.09,1.78-1.47,0-2.38-1.07-2.38-2.46Z"/>
      <path class="cls-3" d="m125.48,96.67c0-1.38.93-2.45,2.29-2.45,1.5,0,2.29,1.14,2.29,2.8h-3.37c.09.72.49,1.16,1.19,1.16.48,0,.76-.22.9-.57h1.21c-.17.83-.91,1.52-2.1,1.52-1.54,0-2.41-1.08-2.41-2.46Zm1.23-.5h2.07c-.04-.59-.43-1-.99-1-.65,0-.97.39-1.08,1Z"/>
    </g>
  </g>
</svg>